<svg xmlns="http://www.w3.org/2000/svg">
<defs>
<font id="Vollkorn-Bold" horiz-adv-x="600" >
  <font-face 
    font-family="Vollkorn"
    font-weight="700"
    font-stretch="normal"
    units-per-em="1000"
    panose-1="0 0 8 0 0 0 0 0 0 0"
    ascent="800"
    descent="-200"
    x-height="460"
    cap-height="678.999"
    bbox="-176.999 -315.136 3056 981.997"
    underline-thickness="0"
    underline-position="0"
    unicode-range="U+0020-U+FB02"
  />
<missing-glyph horiz-adv-x="454" 
d="M405 0h-352v677h352v-677zM123 558v-11c0 -1.33301 -0.333008 -2 -1 -2l-1 -1h3h3v1c-1.33301 0 -2 0.666992 -2 2v13v1l-3 -1c-0.666992 0 -1 -0.333008 -1 -1c1.33301 0 2 -0.333008 2 -1zM129 544h3h2v1c-0.666992 0 -1 0.666992 -1 2v13
c0 0.666992 -0.166992 1 -0.5 1h-0.5l-3 -1v-1c1.33301 0 2 -0.333008 2 -1v-11c0 -1.33301 -0.666992 -2 -2 -2v-1zM145 544h3v1l-3 1l-3 5l2 1l3 3h-2h-3v-0.5c0 -0.333008 0.333008 -0.5 1 -0.5l-1 -2l-2 -2v10v1l-4 -1v-1c1.33301 0 2 -0.333008 2 -1v-11
c0 -1.33301 -0.666992 -2 -2 -2v-1h3h3l-1 1c-0.666992 0 -1 0.666992 -1 2v2zM191 559c1.33301 0 1.99805 -0.333008 1.99805 -1v-10c0 -1.33301 -0.333008 -2.33301 -1 -3c0.666992 -0.666992 2.33398 -1 5.00098 -1c4 0 6 2 6 6c0 3.33301 -1.33301 5 -4 5
c-1.33301 0 -2.66602 -0.666992 -3.99902 -2v1v6c0 0.666992 -0.333008 1 -1 1l-3 -1v-1zM93.998 559c0.666992 0 1.33203 -1 1.99902 -3c2 -3.33301 3.66699 -7.33301 5 -12h1c2.66699 5.33301 4.33398 9.33301 5.00098 12l2 3v1h-2h-2v-1c0.666992 0 1 -0.333008 1 -1v-2
l-3 -9l-4 10c-0.666992 0 -1 0.166992 -1 0.5v0.5c0 0.666992 0.666992 1 2 1v1h-3h-3v-1zM119.996 549c0 4 -2 6 -6 6c-3.33301 0 -5 -2 -5 -6c0 -3.33301 1.66699 -5 5 -5c4 0 6 1.66699 6 5zM154.996 544c3.33301 0 5 1.66699 5 5c0 4 -1.66699 6 -5 6c-4 0 -6 -2 -6 -6
c0 -3.33301 2 -5 6 -5zM161.996 544h3h3v1c-1.33301 0 -2 0.666992 -2 2v3c0 2 0.666992 3 2 3c0.666992 0 1 -0.666992 1 -2h2v3l-2 1l-3 -1c0 0.666992 -0.333008 1 -1 1l-3 -1v-1c1.33301 0 2 -0.333008 2 -1v-5c0 -1.33301 -0.666992 -2 -2 -2v-1zM171.996 544h3h3v1

<glyph glyph-name="fi" unicode="fi" horiz-adv-x="801" 
d="M769 -3c-32 2 -88.332 2.99414 -168.999 2.99414c-86 0 -142.333 -1 -169 -3c0 28 2.66699 54 8 78c18.667 1.33301 32.5 4.33301 41.5 9s15.333 12.667 19 24s5.5 28.333 5.5 51v116c0 19.333 -2.16699 34.5 -6.5 45.5s-12.666 19.5 -24.999 25.5
s-30.5 9.33301 -54.5 10c-24.667 0 -49.5 -1.16699 -74.5 -3.5s-42.5 -5.16602 -52.5 -8.49902v-147c0 -32.667 1.83301 -57 5.5 -73s10.334 -27.5 20.001 -34.5s24.5 -11.833 44.5 -14.5c4.66699 -13.333 7 -39.333 7 -78c-40.667 2 -94.334 3 -161.001 3
c-84 0 -144 -1 -180 -3c0 34 2.33301 60 7 78c18.667 1.33301 32.667 4.83301 42 10.5s15.833 15.834 19.5 30.501s5.5 37 5.5 67v168c-29.333 12 -54.333 18 -75 18c0 34.667 5 61 15 79h60v32c0 47.333 12.667 88.833 38 124.5s63.166 63.334 113.499 83.001
s111.833 29.5 184.5 29.5c94 0 169.667 -12.333 227 -37c-8 -33.333 -12 -78.666 -12 -135.999c-42 -18 -97.333 -27 -166 -27c-3.33301 33.333 -7.66602 58.5 -12.999 75.5s-13.833 29.333 -25.5 37s-28.834 11.5 -51.501 11.5c-38 0 -65 -11 -81 -33s-24 -54.333 -24 -97
v-63h167c75.333 1.33301 142.666 7.66602 201.999 18.999c9.33301 -4 17.333 -10.667 24 -20s10 -21.333 10 -36v-249c0 -23.333 2.16699 -41.166 6.5 -53.499s11 -20.666 20 -24.999s21.833 -7.16602 38.5 -8.49902c6 -14.667 9 -40.667 9 -78z" />
    <glyph glyph-name="fl" unicode="fl" horiz-adv-x="821" 
d="M786 -3c-24.667 2 -80.998 3.00195 -168.998 3.00195c-88.667 0 -145 -1 -169 -3c0 36 3 62 9 78c18 1.33301 31.5 4.5 40.5 9.5s15.333 13.333 19 25s5.5 29.167 5.5 52.5v384c0 31.333 -10.333 55 -31 71s-45 24 -73 24c-40.667 0 -71.834 -9.83301 -93.501 -29.5
s-32.5 -53.167 -32.5 -100.5v-63h117c0 -41.333 -3.33301 -69 -10 -83c-38.667 0 -74.334 -5 -107.001 -15v-153c0 -30.667 2 -54.167 6 -70.5s11.5 -28.5 22.5 -36.5s27.833 -13 50.5 -15c6 -16.667 9 -42.667 9 -78c-38 2 -94.667 3 -170 3s-136 -1 -182 -3
c0 34 2.33301 60 7 78c19.333 1.33301 33.5 5 42.5 11s15.333 16.5 19 31.5s5.5 38.167 5.5 69.5v170c-26.667 8 -51.667 12 -75 12c0 36.667 4.66699 63 14 79h61v29c0 77.333 29.5 136.666 88.5 177.999s137.167 62 234.5 62c24.667 0 50.167 -2.66699 76.5 -8
s49.166 -12 68.499 -20c48.667 7.33301 84.334 16.666 107.001 27.999c23.333 -10.667 35 -32 35 -64v-491c0 -22.667 1.83301 -40 5.5 -52s10.167 -20.5 19.5 -25.5s23 -8.16699 41 -9.5c5.33301 -16.667 8 -42.667 8 -78z" />
    <glyph glyph-name="f_f" unicode="ff" horiz-adv-x="821" 
d="M689.5 631c-5.66699 -6.66699 -9.83203 -19.333 -12.499 -38s-4 -46 -4 -82v-63h117c0 -41.333 -3.33301 -69 -10 -83c-38.667 0 -74.334 -5 -107.001 -15v-153c0 -43.333 7.66699 -73.833 23 -91.5s44 -27.834 86 -30.501c6 -16.667 9 -42.667 9 -78c-38 2 -98 3 -180 3
c-88.667 0 -156 -1 -202 -3c0 34 2.33301 60 7 78c19.333 1.33301 33.5 5 42.5 11s15.333 16.5 19 31.5s5.5 38.167 5.5 69.5v169c-29.333 8 -57.333 12 -84 12c-32.667 0 -68.334 -6 -107.001 -18v-153c0 -34.667 2 -60 6 -76s10.5 -27.167 19.5 -33.5
s23.5 -10.5 43.5 -12.5c6 -16.667 9 -42.667 9 -78c-38 2 -91.333 3 -160 3c-75.333 0 -136 -1 -182 -3c0 34 2.33301 60 7 78c19.333 1.33301 33.5 5 42.5 11s15.333 16.5 19 31.5s5.5 38.167 5.5 69.5v170c-26.667 8 -51.667 12 -75 12c0 36.667 4.66699 63 14 79h61v29
c0 72 26.5 126.667 79.5 164s123.833 56 212.5 56c31.333 0 63.333 -2.66699 96 -8s58.334 -12 77.001 -20c43.333 32 99 48 167 48c28 0 56.5 -3.16699 85.5 -9.5s50.833 -14.166 65.5 -23.499c-4.66699 -24 -7 -55 -7 -93c0 -12.667 0.666992 -27.667 2 -45
c-12 -5.33301 -29.833 -9.16602 -53.5 -11.499s-45.5 -2.83301 -65.5 -1.5c0 33.333 -4.5 59.666 -13.5 78.999s-20.5 29 -34.5 29c-10 0 -17.833 -3.33301 -23.5 -10zM483.002 477.001c0 34 4.33301 63.666 13 88.999c-22.667 37.333 -60 56 -112 56
c-23.333 0 -41.5 -3 -54.5 -9s-22.5 -17.167 -28.5 -33.5s-9 -40.166 -9 -71.499v-60h191v29z" />
    <glyph glyph-name="f_f_i" unicode="ffi" horiz-adv-x="1169" 
d="M1150 -3c-32 2 -88.3291 2.99414 -168.996 2.99414c-86 0 -142.333 -1 -169 -3c0 28 2.66699 54 8 78c18.667 1.33301 32.5 4.33301 41.5 9s15.333 12.667 19 24s5.5 28.333 5.5 51v116c0 19.333 -2.33301 34.5 -7 45.5s-13.834 19.5 -27.501 25.5
s-34.167 9.33301 -61.5 10c-24 0 -47 -1.16699 -69 -3.5s-38 -5.16602 -48 -8.49902v-147c0 -32.667 1.83301 -57 5.5 -73s10.334 -27.5 20.001 -34.5s24.5 -11.833 44.5 -14.5c4.66699 -13.333 7 -39.333 7 -78c-40.667 2 -94.334 3 -161.001 3c-84 0 -144 -1 -180 -3
c0 34 2.33301 60 7 78c18.667 1.33301 32.667 4.83301 42 10.5s15.833 15.834 19.5 30.501s5.5 37 5.5 67v173c-29.333 8 -57.333 12 -84 12c-32.667 0 -68.334 -6 -107.001 -18v-153c0 -34.667 2 -60 6 -76s10.5 -27.167 19.5 -33.5s23.5 -10.5 43.5 -12.5
c6 -16.667 9 -42.667 9 -78c-38 2 -91.333 3 -160 3c-75.333 0 -136 -1 -182 -3c0 34 2.33301 60 7 78c19.333 1.33301 33.5 5 42.5 11s15.333 16.5 19 31.5s5.5 38.167 5.5 69.5v170c-26.667 8 -51.667 12 -75 12c0 36.667 4.66699 63 14 79h61v29
c0 72 26.5 126.667 79.5 164s123.833 56 212.5 56c32 0 64.833 -3.16699 98.5 -9.5s63.167 -15.166 88.5 -26.499c60 37.333 139.333 56 238 56c94 0 169.667 -12.333 227 -37c-8 -33.333 -12 -78.666 -12 -135.999c-42 -18 -97.333 -27 -166 -27
c-3.33301 33.333 -7.66602 58.5 -12.999 75.5s-13.833 29.333 -25.5 37s-28.834 11.5 -51.501 11.5c-38 0 -65 -11 -81 -33s-24 -54.333 -24 -97v-63h157c33.333 0.666992 70.166 2.66699 110.499 6s74.166 7.66602 101.499 12.999c9.33301 -4 17.333 -10.667 24 -20
s10 -21.333 10 -36v-249c0 -23.333 2.16699 -41.166 6.5 -53.499s11 -20.666 20 -24.999s21.833 -7.16602 38.5 -8.49902c6 -14.667 9 -40.667 9 -78zM483.004 479.994c0 30 5 57.332 15 81.999c-21.333 40 -59.333 60 -114 60c-23.333 0 -41.5 -3 -54.5 -9
s-22.5 -17.167 -28.5 -33.5s-9 -40.166 -9 -71.499v-60h191v32z" />
    <glyph glyph-name="f_f_l" unicode="ffl" horiz-adv-x="1192" 
d="M1167 -3c-24.667 2 -80.998 2.99902 -168.998 2.99902c-88.667 0 -145 -1 -169 -3c0 36 3 62 9 78c18 1.33301 31.5 4.5 40.5 9.5s15.333 13.333 19 25s5.5 29.167 5.5 52.5v384c0 31.333 -10.333 55 -31 71s-45 24 -73 24c-40.667 0 -71.834 -9.83301 -93.501 -29.5
s-32.5 -53.167 -32.5 -100.5v-63h117c0 -41.333 -3.33301 -69 -10 -83c-38.667 0 -74.334 -5 -107.001 -15v-153c0 -30.667 2 -54.167 6 -70.5s11.5 -28.5 22.5 -36.5s27.833 -13 50.5 -15c6 -16.667 9 -42.667 9 -78c-38 2 -94.667 3 -170 3s-136 -1 -182 -3
c0 34 2.33301 60 7 78c19.333 1.33301 33.5 5 42.5 11s15.333 16.5 19 31.5s5.5 38.167 5.5 69.5v169c-29.333 8 -57.333 12 -84 12c-32 0 -67.667 -6 -107 -18v-153c0 -34.667 2 -60 6 -76s10.5 -27.167 19.5 -33.5s23.5 -10.5 43.5 -12.5c6 -16.667 9 -42.667 9 -78
c-38 2 -91.333 3 -160 3c-75.333 0 -136 -1 -182 -3c0 34 2.33301 60 7 78c19.333 1.33301 33.5 5 42.5 11s15.333 16.5 19 31.5s5.5 38.167 5.5 69.5v170c-26.667 8 -51.667 12 -75 12c0 36.667 4.66699 63 14 79h61v29c0 72 26.5 126.667 79.5 164s123.833 56 212.5 56
c32 0 64.667 -3.16699 98 -9.5s63 -15.166 89 -26.499c57.333 37.333 132.333 56 225 56c25.333 0 51.5 -2.83301 78.5 -8.5s49.833 -12.5 68.5 -20.5c43.333 5.33301 78.333 15 105 29c23.333 -10.667 35 -32 35 -64v-491c0 -22.667 1.83301 -40 5.5 -52
s10.167 -20.5 19.5 -25.5s23 -8.16699 41 -9.5c5.33301 -16.667 8 -42.667 8 -78zM483.002 476.999c0 30.667 5 59 15 85c-11.333 21.333 -26.333 37 -45 47s-39.667 15 -63 15c-34.667 0 -59.667 -8.66699 -75 -26s-23 -47.333 -23 -90v-60h191v29z" />
    <glyph glyph-name="f_f_t.liga" unicode="fft" horiz-adv-x="1222" 
d="M1212 25c-14.667 -10 -35.666 -18.165 -62.999 -24.498s-55.666 -9.5 -84.999 -9.5c-54.667 0 -95.167 14 -121.5 42s-39.5 75 -39.5 141v183c-18.667 8 -43.667 12 -75 12c0 31.333 4.66699 57.666 14 78.999h61v78c0 31.333 -10.333 55 -31 71s-45 24 -73 24
c-40.667 0 -71.834 -9.83301 -93.501 -29.5s-32.5 -53.167 -32.5 -100.5v-43h117c0 -41.333 -3.33301 -69 -10 -83c-38.667 0 -74.334 -5 -107.001 -15v-153c0 -43.333 7.66699 -73.833 23 -91.5s44 -27.834 86 -30.501c6 -16.667 9 -42.667 9 -78c-38 2 -98 3 -180 3
c-88.667 0 -156 -1 -202 -3c0 34 2.33301 60 7 78c19.333 1.33301 33.5 5 42.5 11s15.333 16.5 19 31.5s5.5 38.167 5.5 69.5v169c-29.333 8 -57.333 12 -84 12c-32 0 -67.667 -6 -107 -18v-153c0 -34.667 2 -60 6 -76s10.5 -27.167 19.5 -33.5s23.5 -10.5 43.5 -12.5
c6 -16.667 9 -42.667 9 -78c-38 2 -91.333 3 -160 3c-75.333 0 -136 -1 -182 -3c0 34 2.33301 60 7 78c19.333 1.33301 33.5 5 42.5 11s15.333 16.5 19 31.5s5.5 38.167 5.5 69.5v170c-26.667 8 -51.667 12 -75 12c0 36.667 4.66699 63 14 79h61v19
c0 72 26.5 126.667 79.5 164s123.833 56 212.5 56c33.333 0 66.833 -3.5 100.5 -10.5s64.5 -17.5 92.5 -31.5c56.667 34.667 129.667 52 219 52c26 0 53.333 -3.16699 82 -9.5s55 -14.833 79 -25.5c40 6.66699 70.333 15 91 25c23.333 -10.667 35 -32 35 -64v-175h117
c0 -28.667 -3.33301 -55.334 -10 -80.001c-40 0 -75.667 -6 -107 -18v-164c0 -30.667 1.5 -53.667 4.5 -69s7.66699 -25.666 14 -30.999s15.833 -8 28.5 -8c20 0 39 3.66699 57 11c10 -14.667 15 -36 15 -64zM483.001 457.002c0 33.333 5.66699 63.332 17 89.999
c-20 43.333 -58.667 65 -116 65c-23.333 0 -41.5 -3 -54.5 -9s-22.5 -17.167 -28.5 -33.5s-9 -40.166 -9 -71.499v-50h191v9z" />
    <glyph glyph-name="f_t.liga" unicode="ft" horiz-adv-x="841" 
d="M831 25c-14.667 -10 -35.666 -18.1641 -62.999 -24.4971s-55.666 -9.5 -84.999 -9.5c-54.667 0 -95.167 14 -121.5 42s-39.5 75 -39.5 141v183c-18.667 8 -43.667 12 -75 12c0 31.333 4.66699 57.666 14 78.999h61v78c0 31.333 -10.333 55 -31 71s-45 24 -73 24
c-40.667 0 -71.834 -9.83301 -93.501 -29.5s-32.5 -53.167 -32.5 -100.5v-43h117c0 -41.333 -3.33301 -69 -10 -83c-38.667 0 -74.334 -5 -107.001 -15v-153c0 -43.333 7.66699 -73.833 23 -91.5s44 -27.834 86 -30.501c6 -16.667 9 -42.667 9 -78c-38 2 -98 3 -180 3
c-88.667 0 -156 -1 -202 -3c0 34 2.33301 60 7 78c19.333 1.33301 33.5 5 42.5 11s15.333 16.5 19 31.5s5.5 38.167 5.5 69.5v170c-26.667 8 -51.667 12 -75 12c0 36.667 4.66699 63 14 79h61v9c0 77.333 29.5 136.666 88.5 177.999s137.167 62 234.5 62
c26 0 53.333 -3.16699 82 -9.5s55 -14.833 79 -25.5c40 6.66699 70.333 15 91 25c23.333 -10.667 35 -32 35 -64v-175h117c0 -28.667 -3.33301 -55.334 -10 -80.001c-40 0 -75.667 -6 -107 -18v-164c0 -30.667 1.5 -53.667 4.5 -69s7.66699 -25.666 14 -30.999
s15.833 -8 28.5 -8c20 0 39 3.66699 57 11c10 -14.667 15 -36 15 -64z" />
    <glyph glyph-name=".notdef" horiz-adv-x="454" 
d="M405 0h-352v677h352v-677zM123 558v-11c0 -1.33301 -0.333008 -2 -1 -2l-1 -1h3h3v1c-1.33301 0 -2 0.666992 -2 2v13v1l-3 -1c-0.666992 0 -1 -0.333008 -1 -1c1.33301 0 2 -0.333008 2 -1zM129 544h3h2v1c-0.666992 0 -1 0.666992 -1 2v13
c0 0.666992 -0.166992 1 -0.5 1h-0.5l-3 -1v-1c1.33301 0 2 -0.333008 2 -1v-11c0 -1.33301 -0.666992 -2 -2 -2v-1zM145 544h3v1l-3 1l-3 5l2 1l3 3h-2h-3v-0.5c0 -0.333008 0.333008 -0.5 1 -0.5l-1 -2l-2 -2v10v1l-4 -1v-1c1.33301 0 2 -0.333008 2 -1v-11
c0 -1.33301 -0.666992 -2 -2 -2v-1h3h3l-1 1c-0.666992 0 -1 0.666992 -1 2v2zM191 559c1.33301 0 1.99805 -0.333008 1.99805 -1v-10c0 -1.33301 -0.333008 -2.33301 -1 -3c0.666992 -0.666992 2.33398 -1 5.00098 -1c4 0 6 2 6 6c0 3.33301 -1.33301 5 -4 5
c-1.33301 0 -2.66602 -0.666992 -3.99902 -2v1v6c0 0.666992 -0.333008 1 -1 1l-3 -1v-1zM93.998 559c0.666992 0 1.33203 -1 1.99902 -3c2 -3.33301 3.66699 -7.33301 5 -12h1c2.66699 5.33301 4.33398 9.33301 5.00098 12l2 3v1h-2h-2v-1c0.666992 0 1 -0.333008 1 -1v-2
l-3 -9l-4 10c-0.666992 0 -1 0.166992 -1 0.5v0.5c0 0.666992 0.666992 1 2 1v1h-3h-3v-1zM119.996 549c0 4 -2 6 -6 6c-3.33301 0 -5 -2 -5 -6c0 -3.33301 1.66699 -5 5 -5c4 0 6 1.66699 6 5zM154.996 544c3.33301 0 5 1.66699 5 5c0 4 -1.66699 6 -5 6c-4 0 -6 -2 -6 -6
c0 -3.33301 2 -5 6 -5zM161.996 544h3h3v1c-1.33301 0 -2 0.666992 -2 2v3c0 2 0.666992 3 2 3c0.666992 0 1 -0.666992 1 -2h2v3l-2 1l-3 -1c0 0.666992 -0.333008 1 -1 1l-3 -1v-1c1.33301 0 2 -0.333008 2 -1v-5c0 -1.33301 -0.666992 -2 -2 -2v-1zM171.996 544h3h3v1
c-1.33301 0 -2 0.666992 -2 2v2c0 3.33301 1 5 3 5c1.33301 0 2 -1 2 -3v-4c0 -1.33301 -0.333008 -2 -1 -2l-1 -1h3h3v1c-1.33301 0 -2 0.666992 -2 2v4c0 2.66699 -1 4 -3 4l-4 -1v1l-4 -1v-1c1.33301 0 2 -0.333008 2 -1v-5c0 -1.33301 -0.666992 -2 -2 -2v-1z
M216.996 555h-2h-3v-1l2 -1l-1 -2l-1 -4v-1l-3 5v2v0.5c0 0.333008 0.333008 0.5 1 0.5s1 0.166992 1 0.5v0.5h-4c-1.33301 0 -2 -0.333008 -2 -1c0.666992 0 1.33398 -1 2.00098 -3l3 -7c0 -1.33301 -0.333008 -2.33301 -1 -3c0 -0.666992 -0.666992 -1 -2 -1h-2v-2h2
c1.33301 0 2.66602 1.66699 3.99902 5l4 8zM116.996 549c0 -2.66699 -1 -4 -3 -4s-3 1.66699 -3 5c0 2.66699 1 4 3 4s3 -1.66699 3 -5zM157.996 549c0 -2.66699 -1 -4 -3 -4s-3 1.66699 -3 5c0 2.66699 0.666992 4 2 4c2.66699 0 4 -1.66699 4 -5zM196.996 545h-2v4
c0 3.33301 1 5 3 5s3 -1.66699 3 -5c0 -2.66699 -1.33301 -4 -4 -4zM102.996 528v3c0 0.666992 -0.666992 1 -2 1c-3.33301 0 -5 -2 -5 -6v-1h-2v-1h2v-6c0 -1.33301 -0.666992 -2.33301 -2 -3v-1h3h3v1c-1.33301 1.33301 -2 2.33301 -2 3v6h2l1 1h-3v2
c0 2.66699 0.666992 4 2 4s2.33301 -1 3 -3zM115.996 529c1.33301 0 2 0.333008 2 1c0 1.33301 -0.666992 2 -2 2c-0.666992 0 -1 -0.666992 -1 -2c0 -0.666992 0.333008 -1 1 -1zM142.996 518l-0.000976562 12.999c0 0.666992 -0.166992 1 -0.5 1h-0.5l-3 -1v-1
c0.666992 0 1 -0.666992 1 -2v-2h-2c-1.33301 0 -2.66602 -0.666992 -3.99902 -2s-2 -2.66602 -2 -3.99902c0 -4 1.66699 -6 5 -6c2 0 3 0.666992 3 2l1 1v-3l3 2c-0.666992 0 -1 0.666992 -1 2zM158.995 531.999c-1.33301 0 -2 -0.666992 -2 -2
c0 -0.666992 0.666992 -1 2 -1c0.666992 0 1 0.333008 1 1c0 1.33301 -0.333008 2 -1 2zM186.995 514.999c-1.33301 0 -2.00098 1 -2.00098 3v4c0 2.66699 -1 4 -3 4c-1.33301 0 -2.66602 -0.666992 -3.99902 -2v1v6c0 0.666992 -0.333008 1 -1 1l-3 -1v-1
c1.33301 0 2 -0.666992 2 -2v-10c0 -2 -0.666992 -3 -2 -3v-1h3h3v1c-1.33301 0 -2 1 -2 3v2c0 2.66699 1 4 3 4c1.33301 0 2 -1 2 -3v-3c0 -2 -0.666992 -3 -2 -3v-1h3h3v1zM205.994 514.999c-1.33301 0 -2 1 -2 3v13v1l-4 -1v-1c1.33301 0 2 -0.666992 2 -2v-10
c0 -2 -0.666992 -3 -2 -3v-1h3h3v1zM228.994 514.999c-1.33301 0 -2.00098 1 -2.00098 3v4c0 2.66699 -1 4 -3 4c-1.33301 0 -2.66602 -0.666992 -3.99902 -2v1v6v1l-4 -1v-1c1.33301 0 2 -0.666992 2 -2v-10c0 -2 -0.666992 -3 -2 -3v-1h3h3v1c-1.33301 0 -2 1 -2 3v2
c0 2.66699 1 4 3 4c1.33301 0 2 -1 2 -3v-3c0 -2 -0.666992 -3 -2 -3v-1h3h3v1zM310.993 515.499l0.000976562 0.5c-1.33301 0 -2 0.666992 -2 2v13c0 0.666992 -0.333008 1 -1 1l-3 -1v-1c1.33301 0 2 -0.666992 2 -2v-2h-2c-4 0 -6 -2 -6 -6s1.33301 -6 4 -6
c1.33301 0 2.66602 0.666992 3.99902 2v-1v-0.5c0 -0.333008 0.333008 -0.5 1 -0.5c0 0.666992 0.333008 1 1 1h1c0.666992 0 1 0.166992 1 0.5zM214.994 514.999c0 0.666992 -0.666992 1 -2 1s-2 0.666992 -2 2v6h3v1h-3v3v2l-2 -1v-4h-2v-1h2v-7c0 -2 1 -3 3 -3z
M111.994 524.999l-2 1l-3 -1v1l-4 -2c1.33301 0 2 -0.666992 2 -2v-4c0 -1.33301 -0.666992 -2.33301 -2 -3v-1h3h3v1c-1.33301 1.33301 -2 2.33301 -2 3v2c0 2.66699 0.666992 4 2 4c0.666992 0 1 -0.666992 1 -2h2v3zM118.994 514.999c-1.33301 0 -1.99902 1 -1.99902 3v8
c-0.666992 -0.666992 -1.33398 -1 -2.00098 -1h-1c-0.666992 0 -1 -0.166992 -1 -0.5v-0.5c1.33301 0 2 -0.666992 2 -2v-4c0 -2 -0.666992 -3 -2 -3v-1h3h3v1zM129.995 520.999c0 3.33301 -1.33203 5 -3.99902 5c-3.33301 0 -5 -2 -5 -6s1.66699 -6 5 -6
c1.33301 0 2.66602 0.666992 3.99902 2v1c-0.666992 -0.666992 -1.66699 -1 -3 -1c-2.66699 0 -4 1.33301 -4 4h7v1zM154.996 524.999l-1.99902 1l-3 -1v0.5c0 0.333008 -0.333008 0.5 -1 0.5c0 -0.666992 -0.333008 -1 -1 -1s-1.33398 -0.333008 -2.00098 -1
c1.33301 0 2 -0.666992 2 -2v-4c0 -0.666992 -0.666992 -1.66699 -2 -3v-1h3h3v1c-1.33301 1.33301 -2 2.33301 -2 3v2c0 2.66699 0.666992 4 2 4c0.666992 0 1 -0.666992 1 -2h2v3zM161.997 514.999c-1.33301 0 -2 1 -2 3v8l-4 -2c1.33301 0 2 -0.666992 2 -2v-4
c0 -2 -0.666992 -3 -2 -3v-1h3h3v1zM172.997 515.999c0 0.666992 -0.166016 1 -0.499023 1h-0.5c-0.666992 -0.666992 -1.66699 -1 -3 -1c-2 0 -3 1.33301 -3 4c0 3.33301 1 5 3 5c1.33301 0 2.33301 -1 3 -3v3l-3 1c-3.33301 0 -5 -2 -5 -6s1.66699 -6 5 -6
c1.33301 0 2.66602 0.666992 3.99902 2zM198.998 515.499v0.5c-1.33301 0 -2 0.666992 -2 2v3c0 2 -0.333008 3.33301 -1 4l-2 1l-4 -1v-2v-0.5c0 -0.333008 0.333008 -0.5 1 -0.5c0 2 0.666992 3 2 3l2 -1v-3c-4 0 -6 -1.33301 -6 -4c0 -2 1 -3 3 -3l2 1l1 1v-1l1 -1l2 1
c0.666992 0 1 0.166992 1 0.5zM238.998 517.999v3c0 2 -0.333008 3.33301 -1 4l-2 1l-4 -1v-2v-0.5c0 -0.333008 0.333008 -0.5 1 -0.5c0 2 0.666992 3 2 3l2 -1v-3c-4 0 -6 -1.33301 -6 -4c0 -2 1 -3 3 -3l3 1l1 -1l3 2c-1.33301 0 -2 0.666992 -2 2zM252.998 517.999v7
v0.5c0 0.333008 -0.333008 0.5 -1 0.5l-3 -1v-1c1.33301 0 2 -0.333008 2 -1v-3c0 -2.66699 -1 -4 -3 -4c-1.33301 0 -2 1 -2 3v6v0.5c0 0.333008 -0.333008 0.5 -1 0.5l-3 -2c1.33301 0 2 -0.666992 2 -2v-3c0 -3.33301 1 -5 3 -5c0.666992 0 1.66699 0.666992 3 2h0.5
c0.333008 0 0.5 0.333008 0.5 1v-2v-1l3 2c-0.666992 0 -1 0.666992 -1 2zM264.998 517.999c0 1.33301 -1.33301 2.33398 -4 3.00098c-2 1.33301 -3 2.33301 -3 3l2 1c2 0 3.33301 -1 4 -3v3c-0.666992 0.666992 -2 1 -4 1c-2.66699 0 -4 -1 -4 -3s1.33301 -3.33301 4 -4
c2 -0.666992 3 -1.33398 3 -2.00098c0 -1.33301 -0.666992 -2 -2 -2c-2 0 -3 1 -3 3h-2v-1v-2l4 -1c3.33301 0 5 1.33301 5 4zM275.998 521c0 3.33301 -1.33203 5 -3.99902 5c-3.33301 0 -5 -2 -5 -6s1.66699 -6 5 -6c1.33301 0 2.66602 0.666992 3.99902 2v1
c-0.666992 -0.666992 -1.66699 -1 -3 -1c-2.66699 0 -4 1.33301 -4 4h7v1zM290.999 515c-1.33301 0 -2.00098 1 -2.00098 3v4c0 2.66699 -1 4 -3 4c-1.33301 0 -2.66602 -0.666992 -3.99902 -2v1v1l-4 -2c1.33301 0 2 -0.666992 2 -2v-4c0 -2 -0.666992 -3 -2 -3v-1h3h3v1
c-1.33301 0 -2 1 -2 3v2c0 2.66699 1 4 3 4c1.33301 0 2 -1 2 -3v-3c0 -2 -0.333008 -3 -1 -3s-1 -0.333008 -1 -1h3h3v1zM321.998 521c0 3.33301 -1.66699 5 -5 5s-5 -2 -5 -6s2 -6 6 -6l4 2c0 0.666992 -0.333008 1 -1 1c-0.666992 -0.666992 -1.66699 -1 -3 -1
c-2 0 -3 1.33301 -3 4h7v1zM127.998 521h-5c0 2.66699 1 4 3 4c1.33301 0 2 -1.33301 2 -4zM137.998 525l2 -1v-4c0 -2.66699 -1 -4 -3 -4c-1.33301 0 -2 1.33301 -2 4c0 3.33301 1 5 3 5zM273.998 521h-5c0 2.66699 1 4 3 4c1.33301 0 2 -1.33301 2 -4zM304.998 525l2 -1
v-4c0 -2.66699 -1 -4 -3 -4s-3 1.33301 -3 4c0 3.33301 1.33301 5 4 5zM318.998 521h-4c0 2.66699 0.666992 4 2 4s2 -1.33301 2 -4zM194.998 520v-1c0 -2 -0.666992 -3 -2 -3s-2 0.333008 -2 1c0 2 1.33301 3 4 3zM236.998 520v-1c0 -2 -0.666992 -3 -2 -3
s-2 0.333008 -2 1c0 2 1.33301 3 4 3zM295.998 516v0.5c0 0.333008 -0.333008 0.5 -1 0.5l-2 -1c0 -1.33301 0.666992 -2 2 -2zM237.498 516c-0.333008 0 -0.5 -0.333008 -0.5 -1c0 0.666992 0.333008 1 1 1h-0.5z" />
    <glyph glyph-name="space" unicode=" " horiz-adv-x="200" 
 />
    <glyph glyph-name="exclam" unicode="!" horiz-adv-x="411" 
d="M258 245c-24.667 0 -44.668 0.666016 -60.001 1.99902s-29.333 5 -42 11c-13.333 147.333 -31.666 286.333 -54.999 417c25.333 2 53.833 7 85.5 15s59.5 17 83.5 27c20.667 -4.66699 31 -20.667 31 -48c0 -9.33301 -1 -20.666 -3 -33.999
c-14.667 -112 -28 -242 -40 -390zM281.999 22.499c-18.667 -20.333 -44 -30.501 -76 -30.501s-57.167 9 -75.5 27s-27.5 42.667 -27.5 74c0 30.667 10.167 54.834 30.5 72.501s46.5 26.5 78.5 26.5c28.667 0 52.167 -9.33301 70.5 -28s27.5 -40.667 27.5 -66
c0 -30 -9.33301 -55.167 -28 -75.5z" />
    <glyph glyph-name="quotedbl" unicode="&#x22;" horiz-adv-x="412" 
d="M191 650c-7.33301 -43.333 -16 -109.334 -26 -198.001c-1.33301 -17.333 -2.66602 -30.666 -3.99902 -39.999c-12.667 0 -26.5 1.16699 -41.5 3.5s-25.167 5.5 -30.5 9.5c-4.66699 108 -14.334 195.667 -29.001 263c39.333 4.66699 74 14.334 104 29.001
c8.66699 -2 15.667 -7.33301 21 -16s8 -17.334 8 -26.001c0 -10 -0.666992 -18.333 -2 -25zM350 648.999c-6 -34 -11.667 -85.335 -17 -154.002l-7 -84c-32.667 0 -57.667 3.66699 -75 11l-3 42c-4 58.667 -7.16699 102.834 -9.5 132.501s-6.5 60.167 -12.5 91.5
c37.333 5.33301 69 15 95 29c10 -2 17.667 -7.16699 23 -15.5s8 -18.5 8 -30.5c0 -5.33301 -0.666992 -12.666 -2 -21.999z" />
    <glyph glyph-name="numbersign" unicode="#" horiz-adv-x="624" 
d="M484 432l-28.9971 -159.001h115c0 -33.333 -5 -63 -15 -89h-94h-22l-35 -193c-17.333 0 -33.833 2.16699 -49.5 6.5s-27.167 9.83301 -34.5 16.5l31 170h-140l-35 -193c-14.667 0 -30.167 2.5 -46.5 7.5s-28.5 11.5 -36.5 19.5l30 165l-103 -3c0 41.333 5 72.333 15 93
h105l29 158c-30.667 0 -65.334 -0.666992 -104.001 -2c0 18.667 1.16699 34.834 3.5 48.501s6.5 28.5 12.5 44.5h104l36 195c17.333 0 34.166 -2.5 50.499 -7.5s27.166 -10.833 32.499 -17.5l-31 -170h140l36 195c16 0 32.667 -2.5 50 -7.5s28.333 -10.167 33 -15.5
l-31 -172h103c0 -36 -4.66699 -66 -14 -90h-85h-21zM256.003 431.999l-29 -159h141l29 159h-141z" />
    <glyph glyph-name="dollar" unicode="$" horiz-adv-x="546" 
d="M460 65c-36.667 -37.333 -88.666 -60.667 -155.999 -70l2 -78c-15.333 0 -32.333 1.5 -51 4.5s-32 6.83301 -40 11.5v58c-36 1.33301 -68.667 6.5 -98 15.5s-59 22.167 -89 39.5c8.66699 43.333 13 100 13 170c30.667 8 70.667 12 120 12
c2.66699 -41.333 7.16699 -72.833 13.5 -94.5s15.666 -37.167 27.999 -46.5s30.166 -14 53.499 -14c30.667 0 53.834 6.5 69.501 19.5s23.5 28.833 23.5 47.5c0 21.333 -9 38.833 -27 52.5s-46 29.834 -84 48.501c-40.667 19.333 -74 37.666 -100 54.999
s-48.5 41.333 -67.5 72s-28.5 68.667 -28.5 114c0 60 16.667 106.333 50 139s78.333 52.667 135 60v72c36.667 0 67 -5.33301 91 -16l-1 -53c30.667 -2 59.5 -6.33301 86.5 -13s47.833 -14.334 62.5 -23.001c0 -73.333 2.33301 -126 7 -158
c-12.667 -7.33301 -29.5 -12.666 -50.5 -15.999s-41.5 -5 -61.5 -5c-7.33301 50.667 -19.333 86 -36 106s-38.667 30 -66 30c-22 0 -39.833 -5 -53.5 -15s-20.5 -25 -20.5 -45c0 -17.333 5.5 -32.5 16.5 -45.5s24.833 -24.167 41.5 -33.5s40 -20.666 70 -33.999
c42 -18.667 76.5 -36.334 103.5 -53.001s50.167 -39.167 69.5 -67.5s29 -63.5 29 -105.5c0 -56.667 -18.333 -103.667 -55 -141z" />
    <glyph glyph-name="percent" unicode="%" horiz-adv-x="834" 
d="M155.5 2.5c-13 7 -23.166 16.167 -30.499 27.5l543 656c15.333 0 30.666 -2.5 45.999 -7.5s27.333 -12.167 36 -21.5l-549 -664c-17.333 -0.666992 -32.5 2.5 -45.5 9.5zM390.001 442c-12.667 -25.333 -31.334 -45.499 -56.001 -60.499s-54 -22.5 -88 -22.5
c-34.667 0 -64.167 7.16699 -88.5 21.5s-42.666 33.333 -54.999 57s-18.5 48.5 -18.5 74.5c0 29.333 6.5 56.666 19.5 81.999s32.5 45.5 58.5 60.5s57.333 22.5 94 22.5c32 0 59.5 -7.33301 82.5 -22s40.5 -33.667 52.5 -57s18 -47.333 18 -72
c0 -30.667 -6.33301 -58.667 -19 -84zM215.501 459.001c9 -16.667 20.833 -25 35.5 -25c10 0 19.333 7.16699 28 21.5s13 33.833 13 58.5c0 26.667 -4.5 48.334 -13.5 65.001s-20.167 25 -33.5 25c-12 0 -22.167 -7.66699 -30.5 -23s-12.5 -34.333 -12.5 -57
c0 -26.667 4.5 -48.334 13.5 -65.001zM759.001 74.501c-12.667 -25.667 -31.333 -46 -56 -61s-54 -22.5 -88 -22.5c-34.667 0 -64 7.33301 -88 22s-42.167 33.667 -54.5 57s-18.5 48.333 -18.5 75c0 30 6.5 57.5 19.5 82.5s32.5 45.167 58.5 60.5s57.333 23 94 23
c32 0 59.5 -7.33301 82.5 -22s40.333 -33.667 52 -57s17.5 -47.666 17.5 -72.999c0 -30.667 -6.33301 -58.834 -19 -84.501zM585.002 92.001c8.66699 -16.667 20.667 -25 36 -25c10 0 19.167 7 27.5 21s12.5 33.667 12.5 59c0 26 -4.33301 47.167 -13 63.5
s-20 24.5 -34 24.5c-12 0 -22 -7.5 -30 -22.5s-12 -33.833 -12 -56.5c0 -26 4.33301 -47.333 13 -64z" />
    <glyph glyph-name="ampersand" unicode="&#x26;" horiz-adv-x="804" 
d="M690 115c13.333 -6.66699 33.335 -10.667 60.002 -12c0 -14.667 -1.33301 -30.834 -4 -48.501s-6 -32.5 -10 -44.5c-26.667 0 -58.334 -1.83301 -95.001 -5.5s-70.334 -8.16699 -101.001 -13.5c-10.667 14.667 -26.667 35.334 -48 62.001c-26 -22 -53.833 -38 -83.5 -48
s-65.5 -15 -107.5 -15c-82 0 -143.833 17 -185.5 51s-62.5 82 -62.5 144c0 55.333 13.333 100.833 40 136.5s67 65.167 121 88.5c-18.667 30 -31.667 56.667 -39 80s-11 47 -11 71c0 104 82.667 156 248 156c40.667 0 76 -2.16699 106 -6.5s60 -11.833 90 -22.5
c-6.66699 -26 -10 -59.333 -10 -100c0 -12.667 0.666992 -33 2 -61c-34 -8 -72 -12 -114 -12c-3.33301 43.333 -11.5 75 -24.5 95s-33.833 30 -62.5 30c-14 0 -25.167 -5 -33.5 -15s-12.5 -23.667 -12.5 -41c0 -26 6.5 -52.833 19.5 -80.5s37.833 -65.167 74.5 -112.5
l105 -134c12 25.333 20.333 47.333 25 66c2.66699 12 4 20.333 4 25c0 13.333 -4.5 23.5 -13.5 30.5s-23.5 12.5 -43.5 16.5c-6.66699 20 -10 42 -10 66c21.333 -2 62 -3 122 -3c47.333 0 82 1 104 3c0 -26 -2.66699 -48 -8 -66c-23.333 -6 -39.5 -14 -48.5 -24
s-17.833 -27 -26.5 -51c-13.333 -36.667 -31 -78 -53 -124l33 -36c22 -23.333 39.667 -38.333 53 -45zM445.002 112c-21.333 26.667 -37.668 46.333 -49.001 59l-47.5 59l-61.5 77l-18 24c-8 -10 -13.667 -21.5 -17 -34.5s-5 -32.833 -5 -59.5
c0 -55.333 10.667 -96.833 32 -124.5s48 -41.5 80 -41.5c30.667 0 59.334 13.667 86.001 41z" />
    <glyph glyph-name="quotesingle" unicode="'" horiz-adv-x="253" 
d="M191 651c-8 -42.667 -16.333 -122.667 -25 -240c-29.333 0 -55 5 -77 15c-3.33301 92 -13 179 -29 261c41.333 4 75 14 101 30c21.333 -5.33301 32 -21.333 32 -48c0 -2.66699 -0.666992 -8.66699 -2 -18z" />
    <glyph glyph-name="parenleft" unicode="(" horiz-adv-x="353" 
d="M212 519.5c-18 -67 -27.001 -151.5 -27.001 -253.5c0 -108.667 11 -207.167 33 -295.5s51.333 -163.833 88 -226.5c-16.667 -10 -38.667 -15 -66 -15c-58 61.333 -106.667 137 -146 227s-59 184.667 -59 284c0 102.667 17.167 194 51.5 274s83.833 155.667 148.5 227
c24.667 0 46.334 -7.33301 65.001 -22c-40.667 -66 -70 -132.5 -88 -199.5z" />
    <glyph glyph-name="parenright" unicode=")" horiz-adv-x="353" 
d="M266 519.5c34.667 -77 51.999 -160.169 51.999 -249.502c0 -112.667 -19.5 -215.5 -58.5 -308.5s-87.833 -170.5 -146.5 -232.5c-26.667 0 -48.667 5 -66 15c44 74 75.167 148 93.5 222s27.5 166.667 27.5 278c0 104.667 -9.16699 193.834 -27.5 267.501
s-47.5 142.834 -87.5 207.501c18.667 14.667 40.334 22 65.001 22c64 -70.667 113.333 -144.5 148 -221.5z" />
    <glyph glyph-name="asterisk" unicode="*" horiz-adv-x="507" 
d="M429 578c12 -30.667 17.999 -63.333 17.999 -98c0 -16 -1 -32.667 -3 -50c-56 16 -107.333 27.667 -154 35c36 -41.333 71 -79.666 105 -114.999c-44.667 -36 -91 -56 -139 -60c-3.33301 62 -8.66602 113.333 -15.999 154c-30 -43.333 -57.667 -86.333 -83 -129
c-22 15.333 -40.167 31.5 -54.5 48.5s-25.5 36.5 -33.5 58.5c51.333 21.333 96.333 42.666 135 63.999c-34 12 -82 24.333 -144 37c15.333 50 38.666 89.333 69.999 118c33.333 -40.667 67.333 -77.667 102 -111c0 47.333 -3 98 -9 152c24.667 0 49.167 -2.5 73.5 -7.5
s45.833 -12.5 64.5 -22.5c-28.667 -42.667 -53.667 -85.667 -75 -129c50.667 16 98.334 34.333 143.001 55z" />
    <glyph glyph-name="plus" unicode="+" horiz-adv-x="578" 
d="M532 256c-1.33301 -12.667 -5.00098 -25.668 -11.001 -39.001c-53.333 0.666992 -116.333 1 -189 1v-202c-12.667 -8.66699 -43 -13 -91 -13c1.33301 44 2 115.667 2 215l-163 -1c-7.33301 -0.666992 -19.666 -1 -36.999 -1c0 21.333 0.666992 38 2 50s5 25.667 11 41
h187c0 70.667 -0.333008 132.334 -1 185.001c13.333 5.33301 26 8.83301 38 10.5s29.333 2.5 52 2.5v-198h202c0 -21.333 -0.666992 -38.333 -2 -51z" />
    <glyph glyph-name="comma" unicode="," horiz-adv-x="316" 
d="M226 -73c-20 -43.333 -47.333 -81.335 -82 -114.002c-16 0.666992 -31.167 3.66699 -45.5 9s-25.833 11.333 -34.5 18c44.667 50.667 67 92.334 67 125.001c0 12.667 -6.16699 23 -18.5 31s-29.833 13.667 -52.5 17c0 24 1 43.833 3 59.5s6.33301 34.167 13 55.5
c55.333 2 97.333 12.667 126 32c20 -6 34 -16.167 42 -30.5s12 -39.166 12 -74.499c0 -42 -10 -84.667 -30 -128z" />
    <glyph glyph-name="hyphen" unicode="-" horiz-adv-x="419" 
d="M346 229c-122.667 0 -218 -2.66699 -286 -8c0 38.667 5.66699 73.667 17 105h282c0 -38 -4.33301 -70.333 -13 -97z" />
    <glyph glyph-name="period" unicode="." horiz-adv-x="327" 
d="M239 22.5c-18.667 -20.333 -44 -30.501 -76 -30.501s-57.167 9 -75.5 27s-27.5 42.667 -27.5 74c0 30.667 10.167 54.834 30.5 72.501s46.5 26.5 78.5 26.5c28.667 0 52.167 -9.33301 70.5 -28s27.5 -40.667 27.5 -66c0 -30 -9.33301 -55.167 -28 -75.5z" />
    <glyph glyph-name="slash" unicode="/" horiz-adv-x="401" 
d="M29 8l265 709c29.333 0 57 -7.33301 83 -22l-261 -704c-39.333 0 -68.333 5.66699 -87 17z" />
    <glyph glyph-name="zero" unicode="0" horiz-adv-x="629" 
d="M562 113.5c-24.667 -39.667 -58.1699 -69.999 -100.503 -90.999s-90.166 -31.5 -143.499 -31.5c-55.333 0 -104.666 10.333 -147.999 31s-77.5 51 -102.5 91s-37.5 87.333 -37.5 142c0 54 13 100 39 138s60.833 66.333 104.5 85s91.834 28 144.501 28
c86 0 154.333 -22 205 -66s76 -105.667 76 -185c0 -54.667 -12.333 -101.834 -37 -141.501zM230.997 187.001c9.33301 -33.333 22.666 -60.833 39.999 -82.5s37.333 -32.5 60 -32.5c24.667 0 43.834 14.667 57.501 44s20.5 65.333 20.5 108c0 31.333 -4.5 63 -13.5 95
s-21.667 58.667 -38 80s-35.5 32 -57.5 32c-24 0 -43.833 -14.667 -59.5 -44s-23.5 -63.333 -23.5 -102c0 -32 4.66699 -64.667 14 -98z" />
    <glyph glyph-name="one" unicode="1" horiz-adv-x="414" 
d="M307 115c3.33301 -15.333 9.66699 -25.6689 19 -31.002s24.333 -8.33301 45 -9c5.33301 -18 8 -44 8 -78c-38.667 2 -96 3 -172 3c-78.667 0 -136 -1 -172 -3c0 32 2.66699 58 8 78c21.333 3.33301 36.5 7.83301 45.5 13.5s15.167 15.5 18.5 29.5s5 37 5 69v131
c0 30.667 -1.83301 53.334 -5.5 68.001s-10.167 24.5 -19.5 29.5s-24 8.16699 -44 9.5c-5.33301 21.333 -8 47.333 -8 78c32 -2 89.333 -3 172 -3s140 1 172 3c0 -30.667 -2.66699 -56.667 -8 -78c-20 -1.33301 -34.667 -4.5 -44 -9.5s-15.833 -14.667 -19.5 -29
s-5.5 -37.166 -5.5 -68.499v-129c0 -34 1.66699 -58.667 5 -74z" />
    <glyph glyph-name="two" unicode="2" horiz-adv-x="504" 
d="M479 41c-4.66699 -14 -12.333 -24.668 -23 -32.001s-23.667 -11 -39 -11c-53.333 1.33301 -115.666 2 -186.999 2c-66 0 -124.333 -0.666992 -175 -2c-16.667 25.333 -25 58.333 -25 99c23.333 23.333 69.333 63.333 138 120c29.333 24.667 51.333 45.167 66 61.5
s24.834 31 30.501 44s8.5 27.5 8.5 43.5c0 18.667 -5.16699 33.667 -15.5 45s-25.5 17 -45.5 17c-20.667 0 -35.834 -8.66699 -45.501 -26s-16.834 -49 -21.501 -95c-34 0 -66.667 5 -98 15c2 16 3 36.333 3 61c0 30 -2 55 -6 75c31.333 16.667 64.5 28.834 99.5 36.501
s78.5 11.5 130.5 11.5c64.667 0 112.667 -10.333 144 -31s47 -49.667 47 -87c0 -22 -4.66699 -41.833 -14 -59.5s-24.333 -35.167 -45 -52.5s-50.334 -38 -89.001 -62l-83 -54h57c26 0 44.5 1.16699 55.5 3.5s18.833 6.83301 23.5 13.5s8.33398 18 11.001 34
c42 0 71 -3 87 -9c0 -73.333 3.66699 -127 11 -161z" />
    <glyph glyph-name="three" unicode="3" horiz-adv-x="508" 
d="M464 422l-161.998 -213.995c117.333 -6 176 -60.333 176 -163c0 -68.667 -24.333 -121.834 -73 -159.501s-118 -56.5 -208 -56.5c-78 0 -135.333 16 -172 48c3.33301 27.333 15 50.666 35 69.999c16 -12 31.833 -21 47.5 -27s34.167 -9 55.5 -9
c39.333 0 69.666 9.83301 90.999 29.5s32 46.5 32 80.5c0 26 -6.33301 46.167 -19 60.5s-32 21.5 -58 21.5c-10 0 -20.333 -1.33301 -31 -4c-8.66699 8.66699 -15.167 19.834 -19.5 33.501s-5.83301 27.167 -4.5 40.5c58 69.333 102 125 132 167h-73
c-20 0 -35.333 -1.83301 -46 -5.5s-19.667 -10.834 -27 -21.501s-15 -27.334 -23 -50.001c-40 0 -68.667 6.66699 -86 20c5.33301 33.333 8.66602 65.166 9.99902 95.499s2 72.166 2 125.499c60 -2.66699 128.667 -4 206 -4c78 0 142.333 1.33301 193 4
c16.667 -26 24 -53.333 22 -82z" />
    <glyph glyph-name="four" unicode="4" horiz-adv-x="615" 
d="M580.5 68.5c-3 -16.333 -4.50098 -39.166 -4.50098 -68.499h-86v-142c-32 0 -60.667 -2.33301 -86 -7s-51.333 -12 -78 -22c-9.33301 7.33301 -16 15.666 -20 24.999s-6 22.333 -6 39v107h-29c-82 0 -155.667 -2.33301 -221 -7c-23.333 45.333 -35 90.333 -35 135
l334 378c8 0.666992 20 1 36 1c38 0 73 -2.33301 105 -7v-339h51c14.667 0 26.334 -2.16699 35.001 -6.5s16.667 -12.5 24 -24.5c-10 -24.667 -16.5 -45.167 -19.5 -61.5zM299.999 346l-143 -186h143v186z" />
    <glyph glyph-name="five" unicode="5" horiz-adv-x="481" 
d="M308 500c15.333 0 27.167 4.83301 35.5 14.5s12.5 23.167 12.5 40.5c16 5.33301 44.667 8 86 8c-4.66699 -44 -7 -107.333 -7 -190c-7.33301 -20 -24.333 -30 -51 -30c-124 0 -203.667 -1.33301 -239 -4l-11 -53c81.333 -12 145.5 -28.5 192.5 -49.5s80.333 -47 100 -78
s29.5 -68.833 29.5 -113.5c0 -48 -13.667 -88.333 -41 -121s-63 -56.667 -107 -72s-91.333 -23 -142 -23c-64 0 -109.333 7.66699 -136 23c0 30 6.66699 53.333 20 70c16 -8 43.667 -12 83 -12s71 9.33301 95 28s36 43.667 36 75c0 30 -13.667 54.833 -41 74.5
s-78 36.5 -152 50.5c-17.333 19.333 -28 42 -32 68l62 299c56.667 -3.33301 125.667 -5 207 -5z" />
    <glyph glyph-name="six" unicode="6" horiz-adv-x="588" 
d="M503.5 345.5c36.333 -33 54.5 -77.501 54.5 -133.501c0 -54 -13 -97.5 -39 -130.5s-58.667 -56.333 -98 -70s-80.666 -20.5 -123.999 -20.5c-84.667 0 -149.5 19.5 -194.5 58.5s-67.5 102.5 -67.5 190.5c0 92 22.333 167.333 67 226s98.667 101.334 162 128.001
s125.666 41.334 186.999 44.001c12.667 -14 18 -38.333 16 -73c-64.667 -13.333 -115 -35.833 -151 -67.5s-61 -72.834 -75 -123.501c36 14 73 21 111 21c64.667 0 115.167 -16.5 151.5 -49.5zM350 103.999c11.333 19.333 17 46.332 17 80.999
c0 38.667 -8.66699 69.834 -26 93.501s-39 35.5 -65 35.5c-15.333 0 -31.333 -3 -48 -9c-2 -20.667 -3 -42 -3 -64c0 -52.667 7 -93.5 21 -122.5s32.667 -43.5 56 -43.5c20.667 0 36.667 9.66699 48 29z" />
    <glyph glyph-name="seven" unicode="7" horiz-adv-x="472" 
d="M446 466c4 -15.333 6 -30.335 6 -45.002c-27.333 -39.333 -52.5 -78.666 -75.5 -117.999s-37.5 -69.333 -43.5 -90c-9.33301 -28.667 -16.166 -53.5 -20.499 -74.5s-8 -50.833 -11 -89.5s-4.5 -90.667 -4.5 -156c-26.667 -6 -54 -15.167 -82 -27.5
s-52.667 -26.166 -74 -41.499c-22.667 4 -34 30.333 -34 79c0 48 8.66699 95 26 141s39 89.5 65 130.5s63.667 96.167 113 165.5h-78c-24.667 0 -43.834 -2 -57.501 -6s-24.667 -11.167 -33 -21.5s-15.5 -25.833 -21.5 -46.5c-40.667 -2 -74.334 3.66699 -101.001 17
c11.333 47.333 17 120.333 17 219c30.667 -1.33301 93.334 -2 188.001 -2c77.333 0 145.333 0.666992 204 2c7.33301 -8.66699 13 -20.667 17 -36z" />
    <glyph glyph-name="eight" unicode="8" horiz-adv-x="589" 
d="M516.5 284c18.333 -30 27.5 -65 27.5 -105c0 -64 -20.333 -111.333 -61 -142s-102.334 -46 -185.001 -46c-82 0 -144.667 14.5 -188 43.5s-65 71.167 -65 126.5c0 68.667 31.333 121 94 157c-58.667 39.333 -88 88 -88 146c0 52 21.5 93.833 64.5 125.5
s103.5 47.5 181.5 47.5c68.667 0 123.667 -12 165 -36s62 -58.667 62 -104c0 -28.667 -8.16699 -54.5 -24.5 -77.5s-39.166 -40.5 -68.499 -52.5c38.667 -25.333 67.167 -53 85.5 -83zM252 554.5c-8 -9.66699 -12.001 -22.833 -12.001 -39.5c0 -18.667 6.33301 -35 19 -49
s36.334 -29.333 71.001 -46c9.33301 20.667 14 44.334 14 71.001c0 23.333 -5.33301 42.166 -16 56.499s-25 21.5 -43 21.5c-14 0 -25 -4.83301 -33 -14.5zM341.999 85.501c8 11 12 25.833 12 44.5c0 52 -36.333 96.667 -109 134c-6 -16 -9 -38.667 -9 -68
c0 -39.333 6.5 -70.333 19.5 -93s30.167 -34 51.5 -34c15.333 0 27 5.5 35 16.5z" />
    <glyph glyph-name="nine" unicode="9" horiz-adv-x="583" 
d="M485.5 447.5c45 -39 67.5029 -102.832 67.5029 -191.499c0 -92.667 -24.333 -170.5 -73 -233.5s-107.834 -110 -177.501 -141s-135.834 -47.833 -198.501 -50.5c-6 6.66699 -10.5 16.667 -13.5 30s-3.83301 27.666 -2.5 42.999
c135.333 28.667 220.666 97.667 255.999 207c-34 -12.667 -70 -19 -108 -19c-42.667 0 -79.5 8.16699 -110.5 24.5s-54.667 39 -71 68s-24.5 61.833 -24.5 98.5c0 80.667 26 138 78 172s113 51 183 51c84.667 0 149.5 -19.5 194.5 -58.5zM360.003 182.001
c2 18 3 36.667 3 56c0 60.667 -7 106.5 -21 137.5s-32.667 46.5 -56 46.5c-20.667 0 -36.667 -9.66699 -48 -29s-17 -46.333 -17 -81c0 -39.333 8.83301 -72.333 26.5 -99s39.167 -40 64.5 -40c14.667 0 30.667 3 48 9z" />
    <glyph glyph-name="colon" unicode=":" horiz-adv-x="327" 
d="M239 22.5c-18.667 -20.333 -44 -30.501 -76 -30.501s-57.167 9 -75.5 27s-27.5 42.667 -27.5 74c0 30.667 10.167 54.834 30.5 72.501s46.5 26.5 78.5 26.5c28.667 0 52.167 -9.33301 70.5 -28s27.5 -40.667 27.5 -66c0 -30 -9.33301 -55.167 -28 -75.5zM239 297.499
c-18.667 -20.333 -44 -30.501 -76 -30.501s-57.167 9 -75.5 27s-27.5 42.667 -27.5 74c0 30.667 10.167 54.834 30.5 72.501s46.5 26.5 78.5 26.5c28.667 0 52.167 -9.33301 70.5 -28s27.5 -40.667 27.5 -66c0 -30 -9.33301 -55.167 -28 -75.5z" />
    <glyph glyph-name="semicolon" unicode=";" horiz-adv-x="327" 
d="M239 297.5c-18.667 -20.333 -44 -30.501 -76 -30.501s-57.167 9 -75.5 27s-27.5 42.667 -27.5 74c0 30.667 10.167 54.834 30.5 72.501s46.5 26.5 78.5 26.5c28.667 0 52.167 -9.33301 70.5 -28s27.5 -40.667 27.5 -66c0 -30 -9.33301 -55.167 -28 -75.5zM233 -73.001
c-20 -43.333 -47.333 -81.335 -82 -114.002c-16 0.666992 -31.167 3.66699 -45.5 9s-25.833 11.333 -34.5 18c44.667 50.667 67 92.334 67 125.001c0 12.667 -6.16699 23 -18.5 31s-29.833 13.667 -52.5 17c0 24 1 43.833 3 59.5s6.33301 34.167 13 55.5
c55.333 2 97.333 12.667 126 32c20 -6 34 -16.167 42 -30.5s12 -39.166 12 -74.499c0 -42 -10 -84.667 -30 -128z" />
    <glyph glyph-name="less" unicode="&#x3c;" horiz-adv-x="467" 
d="M420 34c0 -32.667 -5.33301 -56.334 -16 -71.001c-142.667 109.333 -263.667 196.333 -363 261l-1 14c0 24.667 7.33301 47.334 22 68.001l300 241c33.333 -6 62.333 -21.667 87 -47l-301 -238l269 -191c2 -10.667 3 -23 3 -37z" />
    <glyph glyph-name="equal" unicode="=" horiz-adv-x="540" 
d="M493.5 342.5c-1.66699 -13 -5.5 -26.167 -11.5 -39.5c-53.333 0.666992 -122 1 -206 1l-171 -1c-12.667 -0.666992 -33 -1 -61 -1c0 35.333 4.66699 65 14 89h438c0 -19.333 -0.833008 -35.5 -2.5 -48.5zM481 118c-53.333 0.666992 -122.333 0.999023 -207 0.999023
l-172 -1c-12.667 -0.666992 -33 -1 -61 -1c0 38 4.66699 67.667 14 89h440c0 -33.333 -4.66699 -62.666 -14 -87.999z" />
    <glyph glyph-name="greater" unicode="&#x3e;" horiz-adv-x="521" 
d="M139 550l308 -245c9.33301 -19.333 14 -42 14 -68l-1 -18c-112.667 -76 -231.667 -161.333 -357 -256c-17.333 21.333 -26 45.333 -26 72c0 8.66699 1 16.334 3 23.001l286 203l-316 252c21.333 21.333 51 33.666 89 36.999z" />
    <glyph glyph-name="question" unicode="?" horiz-adv-x="537" 
d="M455.5 685c31 -21.333 46.499 -51.335 46.499 -90.002c0 -33.333 -7.33301 -60.333 -22 -81s-36 -42.667 -64 -66c-26 -22 -45.333 -41.5 -58 -58.5s-19 -38.5 -19 -64.5c0 -25.333 5 -53 15 -83c-10.667 -6 -24.5 -10.667 -41.5 -14s-33.167 -5 -48.5 -5
c-16.667 10 -30.834 27.333 -42.501 52s-17.5 50 -17.5 76c0 29.333 5 52.833 15 70.5s24.667 36.5 44 56.5c17.333 18.667 29.833 34.334 37.5 47.001s11.5 29 11.5 49c0 22.667 -4.16699 39.334 -12.5 50.001s-19.166 16 -32.499 16c-14 0 -25.667 -9.5 -35 -28.5
s-16.666 -54.167 -21.999 -105.5c-40 0 -74 7.66699 -102 23c2 25.333 3 51.333 3 78c0 23.333 -1 45 -3 65c64 30 133 45 207 45c62.667 0 109.5 -10.667 140.5 -32zM378.999 22.498c-18.667 -20.333 -44 -30.501 -76 -30.501s-57.167 9 -75.5 27s-27.5 42.667 -27.5 74
c0 30.667 10.167 54.834 30.5 72.501s46.5 26.5 78.5 26.5c28.667 0 52.167 -9.33301 70.5 -28s27.5 -40.667 27.5 -66c0 -30 -9.33301 -55.167 -28 -75.5z" />
    <glyph glyph-name="at" unicode="@" horiz-adv-x="1001" 
d="M861 -68c-31.333 -42 -77.832 -74.8291 -139.499 -98.4961s-129.167 -35.5 -202.5 -35.5c-98.667 0 -180.834 18.167 -246.501 54.5s-114.167 86.666 -145.5 150.999s-47 139.166 -47 224.499c0 80.667 18.167 153.834 54.5 219.501s89.333 117.5 159 155.5
s151.834 57 246.501 57c84 0 154.5 -14 211.5 -42s99.5 -66 127.5 -114s42 -103 42 -165c0 -70 -10.667 -131.333 -32 -184s-51.833 -93.167 -91.5 -121.5s-86.5 -42.5 -140.5 -42.5c-27.333 0 -50 8.83301 -68 26.5s-27 41.5 -27 71.5v4
c-38.667 -68 -93.334 -102 -164.001 -102c-98.667 0 -148 71.333 -148 214c0 50 9.83301 95 29.5 135s45.5 71.167 77.5 93.5s66.333 33.5 103 33.5c40 0 79 -4 117 -12c68 0 115 4 141 12c12 -6.66699 19.833 -15.834 23.5 -27.501s5.5 -34.5 5.5 -68.5v-143
c0 -36 1 -62.833 3 -80.5s5 -29.334 9 -35.001s9.66699 -8.5 17 -8.5c8.66699 0 17.5 7 26.5 21s16.5 36.167 22.5 66.5s9 69.166 9 116.499c0 82 -25 148.833 -75 200.5s-128.333 77.5 -235 77.5c-75.333 0 -139.166 -15.5 -191.499 -46.5s-91.666 -73 -117.999 -126
s-39.5 -112.833 -39.5 -179.5c0 -66 12.5 -126 37.5 -180s64.167 -97.167 117.5 -129.5s120.666 -48.5 201.999 -48.5c56.667 0 109 8.66699 157 26s89 43.333 123 78c19.333 -7.33301 35.666 -23.333 48.999 -48zM564.001 286.004l1.99902 83c-18.667 14 -38.667 21 -60 21
c-17.333 0 -30.666 -3.5 -39.999 -10.5s-16 -21 -20 -42s-6 -52.5 -6 -94.5c0 -96 14.667 -144 44 -144c39.333 0 66 62.333 80 187z" />
    <glyph glyph-name="A" unicode="A" horiz-adv-x="717" 
d="M707 -3c-26.667 2 -78.999 3.00098 -156.999 3.00098c-92 0 -150.667 -1 -176 -3c0 30.667 2.66699 56.667 8 78c28 6.66699 42 19 42 37c0 9.33301 -3.66699 22.333 -11 39l-7 15c-87.333 0 -163 -3.33301 -227 -10l-2 -4c-3.33301 -8.66699 -5 -17.334 -5 -26.001
c0 -12.667 3.5 -23.667 10.5 -33s17.833 -15.333 32.5 -18c5.33301 -22.667 8 -48.667 8 -78c-22.667 2 -61.667 3 -117 3c-44 0 -76 -1 -96 -3c0 31.333 3.33301 57.333 10 78c16 3.33301 29.167 11.5 39.5 24.5s23.833 38.5 40.5 76.5l212 500c17.333 4 42.666 6 75.999 6
l222 -487c16 -34.667 28.667 -60.167 38 -76.5s17.5 -27.333 24.5 -33s15.833 -9.16699 26.5 -10.5c5.33301 -18 8 -44 8 -78zM340.001 316.001c-22 49.333 -39 95.333 -51 138c-12 -43.333 -28 -89.333 -48 -138l-33 -85h170z" />
    <glyph glyph-name="B" unicode="B" horiz-adv-x="713" 
d="M637 319c30.667 -30 45.998 -71.6689 45.998 -125.002c0 -129.333 -105.333 -194 -316 -194c-121.333 0 -233.666 -1 -336.999 -3c0 32 2.66699 58 8 78c18.667 1.33301 32.5 5 41.5 11s15.333 16.5 19 31.5s5.5 38.167 5.5 69.5v304c0 30.667 -1.66699 53.167 -5 67.5
s-9.5 24.333 -18.5 30s-23.5 9.83398 -43.5 12.501c-4.66699 18.667 -7 44.667 -7 78c24.667 -2 60.667 -3 108 -3c44.667 0 81.334 0.333008 110.001 1l119 1c70 0 125.5 -5.83301 166.5 -17.5s70.167 -28.667 87.5 -51s26 -51.166 26 -86.499
c0 -39.333 -13.833 -72.833 -41.5 -100.5s-66.834 -45.167 -117.501 -52.5c68.667 -4 118.334 -21 149.001 -51zM420.498 572.498c-17.667 19 -40.833 28.5 -69.5 28.5c-17.333 0 -33 -3 -47 -9v-203h36c33.333 0 59.5 9.16699 78.5 27.5s28.5 44.833 28.5 79.5
c0 32 -8.83301 57.5 -26.5 76.5zM436.999 102.998c17.333 19.333 26.001 45.999 26.001 79.999c0 44.667 -10.833 76.334 -32.5 95.001s-55.5 28 -101.5 28h-25v-128c0 -40.667 6 -68.167 18 -82.5s29 -21.5 51 -21.5c25.333 0 46.666 9.66699 63.999 29z" />
    <glyph glyph-name="C" unicode="C" horiz-adv-x="634" 
d="M588 478c-8 -4.66699 -22 -8.16895 -42 -10.502s-39 -3.5 -57 -3.5c-0.666992 96 -36 144 -106 144c-50 0 -86.333 -22.667 -109 -68s-34 -103 -34 -173c0 -85.333 16.333 -153.666 49 -204.999s82.334 -77 149.001 -77c48.667 0 98 14 148 42
c14 -12 23.333 -30.333 28 -55c-26.667 -23.333 -60 -42.666 -100 -57.999s-85 -23 -135 -23c-68 0 -128 14.667 -180 44s-92.333 70.5 -121 123.5s-43 113.833 -43 182.5c0 72.667 15.833 135 47.5 187s73.667 91.167 126 117.5s109.166 39.5 170.499 39.5
c74 0 147.333 -17.333 220 -52c-7.33301 -42 -11 -93.667 -11 -155z" />
    <glyph glyph-name="D" unicode="D" horiz-adv-x="739" 
d="M532 652c52 -17.333 93.667 -49.667 125 -97s47 -114 47 -200c0 -98 -21.5 -173.333 -64.5 -226s-91.667 -87.334 -146 -104.001s-105.833 -25 -154.5 -25c-114 0 -217 -1 -309 -3c0 32 2.66699 58 8 78c18.667 1.33301 32.5 5 41.5 11s15.333 16.5 19 31.5
s5.5 38.167 5.5 69.5v304c0 30.667 -1.66699 53.167 -5 67.5s-9.5 24.333 -18.5 30s-23.5 9.83398 -43.5 12.501c-4.66699 18.667 -7 44.667 -7 78c42.667 -1.33301 87.667 -2 135 -2l74 -1c37.333 1.33301 72.333 2 105 2c73.333 0 136 -8.66699 188 -26zM462.5 127.999
c26.333 35.333 39.501 105.001 39.501 209.001c0 177.333 -52.667 266 -158 266c-14.667 0 -28 -2.66699 -40 -8v-403c0 -31.333 2.33301 -55.333 7 -72s12.5 -28.334 23.5 -35.001s26.833 -10 47.5 -10c27.333 0 54.166 17.667 80.499 53z" />
    <glyph glyph-name="E" unicode="E" horiz-adv-x="646" 
d="M590 198.5c18.667 -6.33301 32.3301 -13.499 40.9971 -21.499c-15.333 -46 -25.666 -105.667 -30.999 -179c-78.667 1.33301 -165.667 2 -261 2c-114 0 -217 -1 -309 -3c0 32 2.66699 58 8 78c18.667 1.33301 32.5 5 41.5 11s15.333 16.5 19 31.5s5.5 38.167 5.5 69.5
v304c0 30.667 -1.66699 53.167 -5 67.5s-9.5 24.333 -18.5 30s-23.5 9.83398 -43.5 12.501c-4.66699 18.667 -7 44.667 -7 78c62 -2 152.333 -3 271 -3c124 0 214 1 270 3c0.666992 -28.667 2.83398 -60 6.50098 -94s8.5 -62 14.5 -84c-31.333 -12 -65 -18 -101 -18
c-7.33301 40 -20.666 69.667 -39.999 89s-52 29 -98 29h-49v-227h1c31.333 0 52.5 5.16699 63.5 15.5s16.833 28.833 17.5 55.5c20.667 8 50 12 88 12c-2.66699 -42.667 -4 -81.667 -4 -117c0 -40.667 1.33301 -80.334 4 -119.001c-38 0 -66.667 3.33301 -86 10
c-2.66699 27.333 -9.66699 45.5 -21 54.5s-32 13.5 -62 13.5h-1v-107c0 -31.333 2.33301 -55.333 7 -72s12.5 -28.334 23.5 -35.001s26.833 -10 47.5 -10h17c34 0 60.833 10.5 80.5 31.5s36.167 55.833 49.5 104.5c22 -2 42.333 -6.16699 61 -12.5z" />
    <glyph glyph-name="F" unicode="F" horiz-adv-x="617" 
d="M504 422c-2.66699 -42.667 -4.00195 -81.666 -4.00195 -116.999c0 -40.667 1.33301 -80.334 4 -119.001c-38 0 -66.667 3.33301 -86 10c-2.66699 27.333 -9.66699 45.5 -21 54.5s-32 13.5 -62 13.5h-31v-67c0 -43.333 7.66699 -73.833 23 -91.5s44 -27.834 86 -30.501
c6 -16.667 9 -42.667 9 -78c-38 2 -101.333 3 -190 3s-156 -1 -202 -3c0 34 2.33301 60 7 78c19.333 1.33301 33.5 5 42.5 11s15.333 16.5 19 31.5s5.5 38.167 5.5 69.5v304c0 31.333 -1.5 54 -4.5 68s-8.83301 23.833 -17.5 29.5s-23 9.83398 -43 12.501c-6 24 -9 50 -9 78
c62 -2 152.333 -3 271 -3c130.667 0 224 1 280 3c0.666992 -28.667 2.83398 -60 6.50098 -94s8.5 -62 14.5 -84c-31.333 -12 -65 -18 -101 -18c-7.33301 40 -20.666 69.667 -39.999 89s-52 29 -98 29h-59v-262h31c31.333 0 52.5 5.16699 63.5 15.5s16.833 28.833 17.5 55.5
c20.667 8 50 12 88 12z" />
    <glyph glyph-name="G" unicode="G" horiz-adv-x="689" 
d="M455.5 226.5c-3.66699 10.333 -10.332 17.4951 -19.999 21.4951s-24.5 6.66699 -44.5 8c-4 21.333 -6 47 -6 77c26 -2 71.667 -3 137 -3c66.667 0 114 0.666992 142 2c0 -31.333 -2 -56.666 -6 -75.999c-16.667 -1.33301 -27 -5.66602 -31 -12.999s-6 -22.666 -6 -45.999
v-24c0 -25.333 1.16699 -44.666 3.5 -57.999s6.83301 -28.666 13.5 -45.999c-32 -23.333 -70.167 -42.166 -114.5 -56.499s-90.833 -21.5 -139.5 -21.5c-70.667 0 -132.334 14.833 -185.001 44.5s-93.167 71 -121.5 124s-42.5 114.167 -42.5 183.5
c0 73.333 16 135.666 48 186.999s74.667 90 128 116s112.333 39 177 39c40 0 80.5 -5 121.5 -15s77.5 -22.333 109.5 -37c-7.33301 -42 -11 -93.667 -11 -155c-12.667 -6 -26.834 -9.83301 -42.501 -11.5s-34.5 -2.5 -56.5 -2.5c-2.66699 50.667 -14.5 87.167 -35.5 109.5
s-51.5 33.5 -91.5 33.5c-49.333 0 -85.666 -23 -108.999 -69s-35 -103 -35 -171c0 -57.333 6.5 -108.5 19.5 -153.5s31.5 -80 55.5 -105s52 -37.5 84 -37.5c14.667 0 25.667 1.33301 33 4c10.667 4 18.5 11 23.5 21s7.5 27 7.5 51v34c0 20 -1.83301 35.167 -5.5 45.5z" />
    <glyph glyph-name="H" unicode="H" horiz-adv-x="802" 
d="M703.5 117.5c3.66699 -15 9.99805 -25.5039 18.998 -31.5039s22.833 -9.66699 41.5 -11c5.33301 -19.333 8 -45.333 8 -78c-30 2 -83 3 -159 3c-78.667 0 -141.667 -1 -189 -3c0 26.667 3.33301 52.667 10 78c18.667 1.33301 32.334 5 41.001 11s14.667 16.333 18 31
s5 38 5 70v127c-75.333 0 -140 -1.33301 -194 -4v-123c0 -31.333 1.83301 -54.5 5.5 -69.5s10 -25.5 19 -31.5s22.833 -9.66699 41.5 -11c5.33301 -19.333 8 -45.333 8 -78c-30 2 -83 3 -159 3c-78.667 0 -141.667 -1 -189 -3c0 26.667 3.33301 52.667 10 78
c18.667 1.33301 32.334 5 41.001 11s14.667 16.333 18 31s5 38 5 70v304c0 31.333 -1.5 54 -4.5 68s-8.83301 23.833 -17.5 29.5s-23 9.83398 -43 12.501c-6 24 -9 50 -9 78c33.333 -2 93 -3 179 -3c72.667 0 129 1 169 3c0 -34.667 -3 -60.667 -9 -78
c-19.333 -2 -33.333 -5.83301 -42 -11.5s-14.667 -15.667 -18 -30s-5 -37.166 -5 -68.499v-104h194v104c0 31.333 -1.5 54 -4.5 68s-8.83301 23.833 -17.5 29.5s-23 9.83398 -43 12.501c-6 24 -9 50 -9 78c33.333 -2 93 -3 179 -3c72.667 0 129 1 169 3
c0 -34.667 -3 -60.667 -9 -78c-19.333 -2 -33.333 -5.83301 -42 -11.5s-14.667 -15.667 -18 -30s-5 -37.166 -5 -68.499v-304c0 -31.333 1.83301 -54.5 5.5 -69.5z" />
    <glyph glyph-name="I" unicode="I" horiz-adv-x="408" 
d="M99.5 559c-3 14 -8.83398 23.8311 -17.501 29.498s-23 9.83398 -43 12.501c-6 24 -9 50 -9 78c33.333 -2 93 -3 179 -3c72.667 0 129 1 169 3c0 -34.667 -3 -60.667 -9 -78c-19.333 -2 -33.333 -5.83301 -42 -11.5s-14.667 -15.667 -18 -30s-5 -37.166 -5 -68.499v-304
c0 -31.333 1.83301 -54.5 5.5 -69.5s10 -25.5 19 -31.5s22.833 -9.66699 41.5 -11c5.33301 -19.333 8 -45.333 8 -78c-30 2 -83 3 -159 3c-78.667 0 -141.667 -1 -189 -3c0 26.667 3.33301 52.667 10 78c18.667 1.33301 32.334 5 41.001 11s14.667 16.333 18 31s5 38 5 70
v304c0 31.333 -1.5 54 -4.5 68z" />
    <glyph glyph-name="J" unicode="J" horiz-adv-x="393" 
d="M268.5 -34.5c-13.667 -45.667 -39.834 -86.1719 -78.501 -121.505s-94.667 -66.333 -168 -93c-21.333 16 -33.666 40.667 -36.999 74c26 17.333 46.333 35.333 61 54s25.5 42.334 32.5 71.001s10.5 66 10.5 112v426c0 32.667 -1.66699 56.334 -5 71.001
s-9.33301 24.834 -18 30.501s-22.667 9.5 -42 11.5c-6 20 -9 46 -9 78c28 -2 86 -3 174 -3c86 0 144 1 174 3c0 -33.333 -3 -59.333 -9 -78c-20 -1.33301 -34.5 -5.66602 -43.5 -12.999s-14.833 -18.166 -17.5 -32.499s-4 -36.833 -4 -67.5v-353
c0 -67.333 -6.83301 -123.833 -20.5 -169.5z" />
    <glyph glyph-name="K" unicode="K" horiz-adv-x="767" 
d="M688 102c20 -14.667 42.999 -23.6689 68.999 -27.002c0 -34 -4 -59 -12 -75c-38 0 -84.167 -0.666992 -138.5 -2s-92.5 -3.66602 -114.5 -6.99902c-30 62 -59.667 117.833 -89 167.5s-62.333 96.5 -99 140.5v-112c0 -31.333 1.83301 -54.5 5.5 -69.5s10 -25.5 19 -31.5
s22.833 -9.66699 41.5 -11c5.33301 -19.333 8 -45.333 8 -78c-30 2 -83 3 -159 3c-78.667 0 -141.667 -1 -189 -3c0 26.667 3.33301 52.667 10 78c18.667 1.33301 32.334 5 41.001 11s14.667 16.333 18 31s5 38 5 70v304c0 31.333 -1.5 54 -4.5 68
s-8.83301 23.833 -17.5 29.5s-23 9.83398 -43 12.501c-6 24 -9 50 -9 78c33.333 -2 93 -3 179 -3c72.667 0 129 1 169 3c0 -34.667 -3 -60.667 -9 -78c-19.333 -2 -33.333 -5.83301 -42 -11.5s-14.667 -15.667 -18 -30s-5 -37.166 -5 -68.499v-116l135 134
c31.333 31.333 47 55.333 47 72c0 12 -8.66699 18.667 -26 20c-6 18.667 -9 44.667 -9 78c25.333 -2 63 -3 113 -3c78 0 129 1 153 3c0 -12.667 -1 -26.667 -3 -42s-4.66699 -27.333 -8 -36c-48 -2.66699 -95 -27.667 -141 -75l-107 -111
c59.333 -73.333 115.333 -153 168 -239c21.333 -34.667 42 -59.334 62 -74.001z" />
    <glyph glyph-name="L" unicode="L" horiz-adv-x="641" 
d="M479.5 106.5c19.667 21 36.165 55.832 49.498 104.499c22 -2 42.333 -6.16699 61 -12.5s32.334 -13.5 41.001 -21.5c-15.333 -46 -25.666 -105.667 -30.999 -179c-78.667 1.33301 -165.667 2 -261 2c-114 0 -217 -1 -309 -3c0 32 2.66699 58 8 78
c18.667 1.33301 32.5 5 41.5 11s15.333 16.5 19 31.5s5.5 38.167 5.5 69.5v304c0 30.667 -1.66699 53.167 -5 67.5s-9.5 24.333 -18.5 30s-23.5 9.83398 -43.5 12.501c-4.66699 18.667 -7 44.667 -7 78c63.333 -2 121.333 -3 174 -3c76 0 134 1 174 3c0 -38 -3 -64 -9 -78
c-19.333 -2 -33.333 -5.83301 -42 -11.5s-14.667 -15.667 -18 -30s-5 -37.166 -5 -68.499v-299c0 -31.333 2.33301 -55.333 7 -72s12.5 -28.334 23.5 -35.001s26.833 -10 47.5 -10h17c34 0 60.833 10.5 80.5 31.5z" />
    <glyph glyph-name="M" unicode="M" horiz-adv-x="998" 
d="M988 -3c-26 2 -91 2.99902 -195 2.99902c-54.667 0 -106 -1 -154 -3c0 23.333 3 49.333 9 78c24 2.66699 40.167 8 48.5 16s12.5 23.667 12.5 47c0 18 -1.33301 38.667 -4 62l-29 275l-187 -476c-15.333 -5.33301 -40.333 -8 -75 -8l-211 481l-24 -226
c-3.33301 -33.333 -5 -58.666 -5 -75.999c0 -36 5 -60.5 15 -73.5s26.333 -20.167 49 -21.5c5.33301 -20.667 8 -46.667 8 -78c-20 2 -56.667 3 -110 3c-44 0 -86 -1 -126 -3c0 31.333 2.66699 57.333 8 78c18 1.33301 32.333 7 43 17s19.5 26.833 26.5 50.5
s12.5 56.834 16.5 99.501l22 244c2 17.333 3 32.333 3 45c0 28 -4.66699 46.667 -14 56s-26.333 14 -51 14c-5.33301 18 -8 44 -8 78c30 -2 76.667 -3 140 -3c70.667 0 116 1 136 3l181 -432l156 432c36 -2 84 -3 144 -3s105 1 135 3c0 -34 -2.66699 -60 -8 -78
c-24.667 0 -42 -5.33301 -52 -16s-15 -29.334 -15 -56.001c0 -12 1 -26.667 3 -44l28 -274c4 -40.667 8.5 -69.834 13.5 -87.501s12 -29.5 21 -35.5s23.167 -10 42.5 -12c4.66699 -21.333 7 -47.666 7 -78.999z" />
    <glyph glyph-name="N" unicode="N" horiz-adv-x="711" 
d="M681 679c0 -34.667 -2.33691 -60.666 -7.00391 -77.999c-18 -2.66699 -31.333 -7.66699 -40 -15s-14.667 -20.5 -18 -39.5s-5 -48.5 -5 -88.5v-458c-20 -6 -50.333 -9 -91 -9l-341 462v-235c0 -39.333 2.16699 -68.5 6.5 -87.5s11.833 -32.333 22.5 -40
s27.334 -12.834 50.001 -15.501c4.66699 -17.333 7 -43.333 7 -78c-28 2 -68.333 3 -121 3l-92 1c-19.333 0 -31.666 -0.333008 -36.999 -1c0 33.333 2.66699 58.333 8 75c22 2.66699 38.5 8 49.5 16s19 21.667 24 41s7.5 48 7.5 86v336l-14 19
c-5.33301 9.33301 -12.5 15.833 -21.5 19.5s-24.167 6.5 -45.5 8.5c-5.33301 19.333 -8 45.333 -8 78c26 -2 70.333 -3 133 -3c57.333 0 95 1 113 3l275 -379v158c0 39.333 -2.16699 68.333 -6.5 87s-12.166 32 -23.499 40s-29.666 13.333 -54.999 16
c-4.66699 18 -7 44 -7 78c28 -2 71.667 -3 131 -3c46.667 0 82 1 106 3z" />
    <glyph glyph-name="O" unicode="O" horiz-adv-x="761" 
d="M562 644c52 -27.333 92.3311 -66 120.998 -116s43 -108 43 -174c0 -71.333 -14.167 -134.5 -42.5 -189.5s-68.666 -97.667 -120.999 -128s-113.166 -45.5 -182.499 -45.5c-70.667 0 -132 14.5 -184 43.5s-91.833 70 -119.5 123s-41.5 114.167 -41.5 183.5
c0 70 14.667 130.833 44 182.5s70 91.5 122 119.5s111.667 42 179 42c69.333 0 130 -13.667 182 -41zM486.998 140c22.667 47.333 33.9971 111.667 33.9971 193c0 51.333 -6.16699 98 -18.5 140s-30.166 75.333 -53.499 100s-50.666 37 -81.999 37
c-40.667 0 -72 -21.167 -94 -63.5s-33 -102.833 -33 -181.5c0 -86 12.833 -156.833 38.5 -212.5s63.5 -83.5 113.5 -83.5c40.667 0 72.334 23.667 95.001 71z" />
    <glyph glyph-name="P" unicode="P" horiz-adv-x="678" 
d="M428.5 330.5c16.333 23.667 24.501 60.833 24.501 111.5c0 46.667 -9.16699 84.5 -27.5 113.5s-44.5 43.5 -78.5 43.5c-17.333 0 -31.666 -2.33301 -42.999 -7v-395c0 -43.333 7.66699 -73.833 23 -91.5s44 -27.834 86 -30.501c6 -16.667 9 -42.667 9 -78
c-38 2 -101.333 3 -190 3s-156 -1 -202 -3c0 34 2.33301 60 7 78c19.333 1.33301 33.5 5 42.5 11s15.333 16.5 19 31.5s5.5 38.167 5.5 69.5v304c0 31.333 -1.5 54 -4.5 68s-8.83301 23.833 -17.5 29.5s-23 9.83398 -43 12.501c-6 24 -9 50 -9 78c63.333 -2 121 -3 173 -3
c36 0 64 0.333008 84 1l133 1c77.333 0 133.833 -20.167 169.5 -60.5s53.5 -92.833 53.5 -157.5c0 -46 -9.83301 -87.5 -29.5 -124.5s-47.334 -66.333 -83.001 -88s-77.167 -32.5 -124.5 -32.5c-28.667 0 -51.667 3.33301 -69 10c-1.33301 10.667 -2 18.667 -2 24
c0 18.667 3.66699 34.667 11 48c5.33301 -1.33301 12.666 -2 21.999 -2c24 0 44.167 11.833 60.5 35.5z" />
    <glyph glyph-name="Q" unicode="Q" horiz-adv-x="761" 
d="M775 -170c-67.333 -6 -129.003 -22.333 -185.003 -49c-21.333 9.33301 -38.166 21.833 -50.499 37.5s-27.166 38.167 -44.499 67.5c-18 32 -34.833 56.5 -50.5 73.5s-37.167 27.5 -64.5 31.5c-70.667 0 -132 14.5 -184 43.5s-91.833 70 -119.5 123
s-41.5 114.167 -41.5 183.5c0 70 14.667 130.833 44 182.5s70 91.5 122 119.5s111.667 42 179 42c69.333 0 130 -13.667 182 -41s92.333 -66 121 -116s43 -108 43 -174c0 -80 -17.667 -149.5 -53 -208.5s-85 -101.5 -149 -127.5c29.333 -10.667 61.333 -28 96 -52
c28 -19.333 53.333 -33.333 76 -42s52.334 -12 89.001 -10c1.33301 -31.333 -2 -59.333 -10 -84zM278.497 152.5c25.667 -55.667 63.4971 -83.499 113.497 -83.499c40.667 0 72.334 23.667 95.001 71s34 111.666 34 192.999c0 51.333 -6.16699 98 -18.5 140
s-30.166 75.333 -53.499 100s-50.666 37 -81.999 37c-40.667 0 -72 -21.167 -94 -63.5s-33 -102.833 -33 -181.5c0 -86 12.833 -156.833 38.5 -212.5z" />
    <glyph glyph-name="R" unicode="R" horiz-adv-x="718" 
d="M664 93c10 -8.66699 24.6689 -13.6719 44.002 -15.0049c0 -27.333 -3.66699 -53.666 -11 -78.999c-116.667 0 -193 -2.66699 -229 -8l-7 20c-18.667 56.667 -34.667 101 -48 133c-12.667 34 -24 59.167 -34 75.5s-22.667 29.5 -38 39.5l-37 1v-63
c0 -36 1.5 -62.5 4.5 -79.5s7.83301 -28.167 14.5 -33.5s16.667 -8.33301 30 -9c4.66699 -13.333 7 -39.333 7 -78c-38 2 -96.333 3 -175 3c-57.333 0 -109 -1 -155 -3c0 32 2.66699 58 8 78c18.667 1.33301 32.5 5 41.5 11s15.333 16.5 19 31.5s5.5 38.167 5.5 69.5v306
c0 30.667 -1.66699 53.167 -5 67.5s-9.5 24.333 -18.5 30s-23.5 9.83398 -43.5 12.501c-4.66699 18.667 -7 44.334 -7 77.001c53.333 -2.66699 110.666 -4 171.999 -4l64 2c82 2 129.667 3 143 3c55.333 0 101.666 -8.33301 138.999 -25s65 -39.167 83 -67.5
s27 -60.166 27 -95.499c0 -56 -12.667 -101.667 -38 -137s-59.333 -58.666 -102 -69.999c16 -6 29.167 -13.667 39.5 -23s20.333 -22.333 30 -39s23.5 -43 41.5 -79c13.333 -26 25 -43.333 35 -52zM415.002 378.995c22.667 21.333 34 51.333 34 90
c0 42.667 -9.33301 75.667 -28 99s-43.667 35 -75 35c-14.667 0 -28.667 -2.33301 -42 -7v-245c13.333 -2.66699 23.333 -4 30 -4c31.333 0 58.333 10.667 81 32z" />
    <glyph glyph-name="S" unicode="S" horiz-adv-x="535" 
d="M387.5 674.5c35 -7 61.1689 -15.834 78.502 -26.501c0 -73.333 2.33301 -126 7 -158c-12.667 -7.33301 -29.5 -12.666 -50.5 -15.999s-41.5 -5 -61.5 -5c-7.33301 50.667 -19.333 86 -36 106s-38.667 30 -66 30c-22 0 -39.833 -5 -53.5 -15s-20.5 -25 -20.5 -45
c0 -17.333 5.5 -32.5 16.5 -45.5s24.833 -24.167 41.5 -33.5s40 -20.666 70 -33.999c42 -18.667 76.5 -36.334 103.5 -53.001s50.167 -39.167 69.5 -67.5s29 -63.5 29 -105.5c0 -66 -24.333 -118.333 -73 -157s-117 -58 -205 -58c-41.333 0 -78.333 4.5 -111 13.5
s-65.334 22.833 -98.001 41.5c8.66699 43.333 13 100 13 170c30.667 8 70.667 12 120 12c2.66699 -41.333 7.16699 -72.833 13.5 -94.5s15.666 -37.167 27.999 -46.5s30.166 -14 53.499 -14c30.667 0 53.834 6.5 69.501 19.5s23.5 28.833 23.5 47.5
c0 21.333 -9 38.833 -27 52.5s-46 29.834 -84 48.501c-40.667 19.333 -74 37.666 -100 54.999s-48.5 41.333 -67.5 72s-28.5 68.667 -28.5 114c0 68.667 22 119.667 66 153s102 50 174 50c35.333 0 70.5 -3.5 105.5 -10.5z" />
    <glyph glyph-name="T" unicode="T" horiz-adv-x="719" 
d="M457 187c0 -32 2.49902 -55.3301 7.49902 -69.9971s14.167 -25 27.5 -31s34.333 -9.66699 63 -11c6.66699 -17.333 10 -43.333 10 -78c-37.333 2 -102.333 3 -195 3c-110 0 -187 -1 -231 -3c0 11.333 1.16699 24.666 3.5 39.999s5.16602 28 8.49902 38
c29.333 1.33301 51.333 5 66 11s25 16.5 31 31.5s9 38.167 9 69.5v414h-2c-35.333 0 -62.5 -10 -81.5 -30s-34.167 -52.667 -45.5 -98c-47.333 0 -81.666 5 -102.999 15c7.33301 27.333 13.333 59.166 18 95.499s7 68.166 7 95.499c56 -2 160.333 -3 313 -3
c121.333 0 223.666 1 306.999 3c0 -62.667 8 -126 24 -190c-26 -10.667 -60.667 -16 -104 -16c-9.33301 46 -22.166 78.833 -38.499 98.5s-41.166 29.5 -74.499 29.5h-20v-414z" />
    <glyph glyph-name="U" unicode="U" horiz-adv-x="697" 
d="M583 131.5c-8.66699 -36.333 -24.333 -65.4971 -47 -87.4971c-38 -35.333 -97 -53 -177 -53c-66.667 0 -119.334 8.5 -158.001 25.5s-66.167 43.333 -82.5 79s-24.5 83.5 -24.5 143.5v247c0 31.333 -1.83301 54.5 -5.5 69.5s-9.83398 25.5 -18.501 31.5
s-22.667 10.667 -42 14c-5.33301 22.667 -8 48.667 -8 78c27.333 -2 72.666 -3 135.999 -3c106.667 0 176 1 208 3c0 -33.333 -2 -59.333 -6 -78c-19.333 -3.33301 -33.166 -8 -41.499 -14s-14.166 -16.333 -17.499 -31s-5 -38 -5 -70v-230
c0 -62 9.33301 -108.167 28 -138.5s46.667 -45.5 84 -45.5c16.667 0 32.667 3.5 48 10.5s28 17.833 38 32.5c9.33301 14 16.333 34 21 60s7 63.333 7 112v180c0 33.333 -2 59 -6 77s-10.667 31.167 -20 39.5s-22.666 14.166 -39.999 17.499c-4 27.333 -6 53.333 -6 78
c27.333 -2 64.666 -3 111.999 -3c46.667 0 82.334 1 107.001 3c0 -32.667 -2.66699 -58.667 -8 -78c-17.333 -2.66699 -30.5 -7.83398 -39.5 -15.501s-15.167 -19.834 -18.5 -36.501s-5 -41 -5 -73v-199c0 -60.667 -4.33301 -109.167 -13 -145.5z" />
    <glyph glyph-name="V" unicode="V" horiz-adv-x="707" 
d="M697 679c0 -24 -3.33301 -50.0029 -10 -78.0029c-18 -3.33301 -32.5 -12 -43.5 -26s-23.167 -39 -36.5 -75l-189 -500c-15.333 -6 -46 -9 -92 -9c-77.333 186.667 -150.333 350.334 -219 491.001c-16 32.667 -28.5 56.834 -37.5 72.501s-17.333 26.834 -25 33.501
s-16.5 11 -26.5 13c-5.33301 18 -8 44 -8 78c34 -2 88.333 -3 163 -3c70.667 0 127.334 1 170.001 3c0 -34.667 -2.66699 -60.667 -8 -78c-14.667 -2.66699 -25.334 -6.5 -32.001 -11.5s-10 -12.167 -10 -21.5c0 -13.333 6.66699 -35 20 -65
c29.333 -64.667 51.5 -115.167 66.5 -151.5s30.167 -78.5 45.5 -126.5c38.667 98 73.667 198 105 300c3.33301 11.333 5 21 5 29c0 27.333 -14.333 43 -43 47c-5.33301 18 -8 44 -8 78c23.333 -2 61.333 -3 114 -3c46 0 79 1 99 3z" />
    <glyph glyph-name="W" unicode="W" horiz-adv-x="985" 
d="M975 679c0 -35.333 -2.99805 -61.332 -8.99805 -77.999c-18.667 -6.66699 -33.667 -19.5 -45 -38.5s-24 -53.833 -38 -104.5l-129 -458c-10 -2.66699 -25.667 -4.83398 -47 -6.50098s-41.666 -2.5 -60.999 -2.5c-48.667 129.333 -101.334 262.333 -158.001 399l-135 -392
c-20 -4.66699 -54.667 -7 -104 -7c-56.667 185.333 -107.667 344 -153 476c-14.667 42 -25.334 71.333 -32.001 88s-13.167 27.667 -19.5 33s-15.5 8.66602 -27.5 9.99902c-4.66699 16 -7 43 -7 81c32 -2 88 -3 168 -3c83.333 0 140.666 1 171.999 3
c0 -30.667 -2.66699 -56.667 -8 -78c-20 -3.33301 -34.333 -8 -43 -14s-13 -16 -13 -30c0 -15.333 6 -39.666 18 -72.999c16.667 -46 38.334 -112.333 65.001 -199l136 391c19.333 5.33301 47.333 8 84 8c61.333 -148 116 -285.333 164 -412l54 186
c9.33301 33.333 14 59 14 77c0 20.667 -5.16699 36 -15.5 46s-26.833 16.667 -49.5 20c-6.66699 17.333 -10 43.333 -10 78c28 -2 68 -3 120 -3c45.333 0 81.666 1 108.999 3z" />
    <glyph glyph-name="X" unicode="X" horiz-adv-x="730" 
d="M710 -3c-29.333 2 -91.668 2.99805 -187.001 2.99805c-78 0 -137 -0.666992 -177 -2c0 30 2.33301 55.667 7 77c11.333 1.33301 19.5 3.33301 24.5 6s7.5 7.33398 7.5 14.001c0 8 -4.5 21.167 -13.5 39.5s-24.167 45.833 -45.5 82.5l-18 30l-34 -50
c-32 -47.333 -48 -79 -48 -95c0 -8 3 -14 9 -18s15.333 -7 28 -9c5.33301 -19.333 8 -45.333 8 -78c-34 2 -76.333 3 -127 3c-56 0 -97.333 -1 -124 -3c0 38 3 64.667 9 80c30 8 56.5 20.833 79.5 38.5s47.833 45.5 74.5 83.5l82 117l-112 175
c-20.667 30.667 -36.834 53.167 -48.501 67.5s-22 24.166 -31 29.499s-20.167 9.33301 -33.5 12c-6 19.333 -9 45.666 -9 78.999c34.667 -2 103.667 -3 207 -3c56.667 0 105.667 0.666992 147 2c0 -27.333 -2.33301 -53 -7 -77c-12 -2 -20.833 -4.66699 -26.5 -8
s-8.5 -8.66602 -8.5 -15.999c0 -13.333 11.333 -37 34 -71l48 -73l36 57c24 37.333 36 64.666 36 81.999c0 16.667 -11 26.334 -33 29.001c-4.66699 17.333 -7 43.333 -7 78c32.667 -2 74 -3 124 -3s87.667 1 113 3c0 -33.333 -2.33301 -59.333 -7 -78
c-22 -5.33301 -39.167 -11.333 -51.5 -18s-24.166 -16.667 -35.499 -30s-26 -33.666 -44 -60.999l-86 -130c35.333 -55.333 60 -95.666 74 -120.999c30 -49.333 53.167 -85 69.5 -107s30.333 -36.667 42 -44s26.834 -12.333 45.501 -15c6 -17.333 9 -43.333 9 -78z" />
    <glyph glyph-name="Y" unicode="Y" horiz-adv-x="634" 
d="M624 678c0 -28.667 -3.00195 -54.333 -9.00195 -77c-12.667 -2.66699 -24 -9.66699 -34 -21s-22 -32.333 -36 -63l-122 -269v-50c0 -34.667 2.33301 -60 7 -76s13.834 -27.333 27.501 -34s35.167 -11 64.5 -13c4 -13.333 6.66699 -25.333 8 -36s2 -24.667 2 -42
c-38.667 2 -110 3 -214 3c-40 -0 -93.333 -0.666992 -160 -2l-53 -1c1.33301 35.333 5.33301 61.333 12 78c34 2.66699 58 6.83398 72 12.501s23.167 16.334 27.5 32.001s6.5 42.167 6.5 79.5v52l-139 291c-17.333 36 -39.333 55.667 -66 59c-5.33301 19.333 -8 45 -8 77
c32 -1.33301 88 -2 168 -2c84.667 0 140.667 0.666992 168 2c0 -26 -2.33301 -51.667 -7 -77c-22 -2.66699 -33 -13.334 -33 -32.001c0 -9.33301 4.66699 -26.333 14 -51l11 -28c24.667 -60.667 44.334 -111.334 59.001 -152.001c26 66.667 51.333 128.667 76 186
c6 14 9 26.667 9 38c0 24 -12.667 37 -38 39c-6 22 -9 47.667 -9 77c24 -1.33301 58.333 -2 103 -2c40.667 0 71.667 0.666992 93 2z" />
    <glyph glyph-name="Z" unicode="Z" horiz-adv-x="586" 
d="M556 183c-6 -25.333 -12.0039 -56.501 -18.0039 -93.501s-9.33301 -67.833 -10 -92.5c-52 2 -138 3 -258 3c-85.333 0 -158.666 -1 -219.999 -3c-13.333 18.667 -20 42.334 -20 71.001l161 289c41.333 76 83.333 157.333 126 244h-53c-21.333 0 -38.666 -4 -51.999 -12
s-24.833 -22.167 -34.5 -42.5s-19.167 -50.5 -28.5 -90.5c-49.333 0 -84.666 4.66699 -105.999 14c8.66699 30 15 63.833 19 101.5s6 73.167 6 106.5c33.333 -1.33301 111.333 -2 234 -2c107.333 0 181.333 0.666992 222 2c12 -20 19 -43.333 21 -70l-137 -274
c-42.667 -81.333 -90.667 -167.666 -144 -258.999h36c30 0 53.833 3.66699 71.5 11s32.334 20.666 44.001 39.999s22.5 48 32.5 86c43.333 -3.33301 79.333 -13 108 -29z" />
    <glyph glyph-name="bracketleft" unicode="[" horiz-adv-x="311" 
d="M131 741c50.667 0 91 0.335938 121 1.00293c5.33301 -11.333 8.66602 -23 9.99902 -35s2 -28 2 -48c-30 -2.66699 -52 -6.33398 -66 -11.001s-23.5 -12.334 -28.5 -23.001s-7.5 -27.334 -7.5 -50.001v-671c0 -24 2.16699 -41.833 6.5 -53.5s12.833 -20 25.5 -25
s32.334 -8.16699 59.001 -9.5c4.66699 -14 7.66699 -26.833 9 -38.5s2 -27.167 2 -46.5c-12 0 -20.667 0.333008 -26 1l-83 1l-91 -1c-6 -0.666992 -15.667 -1 -29 -1v1011c24 -0.666992 56 -1 96 -1z" />
    <glyph glyph-name="backslash" unicode="\" horiz-adv-x="405" 
d="M110 717l266.001 -717c-20 -6 -48.333 -9 -85 -9l-267 718c19.333 5.33301 44.666 8 75.999 8h10z" />
    <glyph glyph-name="bracketright" unicode="]" horiz-adv-x="311" 
d="M247 -268l-91 0.99707l-83 -1c-5.33301 -0.666992 -14 -1 -26 -1c0 19.333 0.666992 34.833 2 46.5s4.33301 24.5 9 38.5c26.667 1.33301 46.334 4.5 59.001 9.5s21.167 13.333 25.5 25s6.5 29.5 6.5 53.5v671c0 22.667 -2.5 39.334 -7.5 50.001
s-14.5 18.334 -28.5 23.001s-36 8.33398 -66 11.001c0 20 0.666992 36 2 48s4.66602 23.667 9.99902 35c30 -0.666992 70.333 -1 121 -1c40 0 72 0.333008 96 1v-1011c-13.333 0 -23 0.333008 -29 1z" />
    <glyph glyph-name="asciicircum" unicode="^" horiz-adv-x="556" 
d="M88 368c-12.667 8 -24.167 18.833 -34.5 32.5s-15.833 26.167 -16.5 37.5l203 260c16 6.66699 40 10 72 10c60.667 -96 129 -197 205 -303c-20 -16 -47 -23 -81 -21l-158 224c-76 -87.333 -139.333 -167.333 -190 -240z" />
    <glyph glyph-name="underscore" unicode="_" horiz-adv-x="638" 
d="M564 -152c-51.333 0.666992 -96.833 1 -136.5 1h-121.5l-164 -1l-82 -1c0 33.333 4.66699 60.333 14 81h504c0 -36 -4.66699 -62.667 -14 -80z" />
    <glyph glyph-name="grave" unicode="`" horiz-adv-x="266" 
d="M41 614.5c-18.667 22.333 -41.666 45.833 -68.999 70.5c51.333 21.333 106 32 164 32c17.333 -56.667 40.333 -112 69 -166c-25.333 -12 -59.333 -18 -102 -18c-22.667 32 -43.334 59.167 -62.001 81.5z" />
    <glyph glyph-name="a" unicode="a" horiz-adv-x="589" 
d="M576 78c0 -20 -4.33398 -37.6689 -13.001 -53.002c-64.667 -1.33301 -124.667 -12.666 -180 -33.999c-14 5.33301 -23.833 12.666 -29.5 21.999s-8.5 21 -8.5 35c0 16.667 2.33301 33.334 7 50.001c-14 -30.667 -30.333 -53.334 -49 -68.001
c-33.333 -24.667 -72.666 -37 -117.999 -37c-106.667 0 -160 40 -160 120c0 42 16.667 75 50 99s70.166 41 110.499 51s87.833 18.667 142.5 26c0 22.667 -1.66699 40.667 -5 54s-9.33301 24.666 -18 33.999c-6 6.66699 -13.667 11.834 -23 15.501s-18.666 5.5 -27.999 5.5
c-40 0 -64 -36.333 -72 -109c-26.667 0 -47.834 0.833008 -63.501 2.5s-30.834 5.16699 -45.501 10.5c1.33301 17.333 2 31 2 41c0 26 -3 55.333 -9 88c64 24 135.667 36 215 36c52.667 0 93.667 -3.83301 123 -11.5s52 -20.5 68 -38.5c14.667 -15.333 26 -35 34 -59
s12 -58 12 -102v-66c0 -25.333 1.33301 -43.666 4 -54.999s7.83398 -19.166 15.501 -23.499s19.834 -6.83301 36.501 -7.5c1.33301 -6 2 -14.667 2 -26zM237.499 192.998c-18.333 -13.333 -27.5 -29.667 -27.5 -49c0 -28 12.667 -42 38 -42c20.667 0 39.167 9.5 55.5 28.5
s24.5 44.833 24.5 77.5v17c-42 -8 -72.167 -18.667 -90.5 -32z" />
    <glyph glyph-name="b" unicode="b" horiz-adv-x="648" 
d="M561.5 417c37.667 -33.333 56.5 -84.002 56.5 -152.002c0 -54.667 -12.167 -102.667 -36.5 -144s-58.5 -73.333 -102.5 -96s-95.333 -34 -154 -34c-58 0 -114 6.83301 -168 20.5s-91.333 31.5 -112 53.5c16 18.667 24 50.667 24 96v378c0 24 -5 41 -15 51
s-29.667 16.333 -59 19c0 33.333 4.33301 58.333 13 75c46.667 0 90 3.33301 130 10s68.667 14.334 86 23.001c23.333 -10.667 35 -32 35 -64v-173c0 -33.333 -2.33301 -62 -7 -86c8.66699 12 19.667 23.333 33 34c14 10.667 32.5 19.834 55.5 27.501s47.167 11.5 72.5 11.5
c61.333 0 110.833 -16.667 148.5 -50zM396.5 99.998c20.333 25.333 30.501 70.667 30.501 136c0 38 -5.83301 69.667 -17.5 95s-31.834 38 -60.501 38c-25.333 0 -46.666 -12.333 -63.999 -37s-26 -63 -26 -115v-121c9.33301 -12 18.833 -20.667 28.5 -26s21.167 -8 34.5 -8
c29.333 0 54.166 12.667 74.499 38z" />
    <glyph glyph-name="c" unicode="c" horiz-adv-x="484" 
d="M99.5 49.5c-46.333 39 -69.498 98.165 -69.498 177.498c0 41.333 9.5 80.333 28.5 117s47.667 66.334 86 89.001s84.5 34 138.5 34c39.333 0 73.166 -3.16699 101.499 -9.5s54.833 -16.166 79.5 -29.499c-8.66699 -35.333 -13 -79.333 -13 -132
c-25.333 -11.333 -60.333 -17 -105 -17c0 37.333 -5.16699 66 -15.5 86s-24.5 30 -42.5 30c-22.667 0 -40.167 -14.5 -52.5 -43.5s-18.5 -65.833 -18.5 -110.5c0 -43.333 10.667 -80.5 32 -111.5s53.666 -46.5 96.999 -46.5c40.667 0 74 7.66699 100 23
c15.333 -16.667 23 -38 23 -64c-17.333 -16 -41.333 -28.5 -72 -37.5s-64.667 -13.5 -102 -13.5c-84 0 -149.167 19.5 -195.5 58.5z" />
    <glyph glyph-name="d" unicode="d" horiz-adv-x="646" 
d="M637 78c0 -20 -4.33398 -37.668 -13.001 -53.001c-64.667 -1.33301 -124.667 -12.666 -180 -33.999c-14 5.33301 -23.833 12.666 -29.5 21.999s-8.5 21 -8.5 35c0 7.33301 1.33301 19.666 4 36.999c-15.333 -24.667 -31 -43 -47 -55
c-14 -10.667 -32.5 -19.834 -55.5 -27.501s-47.167 -11.5 -72.5 -11.5c-61.333 0 -110.833 16.667 -148.5 50s-56.5 84 -56.5 152c0 54.667 12.333 102.667 37 144s59.167 73.333 103.5 96s95.833 34 154.5 34c21.333 0 42.666 -2.33301 63.999 -7v79c0 24 -5 41 -15 51
s-29.667 16.333 -59 19c0 33.333 4.33301 58.333 13 75c46.667 0 90 3.33301 130 10s68.667 14.334 86 23.001c23.333 -10.667 35 -32 35 -64v-457c0 -27.333 1.33301 -47.166 4 -59.499s7.83398 -20.666 15.501 -24.999s19.834 -6.83301 36.501 -7.5
c1.33301 -6 2 -14.667 2 -26zM362.999 125.499c17.333 24.333 25.999 62.5 25.999 114.5v122c-9.33301 12 -18.833 20.667 -28.5 26s-21.167 8 -34.5 8c-29.333 0 -54.166 -12.5 -74.499 -37.5s-30.5 -70.5 -30.5 -136.5c0 -38 5.83301 -69.667 17.5 -95
s31.834 -38 60.501 -38c25.333 0 46.666 12.167 63.999 36.5z" />
    <glyph glyph-name="e" unicode="e" horiz-adv-x="545" 
d="M481 186c-102 0 -187.669 -2 -257.002 -6c17.333 -64.667 61.333 -97 132 -97c21.333 0 44 3.66699 68 11s43.333 16.333 58 27c7.33301 -4.66699 13.666 -13.667 18.999 -27s8 -27.333 8 -42c-57.333 -40.667 -126.333 -61 -207 -61c-94.667 0 -163.667 20.667 -207 62
s-65 97.333 -65 168c0 80 23.667 141 71 183s112 63 194 63c48.667 0 89.834 -10.667 123.501 -32s58.334 -49 74.001 -83s22.834 -69.667 21.501 -107c-5.33301 -23.333 -16.333 -43 -33 -59zM334.498 355.5c-11 25 -26.833 37.5 -47.5 37.5c-22 0 -39 -10.833 -51 -32.5
s-18.333 -56.5 -19 -104.5h134c0 41.333 -5.5 74.5 -16.5 99.5z" />
    <glyph glyph-name="f" unicode="f" horiz-adv-x="440" 
d="M308.5 631c-5.66699 -6.66699 -9.83203 -19.334 -12.499 -38.001s-4 -46 -4 -82v-63h117c0 -41.333 -3.33301 -69 -10 -83c-38.667 0 -74.334 -5 -107.001 -15v-153c0 -43.333 7.66699 -73.833 23 -91.5s44 -27.834 86 -30.501c6 -16.667 9 -42.667 9 -78
c-38 2 -98 3 -180 3c-88.667 0 -156 -1 -202 -3c0 34 2.33301 60 7 78c19.333 1.33301 33.5 5 42.5 11s15.333 16.5 19 31.5s5.5 38.167 5.5 69.5v170c-26.667 8 -51.667 12 -75 12c0 36.667 4.66699 63 14 79h61v29c0 78.667 22.833 138.334 68.5 179.001
s106.5 61 182.5 61c28 0 56.5 -3.16699 85.5 -9.5s50.833 -14.166 65.5 -23.499c-4.66699 -24 -7 -55 -7 -93c0 -12.667 0.666992 -27.667 2 -45c-12 -5.33301 -29.833 -9.16602 -53.5 -11.499s-45.5 -2.83301 -65.5 -1.5c0 33.333 -4.5 59.666 -13.5 78.999
s-20.5 29 -34.5 29c-10 0 -17.833 -3.33301 -23.5 -10z" />
    <glyph glyph-name="g" unicode="g" horiz-adv-x="584" 
d="M556 -37c0 -42 -13.499 -79.001 -40.499 -111.001s-64.167 -56.833 -111.5 -74.5s-101 -26.5 -161 -26.5c-84.667 0 -143 9.83301 -175 29.5s-48 48.834 -48 87.501c0 20 6.16699 38.5 18.5 55.5s29.833 29.833 52.5 38.5c-26 21.333 -39 53.333 -39 96
c0 20.667 6.83301 40.667 20.5 60s30.834 35.333 51.501 48c-60.667 26.667 -91 73.334 -91 140.001c0 51.333 20.667 91 62 119s101 42 179 42c33.333 0 62.333 -3 87 -9h195c8.66699 -20 13 -50 13 -90c-32.667 13.333 -62.334 21.333 -89.001 24
c12.667 -14.667 22 -30 28 -46s9 -29.333 9 -40c0 -50.667 -21.333 -90.834 -64 -120.501s-101 -44.5 -175 -44.5c-28.667 0 -55.667 2 -81 6c-11.333 -7.33301 -17 -14.333 -17 -21s3.83301 -11.667 11.5 -15s25.167 -6 52.5 -8s69.666 -3 126.999 -3
c123.333 0 185 -45.667 185 -137zM232.501 380.999c-8.33301 -16.667 -12.5 -38.333 -12.5 -65c0 -34 5.83301 -60 17.5 -78s27.5 -27 47.5 -27c15.333 0 27.666 7.83301 36.999 23.5s14 37.5 14 65.5c0 32 -5.5 57.667 -16.5 77s-27.167 29 -48.5 29
c-17.333 0 -30.166 -8.33301 -38.499 -25zM359.501 -154c23 11.333 34.499 26 34.499 44c0 7.33301 -2 13 -6 17s-12 7 -24 9s-30.667 3 -56 3c-55.333 0 -99.666 3.33301 -132.999 10c-7.33301 -10 -11 -22.333 -11 -37c0 -22 7.83301 -38 23.5 -48s41.167 -15 76.5 -15
c40.667 0 72.5 5.66699 95.5 17z" />
    <glyph glyph-name="h" unicode="h" horiz-adv-x="699" 
d="M674 -3c-60 2 -106.332 2.99707 -138.999 2.99707c-78.667 0 -133 -1 -163 -3c0 34 3.33301 60 10 78c32 0 48 32.667 48 98v69c0 37.333 -4.83301 63.833 -14.5 79.5s-25.5 23.5 -47.5 23.5c-24.667 0 -44.834 -14.5 -60.501 -43.5s-23.5 -66.167 -23.5 -111.5v-28
c0 -33.333 3.83301 -56.166 11.5 -68.499s19.5 -18.5 35.5 -18.5c7.33301 -18 11 -44 11 -78c-30 2 -81 3 -153 3c-82.667 0 -139 -1 -169 -3c0 34.667 3.33301 60.667 10 78c25.333 0 42.333 6 51 18s13 35 13 69v377c0 24 -5 41 -15 51s-29.667 16.333 -59 19
c0 33.333 4.33301 58.333 13 75c46.667 0 90 3.33301 130 10s68.667 14.334 86 23.001c23.333 -10.667 35 -32 35 -64v-250c0 -14.667 -4 -35 -12 -61c6.66699 16.667 12.834 30 18.501 40s12.5 19 20.5 27c16.667 16.667 36.5 29.667 59.5 39s48.167 14 75.5 14
c49.333 0 90.666 -13.5 123.999 -40.5s50 -67.833 50 -122.5v-137c0 -33.333 3 -56.166 9 -68.499s17.333 -18.5 34 -18.5c7.33301 -18 11 -44 11 -78z" />
    <glyph glyph-name="i" unicode="i" horiz-adv-x="390" 
d="M258.5 662c18.333 -14.667 27.5 -36.334 27.5 -65.001c0 -24.667 -10.333 -44.667 -31 -60s-48.667 -23 -84 -23c-31.333 0 -56.166 7.33301 -74.499 22s-27.5 34.334 -27.5 59.001c0 28.667 10 50.667 30 66s46.333 23 79 23c35.333 0 62.166 -7.33301 80.499 -22z
M296.5 110c3.66699 -12 10.167 -20.501 19.5 -25.501s23 -8.16699 41 -9.5c5.33301 -16.667 8 -42.667 8 -78c-24.667 2 -81 3 -169 3c-88.667 0 -145 -1 -169 -3c0 36 3 62 9 78c18 1.33301 31.5 4.5 40.5 9.5s15.333 13.333 19 25s5.5 29.167 5.5 52.5v127
c0 24 -5 41 -15 51s-29.667 16.333 -59 19c0 33.333 4.33301 58.333 13 75c46.667 0 90 3.33301 130 10s68.667 14.334 86 23.001c23.333 -10.667 35 -32 35 -64v-241c0 -22.667 1.83301 -40 5.5 -52z" />
    <glyph glyph-name="j" unicode="j" horiz-adv-x="332" 
d="M269.5 662c18.333 -14.667 27.5 -36.334 27.5 -65.001c0 -24.667 -10.333 -44.667 -31 -60s-48.667 -23 -84 -23c-31.333 0 -56.166 7.33301 -74.499 22s-27.5 34.334 -27.5 59.001c0 28.667 10 50.667 30 66s46.333 23 79 23c35.333 0 62.166 -7.33301 80.499 -22z
M86 340c-10 10 -29.667 16.3301 -59 18.9971c0 33.333 4.33301 58.333 13 75c46.667 0 90 3.33301 130 10s68.667 14.334 86 23.001c23.333 -10.667 35 -32 35 -64v-320c0 -54 -12 -103.333 -36 -148s-53.333 -82.167 -88 -112.5s-69.667 -54.166 -105 -71.499
c-12.667 6.66699 -23.167 16.667 -31.5 30s-13.5 28 -15.5 44c32.667 32.667 55.167 64.334 67.5 95.001s18.5 69.667 18.5 117v252c0 24 -5 41 -15 51z" />
    <glyph glyph-name="k" unicode="k" horiz-adv-x="662" 
d="M610 84.5c6.66699 -4.33301 18.999 -7.50293 36.999 -9.50293c0 -29.333 -4.66699 -54.333 -14 -75c-88 0 -151 -3 -189 -9c-31.333 50 -84.666 120.333 -159.999 211v-40c0 -32 3 -54 9 -66s18 -19 36 -21c5.33301 -14.667 8 -40.667 8 -78c-24.667 2 -76 3 -154 3
c-84.667 0 -139 -1 -163 -3c0 36 3 62 9 78c18 1.33301 31.5 4.5 40.5 9.5s15.333 13.333 19 25s5.5 29.167 5.5 52.5v377c0 24 -5 41 -15 51s-29.667 16.333 -59 19c0 33.333 4.33301 58.333 13 75c46.667 0 90 3.33301 130 10s68.667 14.334 86 23.001
c23.333 -10.667 35 -32 35 -64v-389l66 58c24 20.667 36 35.334 36 44.001c0 5.33301 -1.83301 9.33301 -5.5 12s-10.5 4.33398 -20.5 5.00098c-8.66699 23.333 -13 49 -13 77c32 -1.33301 88.667 -2 170 -2c28 0 59.333 0.666992 94 2c0 -29.333 -4 -55 -12 -77
c-30 -2.66699 -53.5 -7.83398 -70.5 -15.501s-37.167 -22.5 -60.5 -44.5l-37 -34c54 -48.667 103.333 -105 148 -169c14 -19.333 24.333 -31.166 31 -35.499z" />
    <glyph glyph-name="l" unicode="l" horiz-adv-x="378" 
d="M76.5 591.5c-10.333 9 -29.168 14.832 -56.501 17.499c0 33.333 4.33301 58.333 13 75c46.667 0 90 3.33301 130 10s68.667 14.334 86 23.001c23.333 -10.667 35 -32 35 -64v-491c0 -22.667 1.83301 -40 5.5 -52s10.167 -20.5 19.5 -25.5s23 -8.16699 41 -9.5
c5.33301 -16.667 8 -42.667 8 -78c-24.667 2 -81 3 -169 3c-88.667 0 -145 -1 -169 -3c0 36 3 62 9 78c18 1.33301 31.5 4.5 40.5 9.5s15.333 13.333 19 25s5.5 29.167 5.5 52.5v387c-1.33301 19.333 -7.16602 33.5 -17.499 42.5z" />
    <glyph glyph-name="m" unicode="m" horiz-adv-x="1032" 
d="M1007 -3c-24 2 -70.667 2.99707 -140 2.99707c-71.333 0 -125 -1 -161 -3c0 30 2.66699 56 8 78c12 0.666992 21.5 4.33398 28.5 11.001s12.167 18.834 15.5 36.501s5 43.5 5 77.5v45c0 37.333 -4.33301 63.333 -13 78s-21.667 22 -39 22
c-28.667 0 -50.667 -13.833 -66 -41.5s-23 -65.5 -23 -113.5v-22c0 -34.667 3.33301 -58.5 10 -71.5s20 -20.167 40 -21.5c6.66699 -18 10 -44 10 -78c-20.667 2 -71.334 3 -152.001 3s-133 -1 -157 -3c0 32.667 3.33301 58.667 10 78c14.667 1.33301 25.5 5 32.5 11
s11.833 18.167 14.5 36.5s4 47.5 4 87.5v46c0 32.667 -4.66699 55.667 -14 69s-24.333 20 -45 20c-24.667 0 -44.834 -15 -60.501 -45s-23.5 -66.667 -23.5 -110v-22c0 -25.333 1.16699 -44.333 3.5 -57s6.83301 -21.5 13.5 -26.5s17 -8.16699 31 -9.5
c6.66699 -17.333 10 -43.333 10 -78c-20.667 2 -75.667 3 -165 3c-86 0 -138.333 -1 -157 -3c0 32.667 3.33301 58.334 10 77.001c18.667 1.33301 32.334 4.66602 41.001 9.99902s14.667 13.833 18 25.5s5 29.167 5 52.5v93c0 30 -1.33301 51.333 -4 64
s-9 21.834 -19 27.501s-26.333 9.83398 -49 12.501c0 28.667 4.66699 53.667 14 75c42 0 83.167 3 123.5 9s70.5 14 90.5 24c10 -3.33301 18.167 -10.5 24.5 -21.5s9.5 -25.167 9.5 -42.5c0 -8 -1.16699 -17 -3.5 -27l-8.5 -35c14 33.333 27 56 39 68
c17.333 17.333 37.666 31 60.999 41s48 15 74 15c33.333 0 62.833 -6.66699 88.5 -20s45.5 -32 59.5 -56c8.66699 -14.667 14 -28 16 -40c13.333 30 27.333 51.333 42 64c32 30.667 72.333 46 121 46c58.667 0 102.167 -14 130.5 -42s42.5 -72.667 42.5 -134v-73
c0 -44 0.833008 -74.333 2.5 -91s5.33398 -27.834 11.001 -33.501s15.834 -9.16699 30.501 -10.5c6.66699 -19.333 10 -45.333 10 -78z" />
    <glyph glyph-name="n" unicode="n" horiz-adv-x="706" 
d="M681 -3c-60 2 -106.331 2.99707 -138.998 2.99707c-78.667 0 -133 -1 -163 -3c0 34 3.33301 60 10 78c32 0 48 32.667 48 98v69c0 37.333 -4.83301 63.833 -14.5 79.5s-25.5 23.5 -47.5 23.5c-24.667 0 -44.834 -14.5 -60.501 -43.5s-23.5 -66.167 -23.5 -111.5v-28
c0 -33.333 3.83301 -56.166 11.5 -68.499s19.5 -18.5 35.5 -18.5c7.33301 -18 11 -44 11 -78c-30 2 -81 3 -153 3c-82.667 0 -139 -1 -169 -3c0 34.667 3.33301 60.667 10 78c25.333 0 42.333 6 51 18s13 35 13 69v108c0 24 -1.5 41.5 -4.5 52.5s-9.33301 19.333 -19 25
s-25.5 9.5 -47.5 11.5c0 33.333 4.33301 58.333 13 75c46.667 0 89.667 3.33301 129 10s67.666 14.334 84.999 23.001c22.667 -10 34 -31.333 34 -64c0 -14.667 -4 -35 -12 -61c6.66699 16.667 12.834 30 18.501 40s12.5 19 20.5 27c16.667 16.667 36.5 29.667 59.5 39
s48.167 14 75.5 14c49.333 0 90.666 -13.5 123.999 -40.5s50 -67.833 50 -122.5v-137c0 -33.333 3 -56.166 9 -68.499s17.333 -18.5 34 -18.5c7.33301 -18 11 -44 11 -78z" />
    <glyph glyph-name="o" unicode="o" horiz-adv-x="608" 
d="M509 404c46 -42 68.999 -97.667 68.999 -167c0 -78 -24.833 -138.5 -74.5 -181.5s-118.167 -64.5 -205.5 -64.5c-88 0 -154.667 20.167 -200 60.5s-68 96.5 -68 168.5c0 54.667 12.167 100.5 36.5 137.5s57.333 64.5 99 82.5s88.834 27 141.501 27
c88.667 0 156 -21 202 -63zM238.499 356.5c-12.333 -25.667 -18.5 -58.5 -18.5 -98.5c0 -54.667 8.33301 -100 25 -136s40.667 -54 72 -54c22 0 39.333 12.833 52 38.5s19 58.167 19 97.5c0 41.333 -4.5 76.333 -13.5 105s-20.833 50.167 -35.5 64.5
s-30.334 21.5 -47.001 21.5c-23.333 0 -41.166 -12.833 -53.499 -38.5z" />
    <glyph glyph-name="p" unicode="p" horiz-adv-x="678" 
d="M312 -136.5c15.333 -17.667 44 -27.835 86 -30.502c6 -16.667 9 -42.667 9 -78c-38 2 -98 3 -180 3c-88.667 0 -156 -1 -202 -3c0 34 2.33301 60 7 78c19.333 1.33301 33.5 5 42.5 11s15.333 16.5 19 31.5s5.5 38.167 5.5 69.5v325c0 24 -1.5 41.5 -4.5 52.5
s-9.33301 19.333 -19 25s-25.5 9.5 -47.5 11.5c0 33.333 4.33301 58.333 13 75c46.667 0 89.667 3.33301 129 10s67.666 14.334 84.999 23.001c22.667 -10 34 -31.333 34 -64c9.33301 10.667 18 19 26 25c14 10.667 32.5 19.834 55.5 27.501s47.167 11.5 72.5 11.5
c61.333 0 110.833 -16.667 148.5 -50s56.5 -84 56.5 -152c0 -54.667 -12.333 -102.667 -37 -144s-59.167 -73.333 -103.5 -96s-95.833 -34 -154.5 -34c-21.333 0 -42.666 2.33301 -63.999 7v-43c0 -43.333 7.66699 -73.833 23 -91.5zM315 332.499
c-17.333 -24.333 -25.999 -62.5 -25.999 -114.5v-122c9.33301 -12 18.833 -20.667 28.5 -26s21.167 -8 34.5 -8c29.333 0 54.166 12.5 74.499 37.5s30.5 70.5 30.5 136.5c0 38 -5.83301 69.667 -17.5 95s-31.834 38 -60.501 38c-25.333 0 -46.666 -12.167 -63.999 -36.5z
" />
    <glyph glyph-name="q" unicode="q" horiz-adv-x="647" 
d="M647 -245c-28.667 2 -90.335 3 -185.002 3c-106.667 0 -172 -1 -196 -3c0 33.333 3 59 9 77c32 2 55.833 6.66699 71.5 14s26.5 19.5 32.5 36.5s9 42.5 9 76.5v21c0 42.667 3.66699 78 11 106c-12 -21.333 -25.333 -37.666 -40 -48.999
c-31.333 -26 -75.666 -39 -132.999 -39c-60 0 -107.667 18 -143 54s-53 85.333 -53 148c0 54.667 12.333 102 37 142s59.334 70.833 104.001 92.5s96 32.5 154 32.5s110.667 -6.5 158 -19.5s86.333 -31.167 117 -54.5c-8.66699 -22.667 -14.5 -45 -17.5 -67
s-4.5 -55.667 -4.5 -101v-260c0 -38.667 1.33301 -66.5 4 -83.5s8.16699 -28.833 16.5 -35.5s21.833 -11.334 40.5 -14.001c5.33301 -19.333 8 -45 8 -77zM361.999 123c17.333 24.667 25.999 62.667 25.999 114v123c-5.33301 10.667 -13.333 19.167 -24 25.5
s-23.667 9.5 -39 9.5c-30.667 0 -55.667 -14.167 -75 -42.5s-29 -72.833 -29 -133.5c0 -48.667 6.33301 -83 19 -103s32.334 -30 59.001 -30c24.667 0 45.667 12.333 63 37z" />
    <glyph glyph-name="r" unicode="r" horiz-adv-x="521" 
d="M314 105.5c15.333 -17.667 44 -27.832 86 -30.499c6 -16.667 9 -42.667 9 -78c-38 2 -98 3 -180 3c-88.667 0 -156 -1 -202 -3c0 34 2.33301 60 7 78c19.333 1.33301 33.5 5 42.5 11s15.333 16.5 19 31.5s5.5 38.167 5.5 69.5v83c0 24 -1.5 41.5 -4.5 52.5
s-9.33301 19.333 -19 25s-25.5 9.5 -47.5 11.5c0 33.333 4.33301 58.333 13 75c46.667 0 89.667 3.33301 129 10s67.666 14.334 84.999 23.001c22.667 -10 34 -31.333 34 -64c0 -14 -6 -45.667 -18 -95c14.667 41.333 24.334 65.666 29.001 72.999
c15.333 24 34.333 43.5 57 58.5s47 22.5 73 22.5c26.667 0 51.334 -8 74.001 -24c-7.33301 -44 -11 -89 -11 -135c0 -16 0.333008 -27.667 1 -35c-20.667 -9.33301 -56 -14 -106 -14c-0.666992 22 -4 38.167 -10 48.5s-15.667 15.5 -29 15.5
c-8.66699 0 -17.834 -5.33301 -27.501 -16s-17.5 -24.334 -23.5 -41.001s-9 -34 -9 -52v-12c0 -43.333 7.66699 -73.833 23 -91.5z" />
    <glyph glyph-name="s" unicode="s" horiz-adv-x="493" 
d="M382 313.5c-18 -4.33301 -36.3311 -6.49609 -54.998 -6.49609c-8 55.333 -35.333 83 -82 83c-10.667 0 -19.167 -3 -25.5 -9s-9.5 -13.667 -9.5 -23c0 -8.66699 2.16699 -16.334 6.5 -23.001s13.666 -14.334 27.999 -23.001s36.166 -19 65.499 -31
c39.333 -16 70 -31.167 92 -45.5s37.667 -29.5 47 -45.5s14 -34.667 14 -56c0 -47.333 -20 -83 -60 -107s-97.667 -36 -173 -36c-41.333 0 -76.666 2.66699 -105.999 8s-58.666 13.666 -87.999 24.999c2.66699 19.333 4 42.333 4 69c0 16.667 -0.666992 35 -2 55
c11.333 6.66699 26.666 12 45.999 16s37.666 6 54.999 6c2.66699 -32 11.334 -56.5 26.001 -73.5s32.667 -25.5 54 -25.5c14 0 25.5 3.16699 34.5 9.5s13.5 15.166 13.5 26.499c0 14.667 -5.83301 26.834 -17.5 36.501s-34.5 21.167 -68.5 34.5
c-46.667 17.333 -81.834 37.166 -105.501 59.499s-35.5 54.5 -35.5 96.5c0 44.667 18 78 54 100s86.333 33 151 33c39.333 0 72.5 -2.33301 99.5 -7s52.5 -12 76.5 -22c-0.666992 -6 -1 -15.333 -1 -28c0 -27.333 2 -54 6 -80c-11.333 -6.66699 -26 -12.167 -44 -16.5z" />
    <glyph glyph-name="t" unicode="t" horiz-adv-x="399" 
d="M168 583c29.333 10.667 52.668 23 70.001 37c12 -5.33301 20.333 -12.833 25 -22.5s7 -25.5 7 -47.5v-102h117c0 -28.667 -3.33301 -55.334 -10 -80.001c-40.667 0 -76.334 -6 -107.001 -18v-164c0 -30.667 1.5 -53.667 4.5 -69s7.66699 -25.666 14 -30.999
s15.833 -8 28.5 -8c20 0 39 3.66699 57 11c10 -14.667 15 -36 15 -64c-14.667 -10 -35.667 -18.167 -63 -24.5s-55.666 -9.5 -84.999 -9.5c-54.667 0 -95.167 14 -121.5 42s-39.5 75 -39.5 141v183c-18.667 8 -43.667 12 -75 12c0 31.333 4.66699 57.666 14 78.999h61v115
c29.333 2.66699 58.666 9.33398 87.999 20.001z" />
    <glyph glyph-name="u" unicode="u" horiz-adv-x="649" 
d="M640 78c0 -20 -4.33496 -37.6699 -13.002 -53.0029c-64.667 -1.33301 -124.667 -12.666 -180 -33.999c-14 5.33301 -23.833 12.666 -29.5 21.999s-8.5 21 -8.5 35c0 14.667 2.33301 31.334 7 50.001c-9.33301 -27.333 -22 -48 -38 -62c-14 -12.667 -33.5 -23 -58.5 -31
s-53.167 -12 -84.5 -12c-53.333 0 -93 14.333 -119 43s-39 77 -39 145v89c0 23.333 -1.33301 40.666 -4 51.999s-8.33398 19.833 -17.001 25.5s-22.334 9.5 -41.001 11.5c0 33.333 4.33301 58.333 13 75c46 0 87.167 3.33301 123.5 10s63.5 14.334 81.5 23.001
c22.667 -10 34 -31.333 34 -64v-196c0 -42.667 3.5 -71.834 10.5 -87.501s17.833 -23.5 32.5 -23.5c22.667 0 42 12.833 58 38.5s24 62.834 24 111.501v29c0 22.667 -1.83301 40 -5.5 52s-10.5 20.667 -20.5 26s-25 9 -45 11c0 33.333 4.33301 58.333 13 75
c48.667 0 92.334 2.66699 131.001 8s66.334 12 83.001 20c22.667 -10 34 -31.333 34 -64v-207c0 -27.333 1.33301 -47.166 4 -59.499s7.83398 -20.666 15.501 -24.999s19.834 -6.83301 36.501 -7.5c1.33301 -6 2 -14.667 2 -26z" />
    <glyph glyph-name="v" unicode="v" horiz-adv-x="583" 
d="M573 461c0 -35.333 -4.33203 -61.333 -12.999 -78c-18 -4 -31.667 -10.333 -41 -19s-18.333 -23.667 -27 -45l-136 -328c-12 -1.33301 -21.667 -2 -29 -2c-35.333 0 -63.333 5.66699 -84 17c-50.667 109.333 -104.334 215.666 -161.001 318.999
c-11.333 20 -21 33.833 -29 41.5s-18.667 13.167 -32 16.5c-7.33301 23.333 -11 49.333 -11 78c30.667 -2 82.667 -3 156 -3c80 0 136 1 168 3c0 -24 -3.66699 -50 -11 -78c-14 -2 -24 -4.83301 -30 -8.5s-9 -9.16699 -9 -16.5c0 -9.33301 4.33301 -22.666 13 -39.999
c22.667 -46 43 -91.333 61 -136c10 30 27 75.333 51 136c6.66699 15.333 10 27.333 10 36s-3.33301 15.167 -10 19.5s-17 7.5 -31 9.5c-7.33301 28 -11 54 -11 78c26 -2 59.667 -3 101 -3s76.333 1 105 3z" />
    <glyph glyph-name="w" unicode="w" horiz-adv-x="797" 
d="M787 461c0 -12 -1 -25.6689 -3 -41.002s-5 -27.333 -9 -36c-15.333 -3.33301 -27.333 -9.66602 -36 -18.999s-16.334 -24.666 -23.001 -45.999l-96 -328c-59.333 0 -97.333 3 -114 9c-28 58 -48.333 101.167 -61 129.5s-23.334 58.166 -32.001 89.499l-102 -228
c-59.333 0 -97.333 3 -114 9c-47.333 140 -85.666 248.333 -114.999 325c-7.33301 19.333 -15.666 33.666 -24.999 42.999s-21 14.333 -35 15c-8 24 -12 50 -12 78c51.333 -2 100 -3 146 -3c62.667 0 119 1 169 3c0 -26 -4 -51.667 -12 -77
c-12 -1.33301 -20.333 -3.16602 -25 -5.49902s-7 -7.16602 -7 -14.499c0 -6 4 -23.333 12 -52c12.667 -44 21.667 -79.667 27 -107l100 259c38 0 65.333 -3 82 -9c40 -86.667 75.667 -172.667 107 -258l28 115c2.66699 10.667 4 21 4 31c0 12 -3 21 -9 27s-16 10.667 -30 14
c-7.33301 22 -11 47.667 -11 77c26 -2 58 -3 96 -3s71.333 1 100 3z" />
    <glyph glyph-name="x" unicode="x" horiz-adv-x="607" 
d="M582 0c-6.66699 0.666992 -16.667 0.99707 -30 0.99707l-78 -1c-121.333 0 -194 -0.666992 -218 -2c0 32.667 3 58.334 9 77.001c12 2 18 8 18 18c0 10.667 -8 29.334 -24 56.001l-14 23l-9 -14c-23.333 -35.333 -35 -59 -35 -71c0 -6 3.66699 -10 11 -12
c3.33301 -10.667 5.5 -21.167 6.5 -31.5s1.5 -25.5 1.5 -45.5c-18 1.33301 -52 2 -102 2c-48 0 -79 -0.666992 -93 -2c0 31.333 4 57 12 77c10.667 0.666992 19.834 3.33398 27.501 8.00098s17 14 28 28s26.833 36.667 47.5 68l38 57c-24.667 42 -50.334 80 -77.001 114
c-8 10.667 -16.667 18.5 -26 23.5s-21.666 8.16699 -36.999 9.5c-7.33301 23.333 -11 49 -11 77c27.333 -1.33301 79.666 -2 156.999 -2c82 0 137.667 0.666992 167 2c0 -34 -2.66699 -59.667 -8 -77c-14.667 -1.33301 -22 -6 -22 -14c0 -7.33301 7.66699 -23.333 23 -48
l22 -34l24 36c15.333 23.333 23 38.666 23 45.999s-5.66699 12 -17 14c-7.33301 18.667 -11 44.334 -11 77.001c23.333 -1.33301 57.333 -2 102 -2c38 0 67.333 0.666992 88 2c0 -30 -3.66699 -55.667 -11 -77c-14.667 -1.33301 -26 -5.33301 -34 -12
s-19.667 -21.334 -35 -44.001l-63 -94l43 -66c22 -36 39 -59.667 51 -71s27 -17.666 45 -18.999c7.33301 -20 11 -45.667 11 -77z" />
    <glyph glyph-name="y" unicode="y" horiz-adv-x="579" 
d="M569 462c0 -31.333 -4.33496 -57.6641 -13.002 -78.9971c-15.333 -4 -27.5 -10.667 -36.5 -20s-18.833 -26 -29.5 -50l-147 -350c-24.667 -59.333 -47.334 -104.166 -68.001 -134.499s-40.667 -50.833 -60 -61.5s-41.666 -16 -66.999 -16
c-22 0 -43.833 5.16699 -65.5 15.5s-37.834 23.166 -48.501 38.499c-0.666992 4 -1 11.667 -1 23c0 32.667 4.66699 61 14 85c32.667 -12.667 71.334 -19 116.001 -19c24 0 42.167 3 54.5 9s23.833 17.333 34.5 34l5 9c-52.667 125.333 -109.334 249.666 -170.001 372.999
c-11.333 23.333 -21.833 39.166 -31.5 47.499s-21.5 13.833 -35.5 16.5c-6.66699 19.333 -10 45.333 -10 78c38 -2 89 -3 153 -3c73.333 0 130.333 1 171 3c0 -13.333 -1.16699 -27.666 -3.5 -42.999s-5.16602 -27 -8.49902 -35
c-15.333 -2.66699 -26.166 -5.83398 -32.499 -9.50098s-9.5 -9.16699 -9.5 -16.5c0 -9.33301 6.33301 -26 19 -50c20.667 -40.667 39.667 -84.334 57 -131.001l48 122c10 24 15 42 15 54c0 9.33301 -2.83301 16.333 -8.5 21s-14.5 8 -26.5 10
c-7.33301 18.667 -11 44.667 -11 78c31.333 -2 65 -3 101 -3c36.667 0 68.334 1.33301 95.001 4z" />
    <glyph glyph-name="z" unicode="z" horiz-adv-x="518" 
d="M498 22c-7.33301 -16 -23.001 -23.999 -47.001 -23.999c-36.667 0 -66.667 0.333008 -90 1l-111 1c-78 0 -141 -0.666992 -189 -2c-6 9.33301 -11 20.833 -15 34.5s-6 26.834 -6 39.501c82.667 113.333 152.334 217 209.001 311h-17c-18.667 0 -33.167 -2.66699 -43.5 -8
s-18.666 -14.833 -24.999 -28.5s-11.833 -33.834 -16.5 -60.501c-46.667 -2.66699 -82.334 2.66602 -107.001 15.999c8 40.667 12 93.667 12 159c41.333 -2 112.333 -3 213 -3c86.667 0 152 1 196 3c10.667 -16 16 -37 16 -63c-51.333 -94 -119 -201.667 -203 -323h39
c20.667 0 36.167 3.66699 46.5 11s17.833 19 22.5 35s8 39.333 10 70c35.333 2 68 -1.66699 98 -11c0 -73.333 2.66699 -126 8 -158z" />
    <glyph glyph-name="braceleft" unicode="{" horiz-adv-x="423" 
d="M301 640c-12.667 -20 -18.998 -44 -18.998 -72c0 -19.333 4 -51 12 -95c7.33301 -46.667 11 -78.334 11 -95.001c0 -36 -10.167 -65.333 -30.5 -88s-56.5 -37.334 -108.5 -44.001c52.667 -7.33301 89.167 -23.166 109.5 -47.499s30.5 -55.5 30.5 -93.5
c0 -20.667 -3.33301 -53 -10 -97c-6.66699 -42.667 -10 -73.667 -10 -93c0 -30 6.33301 -55 19 -75s35 -34.333 67 -43c2.66699 -7.33301 4 -16.333 4 -27c0 -19.333 -6 -37 -18 -53c-82.667 12 -140.5 36.167 -173.5 72.5s-50.833 80.5 -53.5 132.5v19c0 22 1 43 3 63
c1.33301 26.667 2 46.334 2 59.001c0 38 -7 69.5 -21 94.5s-40.667 43.5 -80 55.5c0 33.333 1.66699 54 5 62c37.333 12 63 29.5 77 52.5s21 51.167 21 84.5c0 14 -1.33301 35.667 -4 65c-2.66699 30.667 -4 54 -4 70c0 34.667 5.16699 64.5 15.5 89.5
s31.166 47.833 62.499 68.5s77 37 137 49c14 -11.333 21 -34.333 21 -69c-30.667 -10 -52.334 -25 -65.001 -45z" />
    <glyph glyph-name="bar" unicode="|" horiz-adv-x="209" 
d="M112 711.5c18 -3 30.334 -6.50098 37.001 -10.501l-1 -181c-1.33301 -117.333 -2 -212.666 -2 -285.999s0.666992 -170 2 -290l1 -193c-40.667 0 -70.334 3.66699 -89.001 11v954c16.667 0 34 -1.5 52 -4.5z" />
    <glyph glyph-name="braceright" unicode="}" horiz-adv-x="423" 
d="M289 478c-2.66699 -30.667 -3.99707 -52.6689 -3.99707 -66.002c0 -33.333 7 -61.5 21 -84.5s39.667 -40.5 77 -52.5c3.33301 -8 5 -28.667 5 -62c-36.667 -11.333 -62.334 -28.333 -77.001 -51s-22.667 -51 -24 -85v-13c0 -13.333 0.666992 -33.333 2 -60
c2 -21.333 3 -42.333 3 -63c0 -56.667 -15.833 -104.834 -47.5 -144.501s-91.5 -66.167 -179.5 -79.5c-12 16 -18 33.667 -18 53c0 10.667 1.33301 19.667 4 27c32 8.66699 54.333 23 67 43s19 45 19 75c0 19.333 -3.33301 50.333 -10 93c-6.66699 44 -10 76.333 -10 97
c0 38 10.167 69.167 30.5 93.5s56.833 40.166 109.5 47.499c-52 6.66699 -88.167 21.334 -108.5 44.001s-30.5 52 -30.5 88c0 20.667 4 52.334 12 95.001c0.666992 5.33301 2.66699 18.333 6 39s5 39.334 5 56.001c0 28 -6.33301 52 -19 72s-34.334 35 -65.001 45
c0 34.667 7 57.667 21 69c60 -12 105.667 -28.167 137 -48.5s52.166 -43.166 62.499 -68.499s15.5 -55 15.5 -89c0 -16 -1.33301 -39.333 -4 -70z" />
    <glyph glyph-name="asciitilde" unicode="~" horiz-adv-x="660" 
d="M147 339.5c29.333 23 57.333 34.5 84 34.5c19.333 0 37.5 -4.16699 54.5 -12.5s37.833 -20.5 62.5 -36.5c24 -15.333 43 -26.5 57 -33.5s28.667 -10.5 44 -10.5c16.667 0 32.167 5.5 46.5 16.5s30.5 29.833 48.5 56.5c10 -3.33301 20.5 -9.5 31.5 -18.5
s19.167 -17.5 24.5 -25.5c-27.333 -51.333 -54.5 -87.166 -81.5 -107.499s-51.833 -30.5 -74.5 -30.5c-20.667 0 -39.667 4.33301 -57 13s-38 21.667 -62 39c-21.333 15.333 -39 26.666 -53 33.999s-29 11 -45 11c-42.667 0 -80 -29.667 -112 -89
c-28.667 10 -47 25.333 -55 46c28.667 52.667 57.667 90.5 87 113.5z" />
    <glyph glyph-name="nonbreakingspace" unicode="&#xa0;" horiz-adv-x="200" 
 />
    <glyph glyph-name="exclamdown" unicode="&#xa1;" horiz-adv-x="411" 
d="M153 214c24.667 0 44.668 -0.666016 60.001 -1.99902s29.333 -5 42 -11c13.333 -147.333 31.666 -286.333 54.999 -417c-25.333 -2 -53.833 -7 -85.5 -15s-59.5 -17 -83.5 -27c-20.667 4.66699 -31 20.667 -31 48c0 9.33301 1 20.666 3 33.999c14.667 112 28 242 40 390z
M129.001 436.501c18.667 20.333 44 30.501 76 30.501s57.167 -9 75.5 -27s27.5 -42.667 27.5 -74c0 -30.667 -10.167 -54.834 -30.5 -72.501s-46.5 -26.5 -78.5 -26.5c-28.667 0 -52.167 9.33301 -70.5 28s-27.5 40.667 -27.5 66c0 30 9.33301 55.167 28 75.5z" />
    <glyph glyph-name="cent" unicode="&#xa2;" horiz-adv-x="501" 
d="M332 -7l2.00293 -132c-40.667 0 -70.334 3.66699 -89.001 11v122c-68.667 7.33301 -121.667 30.333 -159 69s-56 93.334 -56 164.001c0 38 8.16699 74.167 24.5 108.5s40.666 63.166 72.999 86.499s71.5 37.666 117.5 42.999v141c16.667 0 34 -1.5 52 -4.5
s30.333 -6.5 37 -10.5l-2 -126c50.667 -4.66699 94.667 -17 132 -37c-8.66699 -35.333 -13 -79.333 -13 -132c-25.333 -11.333 -60.333 -17 -105 -17c0 37.333 -5.16699 66 -15.5 86s-24.5 30 -42.5 30c-22.667 0 -40.167 -14.5 -52.5 -43.5s-18.5 -65.833 -18.5 -110.5
c0 -43.333 10.667 -80.5 32 -111.5s53.666 -46.5 96.999 -46.5c40.667 0 74 7.66699 100 23c15.333 -16.667 23 -38 23 -64c-29.333 -27.333 -75 -43.666 -137 -48.999z" />
    <glyph glyph-name="sterling" unicode="&#xa3;" 
d="M553.5 213.5c16.333 -9 27.832 -18.5 34.499 -28.5c-41.333 -58.667 -70.666 -123.334 -87.999 -194.001c-48 0 -90 6.66699 -126 20c-57.333 21.333 -106.666 32 -147.999 32c-58 0 -106.667 -17 -146 -51c-10.667 6.66699 -20 15.834 -28 27.501
s-13.667 24.167 -17 37.5c37.333 24 63.666 50.5 78.999 79.5s23 62.833 23 101.5c0 18 -1.66699 35.333 -5 52l-88 -2c0 35.333 5.33301 63.666 16 84.999h41c-10.667 22 -18.834 42.833 -24.501 62.5s-8.5 43.5 -8.5 71.5c0 54.667 23.833 98 71.5 130
s115.834 48 204.501 48c34 0 70.167 -2.66699 108.5 -8s67.5 -13.333 87.5 -24c-4.66699 -36 -7 -72.333 -7 -109c0 -16.667 0.333008 -29 1 -37c-16.667 -8 -35.167 -13.167 -55.5 -15.5s-44.166 -3.5 -71.499 -3.5c-5.33301 44 -13.5 74.667 -24.5 92s-29.167 26 -54.5 26
c-17.333 0 -30.833 -5.83301 -40.5 -17.5s-14.5 -27.834 -14.5 -48.501c0 -17.333 3 -32.5 9 -45.5s14.667 -27.833 26 -44.5c10.667 -16.667 18.667 -30.167 24 -40.5s9.66602 -22.5 12.999 -36.5h108c0 -36 -5 -64 -15 -84l-98 2
c-15.333 -41.333 -48.333 -88.666 -99 -141.999c65.333 43.333 116.333 65 153 65c15.333 0 31.333 -3.33301 48 -10c9.33301 -4 16.333 -6 21 -6c9.33301 0 17 2.33301 23 7s12.333 13.334 19 26.001c16 -2.66699 32.167 -8.5 48.5 -17.5z" />
    <glyph glyph-name="currency" unicode="&#xa4;" horiz-adv-x="540" 
d="M434 46l-66 63.999c-31.333 -20 -64 -30 -98 -30s-65.667 8.66699 -95 26l-62 -63c-26.667 0.666992 -48.334 10 -65.001 28l76 80c-24.667 32 -37 69 -37 111c0 33.333 8.66699 64 26 92l-75 75c16 18 36.667 28.333 62 31l60 -58c32 22.667 68.667 34 110 34
c37.333 0 70.666 -9.66699 99.999 -29l55 57c14.667 -3.33301 26.334 -7.33301 35.001 -12s17 -12 25 -22l-68 -68c20.667 -29.333 31 -62.666 31 -99.999c0 -40.667 -10.333 -75.667 -31 -105l81 -79c-13.333 -17.333 -34.666 -28 -63.999 -32zM182 209.499
c9.33301 -19 22.166 -34.499 38.499 -46.499s34.166 -18 53.499 -18c28 0 50.667 10.167 68 30.5s26 46.833 26 79.5c0 19.333 -4.66699 38.166 -14 56.499s-22.166 33.333 -38.499 45s-34.166 17.5 -53.499 17.5c-28 0 -50.667 -9.83301 -68 -29.5s-26 -45.5 -26 -77.5
c0 -19.333 4.66699 -38.5 14 -57.5z" />
    <glyph glyph-name="yen" unicode="&#xa5;" horiz-adv-x="620" 
d="M624 678c0 -28.667 -2.99707 -54.332 -8.99707 -76.999c-12.667 -2.66699 -24 -9.66699 -34 -21s-22 -32.333 -36 -63l-58 -129h68c0 -28.667 -3.66699 -54.334 -11 -77.001l-92 1l-27 -59h128c0 -24 -4 -49.667 -12 -77h-118
c1.33301 -27.333 4.66602 -47.666 9.99902 -60.999s14.666 -22.833 27.999 -28.5s33.666 -9.5 60.999 -11.5c4 -13.333 6.66699 -25.333 8 -36s2 -24.667 2 -42c-38.667 2 -110 3 -214 3c-40 0 -93.333 -0.666992 -160 -2l-53 -1c1.33301 35.333 5.33301 61.333 12 78
c32 2 54.833 5.5 68.5 10.5s23.167 14 28.5 27s8.33301 34.167 9 63.5h-139c0 17.333 0.666992 31.833 2 43.5s4.66602 22.834 9.99902 33.501h126l-28 59l-113 -1c0 34 3.66699 59.667 11 77h66l-74 154c-17.333 36 -39.333 55.667 -66 59c-5.33301 19.333 -8 45 -8 77
c32 -1.33301 88 -2 168 -2c84.667 0 140.667 0.666992 168 2c0 -26 -2.33301 -51.667 -7 -77c-22 -2.66699 -33 -13.334 -33 -32.001c0 -9.33301 4.66699 -26.333 14 -51l11 -28c24.667 -60.667 44.334 -111.334 59.001 -152.001c26 66.667 51.333 128.667 76 186
c6 14 9 26.667 9 38c0 24 -12.667 37 -38 39c-6 22 -9 47.667 -9 77c24 -1.33301 58.333 -2 103 -2c40.667 0 71.667 0.666992 93 2z" />
    <glyph glyph-name="brokenbar" unicode="&#xa6;" horiz-adv-x="207" 
d="M147 701c0 -28.667 -0.333008 -52.333 -1 -71l-1 -113l1 -127c0.666992 -24 1 -52.667 1 -86c-34.667 0 -63.667 5.33301 -87 16v397c34 0 63 -5.33301 87 -16zM107.5 179.501c13 -2.33301 26.168 -6.5 39.501 -12.5c0 -34 -0.333008 -62.667 -1 -86l-1 -119
c0 -38.667 0.333008 -70 1 -94l1 -117c-14.667 0 -30.834 1.33301 -48.501 4s-30.5 6.66699 -38.5 12v416c18.667 0 34.5 -1.16699 47.5 -3.5z" />
    <glyph glyph-name="section" unicode="&#xa7;" horiz-adv-x="609" 
d="M520.5 145c-23.667 -26.667 -55.168 -47.332 -94.501 -61.999c24.667 -23.333 42.334 -48.166 53.001 -74.499s16 -56.833 16 -91.5c0 -30.667 -8.66699 -58 -26 -82s-41.5 -42.833 -72.5 -56.5s-66.5 -20.5 -106.5 -20.5c-39.333 0 -72 1.83301 -98 5.5
s-48.333 10.167 -67 19.5c2 18.667 3 41 3 67c0 25.333 -1 47.666 -3 66.999c24 8 51 12 81 12c5.33301 -32 16 -55.667 32 -71s33.667 -23 53 -23c44.667 0 67 14.667 67 44c0 12 -3.5 23.167 -10.5 33.5s-22 22.833 -45 37.5s-57.833 33 -104.5 55
c-59.333 28 -102.166 59.333 -128.499 94s-39.5 75 -39.5 121c0 44.667 11.833 80.334 35.5 107.001s55.167 47.334 94.5 62.001c-24.667 23.333 -42.334 48.166 -53.001 74.499s-16 56.833 -16 91.5c0 30.667 8.66699 58 26 82s41.5 42.833 72.5 56.5
s66.833 20.5 107.5 20.5c38.667 0 71 -1.83301 97 -5.5s48.333 -10.167 67 -19.5c-2 -18.667 -3 -41 -3 -67c0 -25.333 1 -47.666 3 -66.999c-24 -8 -51 -12 -81 -12c-5.33301 32 -16 55.667 -32 71s-33.667 23 -53 23c-44.667 0 -67 -14.667 -67 -44
c0 -12 3.5 -23 10.5 -33s22 -22.333 45 -37s58.167 -33.334 105.5 -56.001c59.333 -28.667 102 -60.334 128 -95.001s39 -74.667 39 -120c0 -44.667 -11.833 -80.334 -35.5 -107.001zM351.999 137.002c30.667 12.667 46 30.667 46 54c0 14 -2.83301 26 -8.5 36
s-18 22 -37 36s-49.5 32.667 -91.5 56l-27 16c-30.667 -12.667 -46 -30.667 -46 -54c0 -14 2.83301 -26 8.5 -36s18 -22 37 -36s49.5 -32.667 91.5 -56z" />
    <glyph glyph-name="dieresis" unicode="&#xa8;" horiz-adv-x="540" 
d="M143.5 650c15.667 17.333 39.167 26.001 70.5 26.001c32.667 0 57 -8 73 -24s24 -37.333 24 -64c0 -23.333 -9 -42.833 -27 -58.5s-40.333 -23.5 -67 -23.5c-28.667 0 -52 7.66699 -70 23s-27 34.333 -27 57c0 25.333 7.83301 46.666 23.5 63.999zM543.5 531.501
c-15 -17 -38.166 -25.499 -69.499 -25.499c-32.667 0 -57.667 8.16699 -75 24.5s-26 38.166 -26 65.499c0 25.333 8.66699 45 26 59s40.666 21 69.999 21c28 0 51.167 -7.66699 69.5 -23s27.5 -34.333 27.5 -57c0 -26 -7.5 -47.5 -22.5 -64.5z" />
    <glyph glyph-name="copyright" unicode="&#xa9;" horiz-adv-x="814" 
d="M581.5 531c53 -30.667 95 -72.5029 126 -125.503s46.5 -111.5 46.5 -175.5c0 -63.333 -15.5 -121.666 -46.5 -174.999s-73 -95.333 -126 -126s-111.167 -46 -174.5 -46c-64.667 0 -123.5 15.333 -176.5 46s-94.667 72.334 -125 125.001s-45.5 111.334 -45.5 176.001
c0 64 15.333 122.5 46 175.5s72.5 94.833 125.5 125.5s111.5 46 175.5 46c63.333 0 121.5 -15.333 174.5 -46zM265.5 472.997c-43 -24.667 -76.834 -58.335 -101.501 -101.002s-37 -90 -37 -142s12.333 -99.333 37 -142s58.334 -76.167 101.001 -100.5s90 -36.5 142 -36.5
s99.333 12.333 142 37s76.334 58.334 101.001 101.001s37 89.667 37 141c0 52 -12.333 99.333 -37 142s-58.334 76.334 -101.001 101.001s-90 37 -142 37c-51.333 0 -98.5 -12.333 -141.5 -37zM559.999 416.996c-4.66699 -28 -6.99902 -68.0029 -6.99902 -120.003
c-19.333 -10 -42.333 -15 -69 -15c-6 68 -29.667 102 -71 102c-20 0 -34.333 -10.667 -43 -32s-13 -55.333 -13 -102c0 -49.333 7 -89.333 21 -120s37 -46 69 -46c31.333 0 60.333 12.333 87 37c8 -5.33301 14.667 -13.166 20 -23.499s8 -21.166 8 -32.499
c-44 -40 -98.333 -60 -163 -60c-36 0 -68.833 8.66699 -98.5 26s-53.334 42.833 -71.001 76.5s-26.5 73.834 -26.5 120.501c0 68 19.5 122.5 58.5 163.5s92.5 61.5 160.5 61.5c48 0 94 -12 138 -36z" />
    <glyph glyph-name="ordfeminine" unicode="&#xaa;" horiz-adv-x="424" 
d="M368 458.5c4.66699 -9 10.999 -13.501 18.999 -13.501c0 -26 -2.66699 -46.667 -8 -62c-50.667 -2.66699 -91.334 -10.667 -122.001 -24c-18.667 6 -28 18.667 -28 38c0 6.66699 1.33301 16 4 28c-6.66699 -16 -15.667 -29 -27 -39
c-19.333 -17.333 -43.666 -26 -72.999 -26c-68.667 0 -103 30.333 -103 91c0 40.667 16.667 70.667 50 90s81 34.333 143 45c0 18.667 -0.666992 32.5 -2 41.5s-4 16.5 -8 22.5c-7.33301 11.333 -18 17 -32 17c-10 0 -17.667 -6.16699 -23 -18.5
s-9.66602 -33.166 -12.999 -62.499c-37.333 0 -65 3 -83 9c0.666992 4.66699 1 12 1 22c0 22 -2 42.333 -6 61c18 11.333 39.167 20.833 63.5 28.5s49.5 11.5 75.5 11.5c38 0 66.833 -3.16699 86.5 -9.5s36.167 -16.833 49.5 -31.5c10.667 -12 18.167 -26.5 22.5 -43.5
s6.5 -40.833 6.5 -71.5v-54c0 -24 2.33301 -40.5 7 -49.5zM174.999 517.999c-8.66699 -8.66699 -13 -23.332 -13 -43.999c0 -22.667 6 -34 18 -34c11.333 0 21.333 7.5 30 22.5s13 35.5 13 61.5v14c-23.333 -4.66699 -39.333 -11.334 -48 -20.001z" />
    <glyph glyph-name="guillemotleft" unicode="&#xab;" horiz-adv-x="504" 
d="M194 268c25.333 -58.667 54.334 -110.331 87.001 -154.998c-7.33301 -10.667 -17.333 -21.334 -30 -32.001s-25.667 -19.334 -39 -26.001l-29 32c-52.667 58 -93.667 100 -123 126c0 30 5.66699 57.333 17 82c44 35.333 88 75.666 132 120.999
c31.333 0 57.666 -8 78.999 -24c-42.667 -49.333 -74 -90.666 -94 -123.999zM409.001 250.003c27.333 -50 53.332 -89.665 77.999 -118.998c-4 -10 -13.667 -21.833 -29 -35.5s-31.666 -24.834 -48.999 -33.501c-38 48 -81.667 95.667 -131 143
c0 30.667 4.33301 60.667 13 90c42 34.667 79.667 72 113 112c37.333 -4.66699 65 -14.334 83 -29.001c-37.333 -58 -63.333 -100.667 -78 -128z" />
    <glyph glyph-name="logicalnot" unicode="&#xac;" horiz-adv-x="555" 
d="M514 125c-14.667 -7.33301 -27.332 -12.5 -37.999 -15.5s-24.334 -4.5 -41.001 -4.5v167c-143.333 0 -280 -1.33301 -410 -4c0 32 4 61.333 12 88h477v-231z" />
    <glyph glyph-name="softhyphen" unicode="&#xad;" horiz-adv-x="419" 
d="M346 229c-122.667 0 -218 -2.66699 -286 -8c0 38.667 5.66699 73.667 17 105h282c0 -38 -4.33301 -70.333 -13 -97z" />
    <glyph glyph-name="registered" unicode="&#xae;" horiz-adv-x="571" 
d="M400 655c34.667 -20 61.833 -47.167 81.5 -81.5s29.5 -72.5 29.5 -114.5s-9.83301 -80.167 -29.5 -114.5s-46.667 -61.333 -81 -81s-72.833 -29.5 -115.5 -29.5c-41.333 0 -79.166 9.83301 -113.499 29.5s-61.5 46.667 -81.5 81s-30 72.5 -30 114.5
c0 41.333 10 79.333 30 114s47.167 62 81.5 82s72.166 30 113.499 30c42 0 80.333 -10 115 -30zM370.999 314c25.333 14.667 45.333 34.6699 60 60.0029s22 53.666 22 84.999s-7.33301 59.833 -22 85.5s-34.667 45.834 -60 60.501s-54 22 -86 22
c-30.667 0 -58.834 -7.33301 -84.501 -22s-45.834 -34.834 -60.501 -60.501s-22 -54.167 -22 -85.5c0 -30.667 7.33301 -58.834 22 -84.501s34.834 -45.834 60.501 -60.501s53.834 -22 84.501 -22c32 0 60.667 7.33301 86 22zM340.999 434.003l44 -73l-65 -6l-32 62l-22 1
v-59h-56v205h83c54 0 81 -22.333 81 -67c0 -28.667 -11 -49.667 -33 -63zM285.999 460.003c16 0 23.999 10.333 23.999 31c0 21.333 -8 32 -24 32c-4 0 -10.667 -1.33301 -20 -4v-55c10.667 -2.66699 17.334 -4 20.001 -4z" />
    <glyph glyph-name="macron" unicode="&#xaf;" horiz-adv-x="540" 
d="M452 573c-135.333 0 -260.333 -3.33398 -375 -10.001c0 29.333 3 52 9 68h375c0 -21.333 -3 -40.666 -9 -57.999z" />
    <glyph glyph-name="degree" unicode="&#xb0;" horiz-adv-x="436" 
d="M332 456c-29.333 -27.333 -67.999 -41 -115.999 -41c-48.667 0 -86.834 13.167 -114.501 39.5s-41.5 60.833 -41.5 103.5c0 26.667 6.66699 50.667 20 72s31.833 38.166 55.5 50.499s50.5 18.5 80.5 18.5c50 0 89.167 -13 117.5 -39s42.5 -59.667 42.5 -101
s-14.667 -75.666 -44 -102.999zM187.001 503.5c11.333 -19 25 -28.501 41 -28.501c11.333 0 20.5 6.16699 27.5 18.5s10.5 30.5 10.5 54.5c0 28.667 -4.83301 51.334 -14.5 68.001s-23.167 25 -40.5 25c-12 0 -21.833 -6.33301 -29.5 -19s-11.5 -27.667 -11.5 -45
c0 -30 5.66699 -54.5 17 -73.5z" />
    <glyph glyph-name="plusminus" unicode="&#xb1;" horiz-adv-x="540" 
d="M232 298l-108.998 -0.999023c-8 -0.666992 -21 -1 -39 -1c0 14 1 29.667 3 47s4.33301 29.666 7 36.999h138c0 52.667 -0.666992 96.667 -2 132c18.667 6.66699 48.667 10 90 10v-142h149c0 -38.667 -3.33301 -66 -10 -82l-69 1l-70 -1v-125
c-6.66699 -2.66699 -19.834 -5 -39.501 -7s-36.834 -3 -51.501 -3zM490.002 51.001l-202.001 0.999023c-68 0 -145 -1 -231 -3c0 14 0.833008 29.333 2.5 46s3.83398 28.334 6.50098 35.001h434c0 -36.667 -3.33301 -63 -10 -79z" />
    <glyph glyph-name="twosuperior" unicode="&#xb2;" horiz-adv-x="387" 
d="M286 527c-33.333 -20.667 -61.001 -40.335 -83.001 -59.002h30c16 0 27.5 1 34.5 3s11.667 5.5 14 10.5s3.83301 13.167 4.5 24.5c32 0 56.333 -2.66699 73 -8v-47c0 -27.333 2 -51.666 6 -72.999c-6 -13.333 -19.333 -20 -40 -20c-16 0 -30 0.333008 -42 1l-88 1
c-45.333 0 -94 -0.666992 -146 -2c-5.33301 8 -9 15.833 -11 23.5s-3 17.167 -3 28.5c11.333 12 30.666 30.333 57.999 55l15 14c32.667 30 55.334 53.667 68.001 71s19 35.333 19 54c0 14.667 -3.33301 26.334 -10 35.001s-15.334 13 -26.001 13
c-6 0 -10.667 -1.83301 -14 -5.5s-6.66602 -11.667 -9.99902 -24s-7 -31.5 -11 -57.5c-33.333 0 -59.666 3.33301 -78.999 10c2 16 3 34.667 3 56c0 26.667 -1.33301 48 -4 64c40.667 14.667 90 22 148 22c42 0 77.667 -7.33301 107 -22s44 -37.667 44 -69
c0 -42 -19 -75 -57 -99z" />
    <glyph glyph-name="threesuperior" unicode="&#xb3;" horiz-adv-x="407" 
d="M334 668c-30.667 -36.667 -65.001 -84.6641 -103.001 -143.997c41.333 0 73.833 -10.167 97.5 -30.5s35.5 -51.5 35.5 -93.5c0 -28.667 -8.16699 -54.667 -24.5 -78s-41.166 -42 -74.499 -56s-74.333 -21 -123 -21c-43.333 0 -79.666 9 -108.999 27
c1.33301 10.667 4.66602 22 9.99902 34s11.333 21.667 18 29c8.66699 -4 20.834 -7.5 36.501 -10.5s32.167 -4.5 49.5 -4.5c25.333 0 45.666 6.16699 60.999 18.5s23 31.166 23 56.499c0 17.333 -5 32.166 -15 44.499s-22.667 18.5 -38 18.5c-8 0 -15.333 -1 -22 -3
c-6 4.66699 -12.167 12.334 -18.5 23.001s-10.5 20.667 -12.5 30c32.667 38 57 70.333 73 97h-40c-13.333 0 -24 -2.83301 -32 -8.5s-15 -15.834 -21 -30.501c-11.333 0 -22.5 1.16699 -33.5 3.5s-18.833 4.83301 -23.5 7.5c8.66699 37.333 13 83.666 13 138.999
c15.333 -0.666992 63 -1 143 -1c66.667 0 106 0.333008 118 1c8 -14 12 -30 12 -48z" />
    <glyph glyph-name="acute" unicode="&#xb4;" horiz-adv-x="540" 
d="M388 719c26.667 0 47.999 -1.33203 63.999 -3.99902c-56 -66.667 -99.333 -128.334 -130 -185.001c-17.333 0 -35.166 2 -53.499 6s-32.833 8.66699 -43.5 14c30 58.667 50.333 110.667 61 156c25.333 8.66699 59.333 13 102 13z" />
    <glyph glyph-name="uni00B5" unicode="&#xb5;" horiz-adv-x="667" 
d="M644 51c-22 -18 -46.833 -32.5029 -74.5 -43.5029s-54.5 -16.5 -80.5 -16.5c-54.667 0 -85.667 26 -93 78c-10 -23.333 -24.833 -41.833 -44.5 -55.5s-42.834 -20.5 -69.501 -20.5c-26 0 -46.667 5.66699 -62 17v-50c0 -65.333 5.33301 -115.666 16 -150.999
c-52.667 -14 -100 -33.667 -142 -59c-12.667 7.33301 -23.5 17.833 -32.5 31.5s-13.833 28.167 -14.5 43.5c8 13.333 13.333 29 16 47s4 53 4 105v464c29.333 0.666992 58.333 3.33398 87 8.00098s51.667 10.667 69 18c22.667 -10 34 -31.333 34 -64v-216
c0 -34.667 3.66699 -58.5 11 -71.5s17.333 -19.5 30 -19.5c20.667 0 38.334 12.833 53.001 38.5s22 62.834 22 111.501v195c29.333 0.666992 58.333 3.33398 87 8.00098s51.667 10.667 69 18c22.667 -10 34 -31.333 34 -64v-175c0 -34.667 1 -60.834 3 -78.501
s4.83301 -29.667 8.5 -36s9.16699 -9.5 16.5 -9.5c8.66699 0 16 3.33301 22 10c14.667 -18.667 25 -39.667 31 -63z" />
    <glyph glyph-name="paragraph" unicode="&#xb6;" horiz-adv-x="630" 
d="M603 681c0 -31.333 -2.66895 -57.668 -8.00195 -79.001c-20 -1.33301 -34.667 -5.16602 -44 -11.499s-15.5 -16.833 -18.5 -31.5s-4.5 -37.334 -4.5 -68.001v-739c-34 0 -60.667 5.66699 -80 17v830c-9.33301 2 -23.333 4.33301 -42 7l1 -854
c-34 0 -60.667 5.33301 -80 16v520c-6 -0.666992 -15.667 -1 -29 -1c-90 0 -156 14.5 -198 43.5s-63 79.167 -63 150.5c0 62.667 24.167 111.834 72.5 147.501s125.5 53.5 231.5 53.5c29.333 0 57.333 -1 84 -3c30.667 -1.33301 52.334 -2 65.001 -2
c54.667 0 92.334 1.33301 113.001 4zM260.998 398.498c18.667 -21.667 40.667 -33.5 66 -35.5v242c-34 -4 -58.167 -15 -72.5 -33s-21.5 -45 -21.5 -81c0 -40 9.33301 -70.833 28 -92.5z" />
    <glyph glyph-name="periodcentered" unicode="&#xb7;" horiz-adv-x="327" 
d="M239 209.5c-18.667 -20.333 -44 -30.501 -76 -30.501s-57.167 9 -75.5 27s-27.5 42.667 -27.5 74c0 30.667 10.167 54.834 30.5 72.501s46.5 26.5 78.5 26.5c28.667 0 52.167 -9.33301 70.5 -28s27.5 -40.667 27.5 -66c0 -30 -9.33301 -55.167 -28 -75.5z" />
    <glyph glyph-name="cedilla" unicode="&#xb8;" horiz-adv-x="540" 
d="M368.5 -76.5c15.667 -17.667 23.5 -38.166 23.5 -61.499c0 -33.333 -15.167 -59 -45.5 -77s-73.833 -27 -130.5 -27c-6 12 -9 29 -9 51c22 0 40.5 3.83301 55.5 11.5s22.5 18.5 22.5 32.5c0 10.667 -5.5 19.5 -16.5 26.5s-24.833 10.5 -41.5 10.5
c-12 14 -18 29.667 -18 47l65 79h74l-45 -59c28 -4.66699 49.833 -15.834 65.5 -33.501z" />
    <glyph glyph-name="onesuperior" unicode="&#xb9;" horiz-adv-x="355" 
d="M259.5 447.5c6.33301 -9 19.5 -14.5 39.5 -16.5c4.66699 -19.333 7 -44 7 -74c-30.667 2 -72 3 -124 3c-54 0 -97 -1 -129 -3c0 30 2.33301 54.667 7 74c20 2 33.167 7.5 39.5 16.5s9.5 26.5 9.5 52.5v63c0 26 -3.5 44.667 -10.5 56s-20.167 18 -39.5 20
c-4 19.333 -6 44.333 -6 75c22 -2 65 -3 129 -3c56.667 0 98 1 124 3c0 -30 -2 -55 -6 -75c-19.333 -2 -32.5 -8.66699 -39.5 -20s-10.5 -30 -10.5 -56v-63c0 -26 3.16699 -43.5 9.5 -52.5z" />
    <glyph glyph-name="ordmasculine" unicode="&#xba;" horiz-adv-x="453" 
d="M370.5 669.5c32.333 -31.667 48.501 -73.834 48.501 -126.501c0 -59.333 -17.5 -105.166 -52.5 -137.499s-83.833 -48.5 -146.5 -48.5c-63.333 0 -110.833 15 -142.5 45s-47.5 72.333 -47.5 127c0 62 18.333 108.833 55 140.5s84 47.5 142 47.5
c63.333 0 111.166 -15.833 143.499 -47.5zM263.001 445.5c7.33301 19 10.999 42.499 10.999 70.499c0 46.667 -5.83301 82.334 -17.5 107.001s-25.167 37 -40.5 37c-13.333 0 -23.666 -9.5 -30.999 -28.5s-11 -43.167 -11 -72.5c0 -40.667 5 -74.5 15 -101.5
s25 -40.5 45 -40.5c12 0 21.667 9.5 29 28.5z" />
    <glyph glyph-name="guillemotright" unicode="&#xbb;" horiz-adv-x="506" 
d="M310 234c-30.667 60 -60.335 111.332 -89.002 153.999c8.66699 6.66699 20.334 12.334 35.001 17.001s29.334 7 44.001 7c40.667 -39.333 83.667 -78.333 129 -117c11.333 -22 17 -48.667 17 -80c-62 -60 -114.333 -114 -157 -162c-29.333 14.667 -50.333 34.667 -63 60
c30.667 38.667 58.667 79 84 121zM91.999 236.999c-16.667 38 -41.666 84.001 -74.999 138.001c8 6 20.167 12.167 36.5 18.5s32.5 10.833 48.5 13.5c21.333 -24 38.5 -42.667 51.5 -56s32.5 -31.666 58.5 -54.999c6 -14 9.83301 -27.667 11.5 -41s2.5 -29.333 2.5 -48
c-42 -44.667 -85 -93 -129 -145c-15.333 7.33301 -29.833 17.166 -43.5 29.499s-23.834 24.166 -30.501 35.499c28.667 37.333 51.667 74 69 110z" />
    <glyph glyph-name="onequarter" unicode="&#xbc;" horiz-adv-x="960" 
d="M98.5 589c-3 8.66699 -9.33203 14.8291 -18.999 18.4961s-25.167 6.5 -46.5 8.5c0 28.667 2.66699 50.334 8 65.001c60 7.33301 118.333 23.333 175 48c11.333 -3.33301 19 -8.66602 23 -15.999s6 -19.666 6 -36.999v-244c0 -22 1.33301 -38 4 -48
s7.66699 -16.833 15 -20.5s19.666 -6.5 36.999 -8.5c4 -10 6 -35.667 6 -77c-26 2 -71.333 3 -136 3c-59.333 0 -103.333 -1 -132 -3c0 28 2.33301 53.667 7 77c18 2 30.833 4.66699 38.5 8s12.667 9.5 15 18.5s3.5 24.167 3.5 45.5v121c0 18.667 -1.5 32.334 -4.5 41.001z
M225.001 -1.00488c-17.333 5.33301 -29 11.667 -35 19l514 699c14.667 0 30 -2.83301 46 -8.5s28.667 -12.5 38 -20.5l-512 -697c-16.667 0 -33.667 2.66699 -51 8zM919.001 120.996l-62.002 0.00390625c2 -18.667 6.66699 -31 14 -37s19.666 -9.33301 36.999 -10
c4 -18 6 -43.333 6 -76c-25.333 1.33301 -71.666 2 -138.999 2c-62.667 -0 -106 -0.666992 -130 -2c0 36 2.33301 61.333 7 76c20.667 1.33301 35.667 4.83301 45 10.5s15.333 17.167 18 34.5c-71.333 -0.666992 -126.666 -2.33398 -165.999 -5.00098
c-5.33301 5.33301 -10.833 15.666 -16.5 30.999s-8.5 27.666 -8.5 36.999c84.667 96 159.334 186 224.001 270c10.667 1.33301 20 2 28 2c33.333 0 60 -3.33301 80 -10v-214h38c12 0 21 -1.66699 27 -5s11.333 -9.33301 16 -18
c-6.66699 -12.667 -12.667 -41.334 -18 -86.001zM648.999 230h68v89z" />
    <glyph glyph-name="onehalf" unicode="&#xbd;" horiz-adv-x="1020" 
d="M98.5 589c-3 8.66699 -9.33203 14.8291 -18.999 18.4961s-25.167 6.5 -46.5 8.5c0 28.667 2.66699 50.334 8 65.001c60 7.33301 118.333 23.333 175 48c11.333 -3.33301 19 -8.66602 23 -15.999s6 -19.666 6 -36.999v-244c0 -22 1.33301 -38 4 -48
s7.66699 -16.833 15 -20.5s19.666 -6.5 36.999 -8.5c4 -10 6 -35.667 6 -77c-26 2 -71.333 3 -136 3c-59.333 0 -103.333 -1 -132 -3c0 28 2.33301 53.667 7 77c18 2 30.833 4.66699 38.5 8s12.667 9.5 15 18.5s3.5 24.167 3.5 45.5v121c0 18.667 -1.5 32.334 -4.5 41.001z
M225.001 -1.00488c-17.333 5.33301 -29 11.667 -35 19l514 699c14.667 0 30 -2.83301 46 -8.5s28.667 -12.5 38 -20.5l-512 -697c-16.667 0 -33.667 2.66699 -51 8zM945.001 266.996c-18 -24 -43.9971 -47.666 -77.9971 -70.999c-26.667 -18.667 -51 -38 -73 -58h65
c20.667 0 34.334 2.33301 41.001 7s10.667 15 12 31c35.333 0 60 -2.33301 74 -7v-33c0 -58.667 2.33301 -96.667 7 -114c-8.66699 -15.333 -25.334 -23 -50.001 -23l-123 1l-158 -1c-15.333 21.333 -23 49 -23 83c11.333 14 29.666 33.667 54.999 59l38 38
c29.333 29.333 50 55.166 62 77.499s18 44.5 18 66.5c0 42.667 -10.333 64 -31 64c-28.667 0 -45.334 -34.333 -50.001 -103c-20.667 0 -36.834 0.833008 -48.501 2.5s-24.5 5.5 -38.5 11.5c8 36 11.333 75.667 10 119c36 21.333 90 32 162 32c104 0 156 -35 156 -105
c0 -27.333 -9 -53 -27 -77z" />
    <glyph glyph-name="threequarters" unicode="&#xbe;" horiz-adv-x="938" 
d="M323.5 706c2.33301 -9.33301 3.50195 -18.666 3.50195 -27.999c-36 -43.333 -70.333 -88.666 -103 -135.999c40.667 -4.66699 71.667 -14.667 93 -30s32 -42.666 32 -81.999c0 -48 -17.833 -86.167 -53.5 -114.5s-82.834 -42.5 -141.501 -42.5
c-28 0 -51.833 3.5 -71.5 10.5s-34.167 14.833 -43.5 23.5c-1.33301 21.333 2.33398 38.333 11.001 51c24.667 -13.333 52 -20 82 -20c23.333 0 41.166 5.66699 53.499 17s18.5 26.666 18.5 45.999c0 15.333 -4.83301 27.666 -14.5 36.999s-21.5 14 -35.5 14
c-12.667 0 -21.667 -1.33301 -27 -4c-14 14 -22.333 32.667 -25 56c30.667 30.667 57.334 63 80.001 97h-32c-12 0 -22.167 -2.83301 -30.5 -8.5s-15.5 -15.834 -21.5 -30.501c-26 0 -45 3.66699 -57 11c4 16 7.33301 41 10 75s3.66699 60 3 78
c33.333 -1.33301 80.666 -2 141.999 -2l91 1c8 0.666992 17.333 1 28 1c3.33301 -4 6.16602 -10.667 8.49902 -20zM203.002 -1c-17.333 5.33301 -29 11.667 -35 19l514 699c14.667 0 30 -2.83301 46 -8.5s28.667 -12.5 38 -20.5l-512 -697c-16.667 0 -33.667 2.66699 -51 8z
M897.002 121.001l-62.002 0.00390625c2 -18.667 6.66699 -31 14 -37s19.666 -9.33301 36.999 -10c4 -18 6 -43.333 6 -76c-25.333 1.33301 -71.666 2 -138.999 2c-62.667 0 -106 -0.666992 -130 -2c0 36 2.33301 61.333 7 76c20.667 1.33301 35.667 4.83301 45 10.5
s15.333 17.167 18 34.5c-71.333 -0.666992 -126.666 -2.33398 -165.999 -5.00098c-5.33301 5.33301 -10.833 15.666 -16.5 30.999s-8.5 27.666 -8.5 36.999c84.667 96 159.334 186 224.001 270c10.667 1.33301 20 2 28 2c33.333 0 60 -3.33301 80 -10v-214h38
c12 0 21 -1.66699 27 -5s11.333 -9.33301 16 -18c-6.66699 -12.667 -12.667 -41.334 -18 -86.001zM627 230.005h68v89z" />
    <glyph glyph-name="questiondown" unicode="&#xbf;" horiz-adv-x="537" 
d="M81.5 -227c-31 21.333 -46.499 51.335 -46.499 90.002c0 33.333 7.33301 60.333 22 81s36 42.667 64 66c26 22 45.333 41.5 58 58.5s19 38.5 19 64.5c0 25.333 -5 53 -15 83c10.667 6 24.5 10.667 41.5 14s33.167 5 48.5 5c16.667 -10 30.834 -27.333 42.501 -52
s17.5 -50 17.5 -76c0 -29.333 -5 -52.833 -15 -70.5s-24.667 -36.5 -44 -56.5c-17.333 -18.667 -29.833 -34.334 -37.5 -47.001s-11.5 -29 -11.5 -49c0 -22.667 4.16699 -39.334 12.5 -50.001s19.166 -16 32.499 -16c14 0 25.667 9.5 35 28.5s16.666 54.167 21.999 105.5
c40 0 74 -7.66699 102 -23c-2 -25.333 -3 -51.333 -3 -78c0 -23.333 1 -45 3 -65c-64 -30 -133 -45 -207 -45c-62.667 0 -109.5 10.667 -140.5 32zM158.001 435.502c18.667 20.333 44 30.501 76 30.501s57.167 -9 75.5 -27s27.5 -42.667 27.5 -74
c0 -30.667 -10.167 -54.834 -30.5 -72.501s-46.5 -26.5 -78.5 -26.5c-28.667 0 -52.167 9.33301 -70.5 28s-27.5 40.667 -27.5 66c0 30 9.33301 55.167 28 75.5z" />
    <glyph glyph-name="Agrave" unicode="&#xc0;" horiz-adv-x="717" 
d="M707 -3c-26.667 2 -78.999 3.00098 -156.999 3.00098c-92 0 -150.667 -1 -176 -3c0 30.667 2.66699 56.667 8 78c28 6.66699 42 19 42 37c0 9.33301 -3.66699 22.333 -11 39l-7 15c-87.333 0 -163 -3.33301 -227 -10l-2 -4c-3.33301 -8.66699 -5 -17.334 -5 -26.001
c0 -12.667 3.5 -23.667 10.5 -33s17.833 -15.333 32.5 -18c5.33301 -22.667 8 -48.667 8 -78c-22.667 2 -61.667 3 -117 3c-44 0 -76 -1 -96 -3c0 31.333 3.33301 57.333 10 78c16 3.33301 29.167 11.5 39.5 24.5s23.833 38.5 40.5 76.5l212 500c17.333 4 42.666 6 75.999 6
l222 -487c16 -34.667 28.667 -60.167 38 -76.5s17.5 -27.333 24.5 -33s15.833 -9.16699 26.5 -10.5c5.33301 -18 8 -44 8 -78zM340.001 316.001c-22 49.333 -39 95.333 -51 138c-12 -43.333 -28 -89.333 -48 -138l-33 -85h170zM259.001 832.501
c-18.667 22.333 -41.666 45.833 -68.999 70.5c51.333 21.333 106 32 164 32c17.333 -56.667 40.333 -112 69 -166c-25.333 -12 -59.333 -18 -102 -18c-22.667 32 -43.334 59.167 -62.001 81.5z" />
    <glyph glyph-name="Aacute" unicode="&#xc1;" horiz-adv-x="717" 
d="M707 -3c-26.667 2 -78.999 3.00098 -156.999 3.00098c-92 0 -150.667 -1 -176 -3c0 30.667 2.66699 56.667 8 78c28 6.66699 42 19 42 37c0 9.33301 -3.66699 22.333 -11 39l-7 15c-87.333 0 -163 -3.33301 -227 -10l-2 -4c-3.33301 -8.66699 -5 -17.334 -5 -26.001
c0 -12.667 3.5 -23.667 10.5 -33s17.833 -15.333 32.5 -18c5.33301 -22.667 8 -48.667 8 -78c-22.667 2 -61.667 3 -117 3c-44 0 -76 -1 -96 -3c0 31.333 3.33301 57.333 10 78c16 3.33301 29.167 11.5 39.5 24.5s23.833 38.5 40.5 76.5l212 500c17.333 4 42.666 6 75.999 6
l222 -487c16 -34.667 28.667 -60.167 38 -76.5s17.5 -27.333 24.5 -33s15.833 -9.16699 26.5 -10.5c5.33301 -18 8 -44 8 -78zM340.001 316.001c-22 49.333 -39 95.333 -51 138c-12 -43.333 -28 -89.333 -48 -138l-33 -85h170zM457.001 937.001
c26.667 0 47.999 -1.33203 63.999 -3.99902c-56 -66.667 -99.333 -128.334 -130 -185.001c-17.333 0 -35.166 2 -53.499 6s-32.833 8.66699 -43.5 14c30 58.667 50.333 110.667 61 156c25.333 8.66699 59.333 13 102 13z" />
    <glyph glyph-name="Acircumflex" unicode="&#xc2;" horiz-adv-x="717" 
d="M707 -3c-26.667 2 -78.999 3.00098 -156.999 3.00098c-92 0 -150.667 -1 -176 -3c0 30.667 2.66699 56.667 8 78c28 6.66699 42 19 42 37c0 9.33301 -3.66699 22.333 -11 39l-7 15c-87.333 0 -163 -3.33301 -227 -10l-2 -4c-3.33301 -8.66699 -5 -17.334 -5 -26.001
c0 -12.667 3.5 -23.667 10.5 -33s17.833 -15.333 32.5 -18c5.33301 -22.667 8 -48.667 8 -78c-22.667 2 -61.667 3 -117 3c-44 0 -76 -1 -96 -3c0 31.333 3.33301 57.333 10 78c16 3.33301 29.167 11.5 39.5 24.5s23.833 38.5 40.5 76.5l212 500c17.333 4 42.666 6 75.999 6
l222 -487c16 -34.667 28.667 -60.167 38 -76.5s17.5 -27.333 24.5 -33s15.833 -9.16699 26.5 -10.5c5.33301 -18 8 -44 8 -78zM340.001 316.001c-22 49.333 -39 95.333 -51 138c-12 -43.333 -28 -89.333 -48 -138l-33 -85h170zM404.001 941.001
c43.333 -52 96.6689 -104.332 160.002 -156.999c-24 -27.333 -54 -44.333 -90 -51c-42.667 31.333 -87.334 59 -134.001 83c-18.667 -10 -40.834 -23.167 -66.501 -39.5s-46.5 -30.833 -62.5 -43.5c-14.667 3.33301 -27.667 10.666 -39 21.999s-19 23 -23 35
c69.333 46.667 125.333 92 168 136c26.667 10 55.667 15 87 15z" />
    <glyph glyph-name="Atilde" unicode="&#xc3;" horiz-adv-x="717" 
d="M707 -3c-26.667 2 -78.999 3.00098 -156.999 3.00098c-92 0 -150.667 -1 -176 -3c0 30.667 2.66699 56.667 8 78c28 6.66699 42 19 42 37c0 9.33301 -3.66699 22.333 -11 39l-7 15c-87.333 0 -163 -3.33301 -227 -10l-2 -4c-3.33301 -8.66699 -5 -17.334 -5 -26.001
c0 -12.667 3.5 -23.667 10.5 -33s17.833 -15.333 32.5 -18c5.33301 -22.667 8 -48.667 8 -78c-22.667 2 -61.667 3 -117 3c-44 0 -76 -1 -96 -3c0 31.333 3.33301 57.333 10 78c16 3.33301 29.167 11.5 39.5 24.5s23.833 38.5 40.5 76.5l212 500c17.333 4 42.666 6 75.999 6
l222 -487c16 -34.667 28.667 -60.167 38 -76.5s17.5 -27.333 24.5 -33s15.833 -9.16699 26.5 -10.5c5.33301 -18 8 -44 8 -78zM340.001 316.001c-22 49.333 -39 95.333 -51 138c-12 -43.333 -28 -89.333 -48 -138l-33 -85h170zM292.001 905.001
c15.333 0 29.167 -1.83301 41.5 -5.5s27.166 -9.5 44.499 -17.5c14.667 -6 26.5 -10.5 35.5 -13.5s18.5 -4.5 28.5 -4.5c34 0 62 11 84 33c22.667 -14 37.334 -31.333 44.001 -52c-22 -44.667 -44.5 -77.5 -67.5 -98.5s-49.5 -31.5 -79.5 -31.5c-16.667 0 -31.167 2 -43.5 6
s-26.5 10 -42.5 18c-15.333 6.66699 -27.833 11.667 -37.5 15s-20.5 5 -32.5 5c-36 0 -69.667 -13.667 -101 -41c-20.667 17.333 -32.667 38.333 -36 63c51.333 82.667 105.333 124 162 124z" />
    <glyph glyph-name="Adieresis" unicode="&#xc4;" horiz-adv-x="717" 
d="M707 -3c-26.667 2 -78.999 3.00098 -156.999 3.00098c-92 0 -150.667 -1 -176 -3c0 30.667 2.66699 56.667 8 78c28 6.66699 42 19 42 37c0 9.33301 -3.66699 22.333 -11 39l-7 15c-87.333 0 -163 -3.33301 -227 -10l-2 -4c-3.33301 -8.66699 -5 -17.334 -5 -26.001
c0 -12.667 3.5 -23.667 10.5 -33s17.833 -15.333 32.5 -18c5.33301 -22.667 8 -48.667 8 -78c-22.667 2 -61.667 3 -117 3c-44 0 -76 -1 -96 -3c0 31.333 3.33301 57.333 10 78c16 3.33301 29.167 11.5 39.5 24.5s23.833 38.5 40.5 76.5l212 500c17.333 4 42.666 6 75.999 6
l222 -487c16 -34.667 28.667 -60.167 38 -76.5s17.5 -27.333 24.5 -33s15.833 -9.16699 26.5 -10.5c5.33301 -18 8 -44 8 -78zM340.001 316.001c-22 49.333 -39 95.333 -51 138c-12 -43.333 -28 -89.333 -48 -138l-33 -85h170zM151.501 868.001
c15.667 17.333 39.167 26.001 70.5 26.001c32.667 0 57 -8 73 -24s24 -37.333 24 -64c0 -23.333 -9 -42.833 -27 -58.5s-40.333 -23.5 -67 -23.5c-28.667 0 -52 7.66699 -70 23s-27 34.333 -27 57c0 25.333 7.83301 46.666 23.5 63.999zM551.501 749.502
c-15 -17 -38.166 -25.499 -69.499 -25.499c-32.667 0 -57.667 8.16699 -75 24.5s-26 38.166 -26 65.499c0 25.333 8.66699 45 26 59s40.666 21 69.999 21c28 0 51.167 -7.66699 69.5 -23s27.5 -34.333 27.5 -57c0 -26 -7.5 -47.5 -22.5 -64.5z" />
    <glyph glyph-name="Aring" unicode="&#xc5;" horiz-adv-x="717" 
d="M707 -3c-26.667 2 -78.999 3.00098 -156.999 3.00098c-92 0 -150.667 -1 -176 -3c0 30.667 2.66699 56.667 8 78c28 6.66699 42 19 42 37c0 9.33301 -3.66699 22.333 -11 39l-7 15c-87.333 0 -163 -3.33301 -227 -10l-2 -4c-3.33301 -8.66699 -5 -17.334 -5 -26.001
c0 -12.667 3.5 -23.667 10.5 -33s17.833 -15.333 32.5 -18c5.33301 -22.667 8 -48.667 8 -78c-22.667 2 -61.667 3 -117 3c-44 0 -76 -1 -96 -3c0 31.333 3.33301 57.333 10 78c16 3.33301 29.167 11.5 39.5 24.5s23.833 38.5 40.5 76.5l212 500c17.333 4 42.666 6 75.999 6
l222 -487c16 -34.667 28.667 -60.167 38 -76.5s17.5 -27.333 24.5 -33s15.833 -9.16699 26.5 -10.5c5.33301 -18 8 -44 8 -78zM340.001 316.001c-22 49.333 -39 95.333 -51 138c-12 -43.333 -28 -89.333 -48 -138l-33 -85h170zM449.501 921.501
c24.333 -17 36.501 -42.501 36.501 -76.501c0 -33.333 -13.167 -60.166 -39.5 -80.499s-60.833 -30.5 -103.5 -30.5c-38 0 -69.333 9.16699 -94 27.5s-37 43.5 -37 75.5c0 33.333 13.167 60 39.5 80s60.5 30 102.5 30c39.333 0 71.166 -8.5 95.499 -25.5zM374.002 805.5
c6 7.66699 9 18.167 9 31.5c0 14 -3.16699 26.667 -9.5 38s-15.5 17 -27.5 17c-9.33301 0 -16.666 -4.33301 -21.999 -13s-8 -20.667 -8 -36c0 -14.667 3.16699 -26.5 9.5 -35.5s15.166 -13.5 26.499 -13.5c8.66699 0 16 3.83301 22 11.5z" />
    <glyph glyph-name="AE" unicode="&#xc6;" horiz-adv-x="1066" 
d="M994 -2c-65.333 1.33301 -159.669 1.99707 -283.002 1.99707c-153.333 0 -249 -1 -287 -3c0 32.667 2.66699 58.667 8 78c18.667 1.33301 32.5 5 41.5 11s15.333 16.5 19 31.5s5.5 38.167 5.5 69.5v95c-85.333 -3.33301 -146.333 -7.66602 -183 -12.999l-55 -99
c-11.333 -21.333 -17 -39 -17 -53c0 -22.667 15.333 -36.667 46 -42c6.66699 -16 10 -42 10 -78c-30.667 2 -70 3 -118 3c-68 0 -112 -1 -132 -3c0 36 3.33301 62 10 78c23.333 3.33301 41.333 9.83301 54 19.5s27.334 28.834 44.001 57.501l213 367
c12 21.333 18 37.666 18 48.999c0 18.667 -15.667 29.667 -47 33c-2.66699 6 -5.5 17.667 -8.5 35s-4.5 31.333 -4.5 42c69.333 -1.33301 138.666 -2 207.999 -2h136c132.667 0 230.334 1 293.001 3c0 -58.667 7 -118 21 -178c-6.66699 -5.33301 -21 -9.66602 -43 -12.999
s-41.333 -5 -58 -5c-7.33301 40 -20.666 69.667 -39.999 89s-52 29 -98 29h-49v-249h11c20.667 0 35.667 1.66699 45 5s16 10.333 20 21s6.33301 27.334 7 50.001c10.667 4 24.334 7.16699 41.001 9.5s32 3.5 46 3.5c-2 -32 -3 -71.667 -3 -119c0 -50.667 1 -90.667 3 -120
c-44 0 -72.667 3 -86 9c-1.33301 22.667 -4 39 -8 49s-10.833 16.833 -20.5 20.5s-24.5 5.5 -44.5 5.5h-11v-94c0 -32 2.33301 -56.333 7 -73s12.5 -28.167 23.5 -34.5s26.833 -9.5 47.5 -9.5h17c22.667 0 41.167 3.83301 55.5 11.5s27.166 21 38.499 40s24 47.167 38 84.5
c52 -8.66699 85.333 -20 100 -34c-16.667 -50 -27 -109.667 -31 -179zM497.997 539.997c0 16 1 34 3 54c-7.33301 -15.333 -16 -31.333 -26 -48l-112 -194h135v188z" />
    <glyph glyph-name="Ccedilla" unicode="&#xc7;" horiz-adv-x="634" 
d="M466.5 -76.5c15.667 -17.667 23.5 -38.165 23.5 -61.498c0 -33.333 -15.167 -59 -45.5 -77s-73.833 -27 -130.5 -27c-6 12 -9 29 -9 51c22 0 40.5 3.83301 55.5 11.5s22.5 18.5 22.5 32.5c0 10.667 -5.5 19.5 -16.5 26.5s-24.833 10.5 -41.5 10.5
c-12 14 -18 29.667 -18 47l45 55c-63.333 4 -119 21.167 -167 51.5s-85 71.166 -111 122.499s-39 109.666 -39 174.999c0 72.667 15.833 135 47.5 187s73.667 91.167 126 117.5s109.166 39.5 170.499 39.5c74 0 147.333 -17.333 220 -52c-7.33301 -42 -11 -93.667 -11 -155
c-8 -4.66699 -22 -8.16699 -42 -10.5s-39 -3.5 -57 -3.5c-0.666992 96 -36 144 -106 144c-50 0 -86.333 -22.667 -109 -68s-34 -103 -34 -173c0 -85.333 16.333 -153.666 49 -204.999s82.334 -77 149.001 -77c48.667 0 98 14 148 42c14 -12 23.333 -30.333 28 -55
c-49.333 -43.333 -111 -69.333 -185 -78l-28 -37c28 -4.66699 49.833 -15.834 65.5 -33.501z" />
    <glyph glyph-name="Egrave" unicode="&#xc8;" horiz-adv-x="646" 
d="M590 198.5c18.667 -6.33301 32.3301 -13.499 40.9971 -21.499c-15.333 -46 -25.666 -105.667 -30.999 -179c-78.667 1.33301 -165.667 2 -261 2c-114 0 -217 -1 -309 -3c0 32 2.66699 58 8 78c18.667 1.33301 32.5 5 41.5 11s15.333 16.5 19 31.5s5.5 38.167 5.5 69.5
v304c0 30.667 -1.66699 53.167 -5 67.5s-9.5 24.333 -18.5 30s-23.5 9.83398 -43.5 12.501c-4.66699 18.667 -7 44.667 -7 78c62 -2 152.333 -3 271 -3c124 0 214 1 270 3c0.666992 -28.667 2.83398 -60 6.50098 -94s8.5 -62 14.5 -84c-31.333 -12 -65 -18 -101 -18
c-7.33301 40 -20.666 69.667 -39.999 89s-52 29 -98 29h-49v-227h1c31.333 0 52.5 5.16699 63.5 15.5s16.833 28.833 17.5 55.5c20.667 8 50 12 88 12c-2.66699 -42.667 -4 -81.667 -4 -117c0 -40.667 1.33301 -80.334 4 -119.001c-38 0 -66.667 3.33301 -86 10
c-2.66699 27.333 -9.66699 45.5 -21 54.5s-32 13.5 -62 13.5h-1v-107c0 -31.333 2.33301 -55.333 7 -72s12.5 -28.334 23.5 -35.001s26.833 -10 47.5 -10h17c34 0 60.833 10.5 80.5 31.5s36.167 55.833 49.5 104.5c22 -2 42.333 -6.16699 61 -12.5zM222.996 832.501
c-18.667 22.333 -41.666 45.833 -68.999 70.5c51.333 21.333 106 32 164 32c17.333 -56.667 40.333 -112 69 -166c-25.333 -12 -59.333 -18 -102 -18c-22.667 32 -43.334 59.167 -62.001 81.5z" />
    <glyph glyph-name="Eacute" unicode="&#xc9;" horiz-adv-x="646" 
d="M590 198.5c18.667 -6.33301 32.3301 -13.499 40.9971 -21.499c-15.333 -46 -25.666 -105.667 -30.999 -179c-78.667 1.33301 -165.667 2 -261 2c-114 0 -217 -1 -309 -3c0 32 2.66699 58 8 78c18.667 1.33301 32.5 5 41.5 11s15.333 16.5 19 31.5s5.5 38.167 5.5 69.5
v304c0 30.667 -1.66699 53.167 -5 67.5s-9.5 24.333 -18.5 30s-23.5 9.83398 -43.5 12.501c-4.66699 18.667 -7 44.667 -7 78c62 -2 152.333 -3 271 -3c124 0 214 1 270 3c0.666992 -28.667 2.83398 -60 6.50098 -94s8.5 -62 14.5 -84c-31.333 -12 -65 -18 -101 -18
c-7.33301 40 -20.666 69.667 -39.999 89s-52 29 -98 29h-49v-227h1c31.333 0 52.5 5.16699 63.5 15.5s16.833 28.833 17.5 55.5c20.667 8 50 12 88 12c-2.66699 -42.667 -4 -81.667 -4 -117c0 -40.667 1.33301 -80.334 4 -119.001c-38 0 -66.667 3.33301 -86 10
c-2.66699 27.333 -9.66699 45.5 -21 54.5s-32 13.5 -62 13.5h-1v-107c0 -31.333 2.33301 -55.333 7 -72s12.5 -28.334 23.5 -35.001s26.833 -10 47.5 -10h17c34 0 60.833 10.5 80.5 31.5s36.167 55.833 49.5 104.5c22 -2 42.333 -6.16699 61 -12.5zM420.996 937.001
c26.667 0 47.999 -1.33203 63.999 -3.99902c-56 -66.667 -99.333 -128.334 -130 -185.001c-17.333 0 -35.166 2 -53.499 6s-32.833 8.66699 -43.5 14c30 58.667 50.333 110.667 61 156c25.333 8.66699 59.333 13 102 13z" />
    <glyph glyph-name="Ecircumflex" unicode="&#xca;" horiz-adv-x="646" 
d="M590 198.5c18.667 -6.33301 32.3301 -13.499 40.9971 -21.499c-15.333 -46 -25.666 -105.667 -30.999 -179c-78.667 1.33301 -165.667 2 -261 2c-114 0 -217 -1 -309 -3c0 32 2.66699 58 8 78c18.667 1.33301 32.5 5 41.5 11s15.333 16.5 19 31.5s5.5 38.167 5.5 69.5
v304c0 30.667 -1.66699 53.167 -5 67.5s-9.5 24.333 -18.5 30s-23.5 9.83398 -43.5 12.501c-4.66699 18.667 -7 44.667 -7 78c62 -2 152.333 -3 271 -3c124 0 214 1 270 3c0.666992 -28.667 2.83398 -60 6.50098 -94s8.5 -62 14.5 -84c-31.333 -12 -65 -18 -101 -18
c-7.33301 40 -20.666 69.667 -39.999 89s-52 29 -98 29h-49v-227h1c31.333 0 52.5 5.16699 63.5 15.5s16.833 28.833 17.5 55.5c20.667 8 50 12 88 12c-2.66699 -42.667 -4 -81.667 -4 -117c0 -40.667 1.33301 -80.334 4 -119.001c-38 0 -66.667 3.33301 -86 10
c-2.66699 27.333 -9.66699 45.5 -21 54.5s-32 13.5 -62 13.5h-1v-107c0 -31.333 2.33301 -55.333 7 -72s12.5 -28.334 23.5 -35.001s26.833 -10 47.5 -10h17c34 0 60.833 10.5 80.5 31.5s36.167 55.833 49.5 104.5c22 -2 42.333 -6.16699 61 -12.5zM367.996 941.001
c43.333 -52 96.6689 -104.332 160.002 -156.999c-24 -27.333 -54 -44.333 -90 -51c-42.667 31.333 -87.334 59 -134.001 83c-18.667 -10 -40.834 -23.167 -66.501 -39.5s-46.5 -30.833 -62.5 -43.5c-14.667 3.33301 -27.667 10.666 -39 21.999s-19 23 -23 35
c69.333 46.667 125.333 92 168 136c26.667 10 55.667 15 87 15z" />
    <glyph glyph-name="Edieresis" unicode="&#xcb;" horiz-adv-x="646" 
d="M590 198.5c18.667 -6.33301 32.3301 -13.499 40.9971 -21.499c-15.333 -46 -25.666 -105.667 -30.999 -179c-78.667 1.33301 -165.667 2 -261 2c-114 0 -217 -1 -309 -3c0 32 2.66699 58 8 78c18.667 1.33301 32.5 5 41.5 11s15.333 16.5 19 31.5s5.5 38.167 5.5 69.5
v304c0 30.667 -1.66699 53.167 -5 67.5s-9.5 24.333 -18.5 30s-23.5 9.83398 -43.5 12.501c-4.66699 18.667 -7 44.667 -7 78c62 -2 152.333 -3 271 -3c124 0 214 1 270 3c0.666992 -28.667 2.83398 -60 6.50098 -94s8.5 -62 14.5 -84c-31.333 -12 -65 -18 -101 -18
c-7.33301 40 -20.666 69.667 -39.999 89s-52 29 -98 29h-49v-227h1c31.333 0 52.5 5.16699 63.5 15.5s16.833 28.833 17.5 55.5c20.667 8 50 12 88 12c-2.66699 -42.667 -4 -81.667 -4 -117c0 -40.667 1.33301 -80.334 4 -119.001c-38 0 -66.667 3.33301 -86 10
c-2.66699 27.333 -9.66699 45.5 -21 54.5s-32 13.5 -62 13.5h-1v-107c0 -31.333 2.33301 -55.333 7 -72s12.5 -28.334 23.5 -35.001s26.833 -10 47.5 -10h17c34 0 60.833 10.5 80.5 31.5s36.167 55.833 49.5 104.5c22 -2 42.333 -6.16699 61 -12.5zM115.496 868.001
c15.667 17.333 39.167 26.001 70.5 26.001c32.667 0 57 -8 73 -24s24 -37.333 24 -64c0 -23.333 -9 -42.833 -27 -58.5s-40.333 -23.5 -67 -23.5c-28.667 0 -52 7.66699 -70 23s-27 34.333 -27 57c0 25.333 7.83301 46.666 23.5 63.999zM515.496 749.502
c-15 -17 -38.166 -25.499 -69.499 -25.499c-32.667 0 -57.667 8.16699 -75 24.5s-26 38.166 -26 65.499c0 25.333 8.66699 45 26 59s40.666 21 69.999 21c28 0 51.167 -7.66699 69.5 -23s27.5 -34.333 27.5 -57c0 -26 -7.5 -47.5 -22.5 -64.5z" />
    <glyph glyph-name="Igrave" unicode="&#xcc;" horiz-adv-x="408" 
d="M99.5 559c-3 14 -8.83398 23.8311 -17.501 29.498s-23 9.83398 -43 12.501c-6 24 -9 50 -9 78c33.333 -2 93 -3 179 -3c72.667 0 129 1 169 3c0 -34.667 -3 -60.667 -9 -78c-19.333 -2 -33.333 -5.83301 -42 -11.5s-14.667 -15.667 -18 -30s-5 -37.166 -5 -68.499v-304
c0 -31.333 1.83301 -54.5 5.5 -69.5s10 -25.5 19 -31.5s22.833 -9.66699 41.5 -11c5.33301 -19.333 8 -45.333 8 -78c-30 2 -83 3 -159 3c-78.667 0 -141.667 -1 -189 -3c0 26.667 3.33301 52.667 10 78c18.667 1.33301 32.334 5 41.001 11s14.667 16.333 18 31s5 38 5 70
v304c0 31.333 -1.5 54 -4.5 68zM112.999 832.498c-18.667 22.333 -41.666 45.833 -68.999 70.5c51.333 21.333 106 32 164 32c17.333 -56.667 40.333 -112 69 -166c-25.333 -12 -59.333 -18 -102 -18c-22.667 32 -43.334 59.167 -62.001 81.5z" />
    <glyph glyph-name="Iacute" unicode="&#xcd;" horiz-adv-x="408" 
d="M99.5 559c-3 14 -8.83398 23.8311 -17.501 29.498s-23 9.83398 -43 12.501c-6 24 -9 50 -9 78c33.333 -2 93 -3 179 -3c72.667 0 129 1 169 3c0 -34.667 -3 -60.667 -9 -78c-19.333 -2 -33.333 -5.83301 -42 -11.5s-14.667 -15.667 -18 -30s-5 -37.166 -5 -68.499v-304
c0 -31.333 1.83301 -54.5 5.5 -69.5s10 -25.5 19 -31.5s22.833 -9.66699 41.5 -11c5.33301 -19.333 8 -45.333 8 -78c-30 2 -83 3 -159 3c-78.667 0 -141.667 -1 -189 -3c0 26.667 3.33301 52.667 10 78c18.667 1.33301 32.334 5 41.001 11s14.667 16.333 18 31s5 38 5 70
v304c0 31.333 -1.5 54 -4.5 68zM310.999 936.998c26.667 0 47.999 -1.33203 63.999 -3.99902c-56 -66.667 -99.333 -128.334 -130 -185.001c-17.333 0 -35.166 2 -53.499 6s-32.833 8.66699 -43.5 14c30 58.667 50.333 110.667 61 156c25.333 8.66699 59.333 13 102 13z" />
    <glyph glyph-name="Icircumflex" unicode="&#xce;" horiz-adv-x="408" 
d="M99.5 559c-3 14 -8.83398 23.8311 -17.501 29.498s-23 9.83398 -43 12.501c-6 24 -9 50 -9 78c33.333 -2 93 -3 179 -3c72.667 0 129 1 169 3c0 -34.667 -3 -60.667 -9 -78c-19.333 -2 -33.333 -5.83301 -42 -11.5s-14.667 -15.667 -18 -30s-5 -37.166 -5 -68.499v-304
c0 -31.333 1.83301 -54.5 5.5 -69.5s10 -25.5 19 -31.5s22.833 -9.66699 41.5 -11c5.33301 -19.333 8 -45.333 8 -78c-30 2 -83 3 -159 3c-78.667 0 -141.667 -1 -189 -3c0 26.667 3.33301 52.667 10 78c18.667 1.33301 32.334 5 41.001 11s14.667 16.333 18 31s5 38 5 70
v304c0 31.333 -1.5 54 -4.5 68zM257.999 940.998c43.333 -52 96.6689 -104.332 160.002 -156.999c-24 -27.333 -54 -44.333 -90 -51c-42.667 31.333 -87.334 59 -134.001 83c-18.667 -10 -40.834 -23.167 -66.501 -39.5s-46.5 -30.833 -62.5 -43.5
c-14.667 3.33301 -27.667 10.666 -39 21.999s-19 23 -23 35c69.333 46.667 125.333 92 168 136c26.667 10 55.667 15 87 15z" />
    <glyph glyph-name="Idieresis" unicode="&#xcf;" horiz-adv-x="408" 
d="M99.5 559c-3 14 -8.83398 23.8311 -17.501 29.498s-23 9.83398 -43 12.501c-6 24 -9 50 -9 78c33.333 -2 93 -3 179 -3c72.667 0 129 1 169 3c0 -34.667 -3 -60.667 -9 -78c-19.333 -2 -33.333 -5.83301 -42 -11.5s-14.667 -15.667 -18 -30s-5 -37.166 -5 -68.499v-304
c0 -31.333 1.83301 -54.5 5.5 -69.5s10 -25.5 19 -31.5s22.833 -9.66699 41.5 -11c5.33301 -19.333 8 -45.333 8 -78c-30 2 -83 3 -159 3c-78.667 0 -141.667 -1 -189 -3c0 26.667 3.33301 52.667 10 78c18.667 1.33301 32.334 5 41.001 11s14.667 16.333 18 31s5 38 5 70
v304c0 31.333 -1.5 54 -4.5 68zM5.49902 867.998c15.667 17.333 39.167 26.001 70.5 26.001c32.667 0 57 -8 73 -24s24 -37.333 24 -64c0 -23.333 -9 -42.833 -27 -58.5s-40.333 -23.5 -67 -23.5c-28.667 0 -52 7.66699 -70 23s-27 34.333 -27 57
c0 25.333 7.83301 46.666 23.5 63.999zM405.499 749.499c-15 -17 -38.166 -25.499 -69.499 -25.499c-32.667 0 -57.667 8.16699 -75 24.5s-26 38.166 -26 65.499c0 25.333 8.66699 45 26 59s40.666 21 69.999 21c28 0 51.167 -7.66699 69.5 -23s27.5 -34.333 27.5 -57
c0 -26 -7.5 -47.5 -22.5 -64.5z" />
    <glyph glyph-name="Eth" unicode="&#xd0;" horiz-adv-x="751" 
d="M540 652c52 -17.333 93.666 -49.667 124.999 -97s47 -114 47 -200c0 -98 -21.5 -173.333 -64.5 -226s-91.667 -87.334 -146 -104.001s-105.833 -25 -154.5 -25c-114 0 -217 -1 -309 -3c0 32 2.66699 58 8 78c18.667 1.33301 32.5 5 41.5 11s15.333 16.5 19 31.5
s5.5 38.167 5.5 69.5v61c-17.333 0 -30.666 -0.333008 -39.999 -1l-53 -1c0 36.667 4.33301 67 13 91h80v154c0 30.667 -1.66699 53.167 -5 67.5s-9.5 24.333 -18.5 30s-23.5 9.83398 -43.5 12.501c-4.66699 18.667 -7 44.667 -7 78c42.667 -1.33301 87.667 -2 135 -2l74 -1
c37.333 1.33301 72.333 2 105 2c73.333 0 136 -8.66699 188 -26zM470.499 127.999c26.333 35.333 39.501 105.001 39.501 209.001c0 177.333 -52.667 266 -158 266c-14.667 0 -28 -2.66699 -40 -8v-258h135c0 -35.333 -4.33301 -65 -13 -89c-35.333 0.666992 -76 1 -122 1
v-57c0 -31.333 2.33301 -55.333 7 -72s12.5 -28.334 23.5 -35.001s26.833 -10 47.5 -10c27.333 0 54.166 17.667 80.499 53z" />
    <glyph glyph-name="Ntilde" unicode="&#xd1;" horiz-adv-x="711" 
d="M681 679c0 -34.667 -2.33691 -60.666 -7.00391 -77.999c-18 -2.66699 -31.333 -7.66699 -40 -15s-14.667 -20.5 -18 -39.5s-5 -48.5 -5 -88.5v-458c-20 -6 -50.333 -9 -91 -9l-341 462v-235c0 -39.333 2.16699 -68.5 6.5 -87.5s11.833 -32.333 22.5 -40
s27.334 -12.834 50.001 -15.501c4.66699 -17.333 7 -43.333 7 -78c-28 2 -68.333 3 -121 3l-92 1c-19.333 0 -31.666 -0.333008 -36.999 -1c0 33.333 2.66699 58.333 8 75c22 2.66699 38.5 8 49.5 16s19 21.667 24 41s7.5 48 7.5 86v336l-14 19
c-5.33301 9.33301 -12.5 15.833 -21.5 19.5s-24.167 6.5 -45.5 8.5c-5.33301 19.333 -8 45.333 -8 78c26 -2 70.333 -3 133 -3c57.333 0 95 1 113 3l275 -379v158c0 39.333 -2.16699 68.333 -6.5 87s-12.166 32 -23.499 40s-29.666 13.333 -54.999 16
c-4.66699 18 -7 44 -7 78c28 -2 71.667 -3 131 -3c46.667 0 82 1 106 3zM301.996 905.001c15.333 0 29.167 -1.83301 41.5 -5.5s27.166 -9.5 44.499 -17.5c14.667 -6 26.5 -10.5 35.5 -13.5s18.5 -4.5 28.5 -4.5c34 0 62 11 84 33c22.667 -14 37.334 -31.333 44.001 -52
c-22 -44.667 -44.5 -77.5 -67.5 -98.5s-49.5 -31.5 -79.5 -31.5c-16.667 0 -31.167 2 -43.5 6s-26.5 10 -42.5 18c-15.333 6.66699 -27.833 11.667 -37.5 15s-20.5 5 -32.5 5c-36 0 -69.667 -13.667 -101 -41c-20.667 17.333 -32.667 38.333 -36 63
c51.333 82.667 105.333 124 162 124z" />
    <glyph glyph-name="Ograve" unicode="&#xd2;" horiz-adv-x="761" 
d="M562 644c52 -27.333 92.3311 -66 120.998 -116s43 -108 43 -174c0 -71.333 -14.167 -134.5 -42.5 -189.5s-68.666 -97.667 -120.999 -128s-113.166 -45.5 -182.499 -45.5c-70.667 0 -132 14.5 -184 43.5s-91.833 70 -119.5 123s-41.5 114.167 -41.5 183.5
c0 70 14.667 130.833 44 182.5s70 91.5 122 119.5s111.667 42 179 42c69.333 0 130 -13.667 182 -41zM486.998 140c22.667 47.333 33.9971 111.667 33.9971 193c0 51.333 -6.16699 98 -18.5 140s-30.166 75.333 -53.499 100s-50.666 37 -81.999 37
c-40.667 0 -72 -21.167 -94 -63.5s-33 -102.833 -33 -181.5c0 -86 12.833 -156.833 38.5 -212.5s63.5 -83.5 113.5 -83.5c40.667 0 72.334 23.667 95.001 71zM289.995 832.501c-18.667 22.333 -41.666 45.833 -68.999 70.5c51.333 21.333 106 32 164 32
c17.333 -56.667 40.333 -112 69 -166c-25.333 -12 -59.333 -18 -102 -18c-22.667 32 -43.334 59.167 -62.001 81.5z" />
    <glyph glyph-name="Oacute" unicode="&#xd3;" horiz-adv-x="761" 
d="M562 644c52 -27.333 92.3311 -66 120.998 -116s43 -108 43 -174c0 -71.333 -14.167 -134.5 -42.5 -189.5s-68.666 -97.667 -120.999 -128s-113.166 -45.5 -182.499 -45.5c-70.667 0 -132 14.5 -184 43.5s-91.833 70 -119.5 123s-41.5 114.167 -41.5 183.5
c0 70 14.667 130.833 44 182.5s70 91.5 122 119.5s111.667 42 179 42c69.333 0 130 -13.667 182 -41zM486.998 140c22.667 47.333 33.9971 111.667 33.9971 193c0 51.333 -6.16699 98 -18.5 140s-30.166 75.333 -53.499 100s-50.666 37 -81.999 37
c-40.667 0 -72 -21.167 -94 -63.5s-33 -102.833 -33 -181.5c0 -86 12.833 -156.833 38.5 -212.5s63.5 -83.5 113.5 -83.5c40.667 0 72.334 23.667 95.001 71zM487.995 937.001c26.667 0 47.999 -1.33203 63.999 -3.99902c-56 -66.667 -99.333 -128.334 -130 -185.001
c-17.333 0 -35.166 2 -53.499 6s-32.833 8.66699 -43.5 14c30 58.667 50.333 110.667 61 156c25.333 8.66699 59.333 13 102 13z" />
    <glyph glyph-name="Ocircumflex" unicode="&#xd4;" horiz-adv-x="761" 
d="M562 644c52 -27.333 92.3311 -66 120.998 -116s43 -108 43 -174c0 -71.333 -14.167 -134.5 -42.5 -189.5s-68.666 -97.667 -120.999 -128s-113.166 -45.5 -182.499 -45.5c-70.667 0 -132 14.5 -184 43.5s-91.833 70 -119.5 123s-41.5 114.167 -41.5 183.5
c0 70 14.667 130.833 44 182.5s70 91.5 122 119.5s111.667 42 179 42c69.333 0 130 -13.667 182 -41zM486.998 140c22.667 47.333 33.9971 111.667 33.9971 193c0 51.333 -6.16699 98 -18.5 140s-30.166 75.333 -53.499 100s-50.666 37 -81.999 37
c-40.667 0 -72 -21.167 -94 -63.5s-33 -102.833 -33 -181.5c0 -86 12.833 -156.833 38.5 -212.5s63.5 -83.5 113.5 -83.5c40.667 0 72.334 23.667 95.001 71zM434.995 941.001c43.333 -52 96.6689 -104.332 160.002 -156.999c-24 -27.333 -54 -44.333 -90 -51
c-42.667 31.333 -87.334 59 -134.001 83c-18.667 -10 -40.834 -23.167 -66.501 -39.5s-46.5 -30.833 -62.5 -43.5c-14.667 3.33301 -27.667 10.666 -39 21.999s-19 23 -23 35c69.333 46.667 125.333 92 168 136c26.667 10 55.667 15 87 15z" />
    <glyph glyph-name="Otilde" unicode="&#xd5;" horiz-adv-x="761" 
d="M562 644c52 -27.333 92.3311 -66 120.998 -116s43 -108 43 -174c0 -71.333 -14.167 -134.5 -42.5 -189.5s-68.666 -97.667 -120.999 -128s-113.166 -45.5 -182.499 -45.5c-70.667 0 -132 14.5 -184 43.5s-91.833 70 -119.5 123s-41.5 114.167 -41.5 183.5
c0 70 14.667 130.833 44 182.5s70 91.5 122 119.5s111.667 42 179 42c69.333 0 130 -13.667 182 -41zM486.998 140c22.667 47.333 33.9971 111.667 33.9971 193c0 51.333 -6.16699 98 -18.5 140s-30.166 75.333 -53.499 100s-50.666 37 -81.999 37
c-40.667 0 -72 -21.167 -94 -63.5s-33 -102.833 -33 -181.5c0 -86 12.833 -156.833 38.5 -212.5s63.5 -83.5 113.5 -83.5c40.667 0 72.334 23.667 95.001 71zM322.995 905.001c15.333 0 29.167 -1.83301 41.5 -5.5s27.166 -9.5 44.499 -17.5
c14.667 -6 26.5 -10.5 35.5 -13.5s18.5 -4.5 28.5 -4.5c34 0 62 11 84 33c22.667 -14 37.334 -31.333 44.001 -52c-22 -44.667 -44.5 -77.5 -67.5 -98.5s-49.5 -31.5 -79.5 -31.5c-16.667 0 -31.167 2 -43.5 6s-26.5 10 -42.5 18c-15.333 6.66699 -27.833 11.667 -37.5 15
s-20.5 5 -32.5 5c-36 0 -69.667 -13.667 -101 -41c-20.667 17.333 -32.667 38.333 -36 63c51.333 82.667 105.333 124 162 124z" />
    <glyph glyph-name="Odieresis" unicode="&#xd6;" horiz-adv-x="761" 
d="M562 644c52 -27.333 92.3311 -66 120.998 -116s43 -108 43 -174c0 -71.333 -14.167 -134.5 -42.5 -189.5s-68.666 -97.667 -120.999 -128s-113.166 -45.5 -182.499 -45.5c-70.667 0 -132 14.5 -184 43.5s-91.833 70 -119.5 123s-41.5 114.167 -41.5 183.5
c0 70 14.667 130.833 44 182.5s70 91.5 122 119.5s111.667 42 179 42c69.333 0 130 -13.667 182 -41zM486.998 140c22.667 47.333 33.9971 111.667 33.9971 193c0 51.333 -6.16699 98 -18.5 140s-30.166 75.333 -53.499 100s-50.666 37 -81.999 37
c-40.667 0 -72 -21.167 -94 -63.5s-33 -102.833 -33 -181.5c0 -86 12.833 -156.833 38.5 -212.5s63.5 -83.5 113.5 -83.5c40.667 0 72.334 23.667 95.001 71zM182.495 868.001c15.667 17.333 39.167 26.001 70.5 26.001c32.667 0 57 -8 73 -24s24 -37.333 24 -64
c0 -23.333 -9 -42.833 -27 -58.5s-40.333 -23.5 -67 -23.5c-28.667 0 -52 7.66699 -70 23s-27 34.333 -27 57c0 25.333 7.83301 46.666 23.5 63.999zM582.495 749.502c-15 -17 -38.166 -25.499 -69.499 -25.499c-32.667 0 -57.667 8.16699 -75 24.5s-26 38.166 -26 65.499
c0 25.333 8.66699 45 26 59s40.666 21 69.999 21c28 0 51.167 -7.66699 69.5 -23s27.5 -34.333 27.5 -57c0 -26 -7.5 -47.5 -22.5 -64.5z" />
    <glyph glyph-name="multiply" unicode="&#xd7;" horiz-adv-x="633" 
d="M382 241l216.001 -212.001c-8.66699 -10.667 -21 -19.667 -37 -27s-31.667 -11 -47 -11l-189 192l-182 -192c-17.333 -0.666992 -34.833 1.83301 -52.5 7.5s-30.167 13.167 -37.5 22.5l215 218l-213 204c11.333 10.667 24.666 19.5 39.999 26.5s29.666 10.5 42.999 10.5
l187 -183l183 185c17.333 0 35.333 -2.66699 54 -8s31.334 -11.666 38.001 -18.999z" />
    <glyph glyph-name="Oslash" unicode="&#xd8;" horiz-adv-x="768" 
d="M726 354c0 -71.333 -14.1689 -134.502 -42.502 -189.502s-68.666 -97.667 -120.999 -128s-113.166 -45.5 -182.499 -45.5c-66.667 0 -124.667 12.667 -174 38l-46 -55c-47.333 0 -82 7.33301 -104 22l74 88c-30.667 30.667 -54.167 67.834 -70.5 111.501
s-24.5 92.167 -24.5 145.5c0 70 14.667 130.833 44 182.5s70 91.5 122 119.5s111.667 42 179 42c74 0 139 -16 195 -48l51 63c20 0 39.667 -2.16699 59 -6.5s34.333 -10.166 45 -17.499l-81 -100c51.333 -58.667 77 -132.667 77 -222zM272.998 546.498
c-22 -42.333 -33.001 -102.833 -33.001 -181.5c0 -50 4.33301 -94.333 13 -133l228 295c-13.333 26 -29.666 46.333 -48.999 61s-41 22 -65 22c-40.667 0 -72 -21.167 -94 -63.5zM486.997 139.998c22.667 47.333 34 111.667 34 193c0 28 -2 55 -6 81l-223 -286
c25.333 -39.333 58.666 -59 99.999 -59c40.667 0 72.334 23.667 95.001 71z" />
    <glyph glyph-name="Ugrave" unicode="&#xd9;" horiz-adv-x="697" 
d="M583 131.5c-8.66699 -36.333 -24.333 -65.4971 -47 -87.4971c-38 -35.333 -97 -53 -177 -53c-66.667 0 -119.334 8.5 -158.001 25.5s-66.167 43.333 -82.5 79s-24.5 83.5 -24.5 143.5v247c0 31.333 -1.83301 54.5 -5.5 69.5s-9.83398 25.5 -18.501 31.5
s-22.667 10.667 -42 14c-5.33301 22.667 -8 48.667 -8 78c27.333 -2 72.666 -3 135.999 -3c106.667 0 176 1 208 3c0 -33.333 -2 -59.333 -6 -78c-19.333 -3.33301 -33.166 -8 -41.499 -14s-14.166 -16.333 -17.499 -31s-5 -38 -5 -70v-230
c0 -62 9.33301 -108.167 28 -138.5s46.667 -45.5 84 -45.5c16.667 0 32.667 3.5 48 10.5s28 17.833 38 32.5c9.33301 14 16.333 34 21 60s7 63.333 7 112v180c0 33.333 -2 59 -6 77s-10.667 31.167 -20 39.5s-22.666 14.166 -39.999 17.499c-4 27.333 -6 53.333 -6 78
c27.333 -2 64.666 -3 111.999 -3c46.667 0 82.334 1 107.001 3c0 -32.667 -2.66699 -58.667 -8 -78c-17.333 -2.66699 -30.5 -7.83398 -39.5 -15.501s-15.167 -19.834 -18.5 -36.501s-5 -41 -5 -73v-199c0 -60.667 -4.33301 -109.167 -13 -145.5zM315.001 832.503
c-18.667 22.333 -41.666 45.833 -68.999 70.5c51.333 21.333 106 32 164 32c17.333 -56.667 40.333 -112 69 -166c-25.333 -12 -59.333 -18 -102 -18c-22.667 32 -43.334 59.167 -62.001 81.5z" />
    <glyph glyph-name="Uacute" unicode="&#xda;" horiz-adv-x="697" 
d="M583 131.5c-8.66699 -36.333 -24.333 -65.4971 -47 -87.4971c-38 -35.333 -97 -53 -177 -53c-66.667 0 -119.334 8.5 -158.001 25.5s-66.167 43.333 -82.5 79s-24.5 83.5 -24.5 143.5v247c0 31.333 -1.83301 54.5 -5.5 69.5s-9.83398 25.5 -18.501 31.5
s-22.667 10.667 -42 14c-5.33301 22.667 -8 48.667 -8 78c27.333 -2 72.666 -3 135.999 -3c106.667 0 176 1 208 3c0 -33.333 -2 -59.333 -6 -78c-19.333 -3.33301 -33.166 -8 -41.499 -14s-14.166 -16.333 -17.499 -31s-5 -38 -5 -70v-230
c0 -62 9.33301 -108.167 28 -138.5s46.667 -45.5 84 -45.5c16.667 0 32.667 3.5 48 10.5s28 17.833 38 32.5c9.33301 14 16.333 34 21 60s7 63.333 7 112v180c0 33.333 -2 59 -6 77s-10.667 31.167 -20 39.5s-22.666 14.166 -39.999 17.499c-4 27.333 -6 53.333 -6 78
c27.333 -2 64.666 -3 111.999 -3c46.667 0 82.334 1 107.001 3c0 -32.667 -2.66699 -58.667 -8 -78c-17.333 -2.66699 -30.5 -7.83398 -39.5 -15.501s-15.167 -19.834 -18.5 -36.501s-5 -41 -5 -73v-199c0 -60.667 -4.33301 -109.167 -13 -145.5zM513.001 937.003
c26.667 0 47.999 -1.33203 63.999 -3.99902c-56 -66.667 -99.333 -128.334 -130 -185.001c-17.333 0 -35.166 2 -53.499 6s-32.833 8.66699 -43.5 14c30 58.667 50.333 110.667 61 156c25.333 8.66699 59.333 13 102 13z" />
    <glyph glyph-name="Ucircumflex" unicode="&#xdb;" horiz-adv-x="697" 
d="M583 131.5c-8.66699 -36.333 -24.333 -65.4971 -47 -87.4971c-38 -35.333 -97 -53 -177 -53c-66.667 0 -119.334 8.5 -158.001 25.5s-66.167 43.333 -82.5 79s-24.5 83.5 -24.5 143.5v247c0 31.333 -1.83301 54.5 -5.5 69.5s-9.83398 25.5 -18.501 31.5
s-22.667 10.667 -42 14c-5.33301 22.667 -8 48.667 -8 78c27.333 -2 72.666 -3 135.999 -3c106.667 0 176 1 208 3c0 -33.333 -2 -59.333 -6 -78c-19.333 -3.33301 -33.166 -8 -41.499 -14s-14.166 -16.333 -17.499 -31s-5 -38 -5 -70v-230
c0 -62 9.33301 -108.167 28 -138.5s46.667 -45.5 84 -45.5c16.667 0 32.667 3.5 48 10.5s28 17.833 38 32.5c9.33301 14 16.333 34 21 60s7 63.333 7 112v180c0 33.333 -2 59 -6 77s-10.667 31.167 -20 39.5s-22.666 14.166 -39.999 17.499c-4 27.333 -6 53.333 -6 78
c27.333 -2 64.666 -3 111.999 -3c46.667 0 82.334 1 107.001 3c0 -32.667 -2.66699 -58.667 -8 -78c-17.333 -2.66699 -30.5 -7.83398 -39.5 -15.501s-15.167 -19.834 -18.5 -36.501s-5 -41 -5 -73v-199c0 -60.667 -4.33301 -109.167 -13 -145.5zM460.001 941.003
c43.333 -52 96.6689 -104.332 160.002 -156.999c-24 -27.333 -54 -44.333 -90 -51c-42.667 31.333 -87.334 59 -134.001 83c-18.667 -10 -40.834 -23.167 -66.501 -39.5s-46.5 -30.833 -62.5 -43.5c-14.667 3.33301 -27.667 10.666 -39 21.999s-19 23 -23 35
c69.333 46.667 125.333 92 168 136c26.667 10 55.667 15 87 15z" />
    <glyph glyph-name="Udieresis" unicode="&#xdc;" horiz-adv-x="697" 
d="M583 131.5c-8.66699 -36.333 -24.333 -65.4971 -47 -87.4971c-38 -35.333 -97 -53 -177 -53c-66.667 0 -119.334 8.5 -158.001 25.5s-66.167 43.333 -82.5 79s-24.5 83.5 -24.5 143.5v247c0 31.333 -1.83301 54.5 -5.5 69.5s-9.83398 25.5 -18.501 31.5
s-22.667 10.667 -42 14c-5.33301 22.667 -8 48.667 -8 78c27.333 -2 72.666 -3 135.999 -3c106.667 0 176 1 208 3c0 -33.333 -2 -59.333 -6 -78c-19.333 -3.33301 -33.166 -8 -41.499 -14s-14.166 -16.333 -17.499 -31s-5 -38 -5 -70v-230
c0 -62 9.33301 -108.167 28 -138.5s46.667 -45.5 84 -45.5c16.667 0 32.667 3.5 48 10.5s28 17.833 38 32.5c9.33301 14 16.333 34 21 60s7 63.333 7 112v180c0 33.333 -2 59 -6 77s-10.667 31.167 -20 39.5s-22.666 14.166 -39.999 17.499c-4 27.333 -6 53.333 -6 78
c27.333 -2 64.666 -3 111.999 -3c46.667 0 82.334 1 107.001 3c0 -32.667 -2.66699 -58.667 -8 -78c-17.333 -2.66699 -30.5 -7.83398 -39.5 -15.501s-15.167 -19.834 -18.5 -36.501s-5 -41 -5 -73v-199c0 -60.667 -4.33301 -109.167 -13 -145.5zM207.501 868.003
c15.667 17.333 39.167 26.001 70.5 26.001c32.667 0 57 -8 73 -24s24 -37.333 24 -64c0 -23.333 -9 -42.833 -27 -58.5s-40.333 -23.5 -67 -23.5c-28.667 0 -52 7.66699 -70 23s-27 34.333 -27 57c0 25.333 7.83301 46.666 23.5 63.999zM607.501 749.504
c-15 -17 -38.166 -25.499 -69.499 -25.499c-32.667 0 -57.667 8.16699 -75 24.5s-26 38.166 -26 65.499c0 25.333 8.66699 45 26 59s40.666 21 69.999 21c28 0 51.167 -7.66699 69.5 -23s27.5 -34.333 27.5 -57c0 -26 -7.5 -47.5 -22.5 -64.5z" />
    <glyph glyph-name="Yacute" unicode="&#xdd;" horiz-adv-x="634" 
d="M624 678c0 -28.667 -3.00195 -54.333 -9.00195 -77c-12.667 -2.66699 -24 -9.66699 -34 -21s-22 -32.333 -36 -63l-122 -269v-50c0 -34.667 2.33301 -60 7 -76s13.834 -27.333 27.501 -34s35.167 -11 64.5 -13c4 -13.333 6.66699 -25.333 8 -36s2 -24.667 2 -42
c-38.667 2 -110 3 -214 3c-40 -0 -93.333 -0.666992 -160 -2l-53 -1c1.33301 35.333 5.33301 61.333 12 78c34 2.66699 58 6.83398 72 12.501s23.167 16.334 27.5 32.001s6.5 42.167 6.5 79.5v52l-139 291c-17.333 36 -39.333 55.667 -66 59c-5.33301 19.333 -8 45 -8 77
c32 -1.33301 88 -2 168 -2c84.667 0 140.667 0.666992 168 2c0 -26 -2.33301 -51.667 -7 -77c-22 -2.66699 -33 -13.334 -33 -32.001c0 -9.33301 4.66699 -26.333 14 -51l11 -28c24.667 -60.667 44.334 -111.334 59.001 -152.001c26 66.667 51.333 128.667 76 186
c6 14 9 26.667 9 38c0 24 -12.667 37 -38 39c-6 22 -9 47.667 -9 77c24 -1.33301 58.333 -2 103 -2c40.667 0 71.667 0.666992 93 2zM486.998 937.001c26.667 0 47.999 -1.33203 63.999 -3.99902c-56 -66.667 -99.333 -128.334 -130 -185.001c-17.333 0 -35.166 2 -53.499 6
s-32.833 8.66699 -43.5 14c30 58.667 50.333 110.667 61 156c25.333 8.66699 59.333 13 102 13z" />
    <glyph glyph-name="Thorn" unicode="&#xde;" horiz-adv-x="691" 
d="M597.5 493c35.667 -34.667 53.499 -79.3311 53.499 -133.998c0 -41.333 -9.66699 -77.833 -29 -109.5s-46.833 -56.334 -82.5 -74.001s-77.5 -26.5 -125.5 -26.5c-30 0 -53 2.66699 -69 8c-1.33301 12 -2 20.333 -2 25c0 18 3.66699 33.667 11 47h22
c23.333 0 43.333 9.66699 60 29s25 48.666 25 87.999c0 35.333 -9.33301 64.166 -28 86.499s-44.667 33.5 -78 33.5c-21.333 0 -38 -2.66699 -50 -8v-271c0 -31.333 1.83301 -54.5 5.5 -69.5s10 -25.5 19 -31.5s22.833 -9.66699 41.5 -11c5.33301 -19.333 8 -45.333 8 -78
c-30 2 -83 3 -159 3c-79.333 0 -142.333 -1 -189 -3c0 26.667 3.33301 52.667 10 78c18.667 1.33301 32.334 5 41.001 11s14.667 16.333 18 31s5 38 5 70v304c0 31.333 -1.5 54 -4.5 68s-8.83301 23.833 -17.5 29.5s-23 9.83398 -43 12.501c-6 24 -9 50 -9 78
c32.667 -2 92.334 -3 179.001 -3c72.667 0 129 1 169 3c0 -34.667 -3 -60.667 -9 -78c-22 -2.66699 -37.333 -7.66699 -46 -15s-14.334 -21.333 -17.001 -42l121 1c77.333 0 133.833 -17.333 169.5 -52z" />
    <glyph glyph-name="germandbls" unicode="&#xdf;" horiz-adv-x="764" 
d="M69 364.5c-15.333 2.33301 -29.334 3.50293 -42.001 3.50293c0 17.333 0.666992 31.833 2 43.5s4.66602 23.834 9.99902 36.501h65v29c0 80 23.833 140 71.5 180s116.5 60 206.5 60c56 0 102.5 -6 139.5 -18s64.333 -27.833 82 -47.5s26.5 -41.5 26.5 -65.5
c0 -26.667 -7 -47.5 -21 -62.5s-33.667 -30.5 -59 -46.5c-15.333 -9.33301 -26.166 -16.833 -32.499 -22.5s-9.5 -12.167 -9.5 -19.5c0 -12 6 -22.333 18 -31s30.667 -19.334 56 -32.001c30.667 -14.667 56.167 -28.834 76.5 -42.501s38 -32.167 53 -55.5s22.5 -52 22.5 -86
c0 -42.667 -12 -78.834 -36 -108.501s-55.333 -51.834 -94 -66.501s-79.667 -22 -123 -22c-72.667 0 -124.334 8.66699 -155.001 26c4 22 6 59.667 6 113c0 17.333 -0.333008 29 -1 35c10.667 4 25.667 7.16699 45 9.5s36.333 3.5 51 3.5
c4 -38.667 10.833 -66.167 20.5 -82.5s25.167 -24.5 46.5 -24.5c11.333 0 21.333 3.83301 30 11.5s13 17.834 13 30.501c0 20.667 -7.5 38 -22.5 52s-37.833 29.667 -68.5 47c-25.333 15.333 -45.833 28.833 -61.5 40.5s-29 26.334 -40 44.001s-16.5 38.5 -16.5 62.5
c0 26 5.66699 45.833 17 59.5s28.333 27.5 51 41.5c22 14 38.5 27.5 49.5 40.5s16.5 32.167 16.5 57.5c0 24 -9 44.333 -27 61s-42.333 25 -73 25c-17.333 0 -30.666 -3 -39.999 -9s-16.333 -17.833 -21 -35.5s-7 -44.5 -7 -80.5v-520c-26 0.666992 -62.667 1 -110 1
c-65.333 0 -116.666 -1 -153.999 -3c0 33.333 3 59.333 9 78c18.667 1.33301 32.5 4.66602 41.5 9.99902s15.167 15 18.5 29s5 35.333 5 64v178c-8 3.33301 -19.667 6.16602 -35 8.49902z" />
    <glyph glyph-name="agrave" unicode="&#xe0;" horiz-adv-x="589" 
d="M576 78c0 -20 -4.33398 -37.6689 -13.001 -53.002c-64.667 -1.33301 -124.667 -12.666 -180 -33.999c-14 5.33301 -23.833 12.666 -29.5 21.999s-8.5 21 -8.5 35c0 16.667 2.33301 33.334 7 50.001c-14 -30.667 -30.333 -53.334 -49 -68.001
c-33.333 -24.667 -72.666 -37 -117.999 -37c-106.667 0 -160 40 -160 120c0 42 16.667 75 50 99s70.166 41 110.499 51s87.833 18.667 142.5 26c0 22.667 -1.66699 40.667 -5 54s-9.33301 24.666 -18 33.999c-6 6.66699 -13.667 11.834 -23 15.501s-18.666 5.5 -27.999 5.5
c-40 0 -64 -36.333 -72 -109c-26.667 0 -47.834 0.833008 -63.501 2.5s-30.834 5.16699 -45.501 10.5c1.33301 17.333 2 31 2 41c0 26 -3 55.333 -9 88c64 24 135.667 36 215 36c52.667 0 93.667 -3.83301 123 -11.5s52 -20.5 68 -38.5c14.667 -15.333 26 -35 34 -59
s12 -58 12 -102v-66c0 -25.333 1.33301 -43.666 4 -54.999s7.83398 -19.166 15.501 -23.499s19.834 -6.83301 36.501 -7.5c1.33301 -6 2 -14.667 2 -26zM237.499 192.998c-18.333 -13.333 -27.5 -29.667 -27.5 -49c0 -28 12.667 -42 38 -42c20.667 0 39.167 9.5 55.5 28.5
s24.5 44.833 24.5 77.5v17c-42 -8 -72.167 -18.667 -90.5 -32zM181.999 614.497c-18.667 22.333 -41.666 45.833 -68.999 70.5c51.333 21.333 106 32 164 32c17.333 -56.667 40.333 -112 69 -166c-25.333 -12 -59.333 -18 -102 -18c-22.667 32 -43.334 59.167 -62.001 81.5z
" />
    <glyph glyph-name="aacute" unicode="&#xe1;" horiz-adv-x="589" 
d="M576 78c0 -20 -4.33398 -37.6689 -13.001 -53.002c-64.667 -1.33301 -124.667 -12.666 -180 -33.999c-14 5.33301 -23.833 12.666 -29.5 21.999s-8.5 21 -8.5 35c0 16.667 2.33301 33.334 7 50.001c-14 -30.667 -30.333 -53.334 -49 -68.001
c-33.333 -24.667 -72.666 -37 -117.999 -37c-106.667 0 -160 40 -160 120c0 42 16.667 75 50 99s70.166 41 110.499 51s87.833 18.667 142.5 26c0 22.667 -1.66699 40.667 -5 54s-9.33301 24.666 -18 33.999c-6 6.66699 -13.667 11.834 -23 15.501s-18.666 5.5 -27.999 5.5
c-40 0 -64 -36.333 -72 -109c-26.667 0 -47.834 0.833008 -63.501 2.5s-30.834 5.16699 -45.501 10.5c1.33301 17.333 2 31 2 41c0 26 -3 55.333 -9 88c64 24 135.667 36 215 36c52.667 0 93.667 -3.83301 123 -11.5s52 -20.5 68 -38.5c14.667 -15.333 26 -35 34 -59
s12 -58 12 -102v-66c0 -25.333 1.33301 -43.666 4 -54.999s7.83398 -19.166 15.501 -23.499s19.834 -6.83301 36.501 -7.5c1.33301 -6 2 -14.667 2 -26zM237.499 192.998c-18.333 -13.333 -27.5 -29.667 -27.5 -49c0 -28 12.667 -42 38 -42c20.667 0 39.167 9.5 55.5 28.5
s24.5 44.833 24.5 77.5v17c-42 -8 -72.167 -18.667 -90.5 -32zM379.999 718.997c26.667 0 47.999 -1.33203 63.999 -3.99902c-56 -66.667 -99.333 -128.334 -130 -185.001c-17.333 0 -35.166 2 -53.499 6s-32.833 8.66699 -43.5 14c30 58.667 50.333 110.667 61 156
c25.333 8.66699 59.333 13 102 13z" />
    <glyph glyph-name="acircumflex" unicode="&#xe2;" horiz-adv-x="589" 
d="M576 78c0 -20 -4.33398 -37.6689 -13.001 -53.002c-64.667 -1.33301 -124.667 -12.666 -180 -33.999c-14 5.33301 -23.833 12.666 -29.5 21.999s-8.5 21 -8.5 35c0 16.667 2.33301 33.334 7 50.001c-14 -30.667 -30.333 -53.334 -49 -68.001
c-33.333 -24.667 -72.666 -37 -117.999 -37c-106.667 0 -160 40 -160 120c0 42 16.667 75 50 99s70.166 41 110.499 51s87.833 18.667 142.5 26c0 22.667 -1.66699 40.667 -5 54s-9.33301 24.666 -18 33.999c-6 6.66699 -13.667 11.834 -23 15.501s-18.666 5.5 -27.999 5.5
c-40 0 -64 -36.333 -72 -109c-26.667 0 -47.834 0.833008 -63.501 2.5s-30.834 5.16699 -45.501 10.5c1.33301 17.333 2 31 2 41c0 26 -3 55.333 -9 88c64 24 135.667 36 215 36c52.667 0 93.667 -3.83301 123 -11.5s52 -20.5 68 -38.5c14.667 -15.333 26 -35 34 -59
s12 -58 12 -102v-66c0 -25.333 1.33301 -43.666 4 -54.999s7.83398 -19.166 15.501 -23.499s19.834 -6.83301 36.501 -7.5c1.33301 -6 2 -14.667 2 -26zM237.499 192.998c-18.333 -13.333 -27.5 -29.667 -27.5 -49c0 -28 12.667 -42 38 -42c20.667 0 39.167 9.5 55.5 28.5
s24.5 44.833 24.5 77.5v17c-42 -8 -72.167 -18.667 -90.5 -32zM326.999 722.997c43.333 -52 96.6689 -104.332 160.002 -156.999c-24 -27.333 -54 -44.333 -90 -51c-42.667 31.333 -87.334 59 -134.001 83c-18.667 -10 -40.834 -23.167 -66.501 -39.5
s-46.5 -30.833 -62.5 -43.5c-14.667 3.33301 -27.667 10.666 -39 21.999s-19 23 -23 35c69.333 46.667 125.333 92 168 136c26.667 10 55.667 15 87 15z" />
    <glyph glyph-name="atilde" unicode="&#xe3;" horiz-adv-x="589" 
d="M576 78c0 -20 -4.33398 -37.6689 -13.001 -53.002c-64.667 -1.33301 -124.667 -12.666 -180 -33.999c-14 5.33301 -23.833 12.666 -29.5 21.999s-8.5 21 -8.5 35c0 16.667 2.33301 33.334 7 50.001c-14 -30.667 -30.333 -53.334 -49 -68.001
c-33.333 -24.667 -72.666 -37 -117.999 -37c-106.667 0 -160 40 -160 120c0 42 16.667 75 50 99s70.166 41 110.499 51s87.833 18.667 142.5 26c0 22.667 -1.66699 40.667 -5 54s-9.33301 24.666 -18 33.999c-6 6.66699 -13.667 11.834 -23 15.501s-18.666 5.5 -27.999 5.5
c-40 0 -64 -36.333 -72 -109c-26.667 0 -47.834 0.833008 -63.501 2.5s-30.834 5.16699 -45.501 10.5c1.33301 17.333 2 31 2 41c0 26 -3 55.333 -9 88c64 24 135.667 36 215 36c52.667 0 93.667 -3.83301 123 -11.5s52 -20.5 68 -38.5c14.667 -15.333 26 -35 34 -59
s12 -58 12 -102v-66c0 -25.333 1.33301 -43.666 4 -54.999s7.83398 -19.166 15.501 -23.499s19.834 -6.83301 36.501 -7.5c1.33301 -6 2 -14.667 2 -26zM237.499 192.998c-18.333 -13.333 -27.5 -29.667 -27.5 -49c0 -28 12.667 -42 38 -42c20.667 0 39.167 9.5 55.5 28.5
s24.5 44.833 24.5 77.5v17c-42 -8 -72.167 -18.667 -90.5 -32zM214.999 686.997c15.333 0 29.167 -1.83301 41.5 -5.5s27.166 -9.5 44.499 -17.5c14.667 -6 26.5 -10.5 35.5 -13.5s18.5 -4.5 28.5 -4.5c34 0 62 11 84 33c22.667 -14 37.334 -31.333 44.001 -52
c-22 -44.667 -44.5 -77.5 -67.5 -98.5s-49.5 -31.5 -79.5 -31.5c-16.667 0 -31.167 2 -43.5 6s-26.5 10 -42.5 18c-15.333 6.66699 -27.833 11.667 -37.5 15s-20.5 5 -32.5 5c-36 0 -69.667 -13.667 -101 -41c-20.667 17.333 -32.667 38.333 -36 63
c51.333 82.667 105.333 124 162 124z" />
    <glyph glyph-name="adieresis" unicode="&#xe4;" horiz-adv-x="589" 
d="M576 78c0 -20 -4.33398 -37.6689 -13.001 -53.002c-64.667 -1.33301 -124.667 -12.666 -180 -33.999c-14 5.33301 -23.833 12.666 -29.5 21.999s-8.5 21 -8.5 35c0 16.667 2.33301 33.334 7 50.001c-14 -30.667 -30.333 -53.334 -49 -68.001
c-33.333 -24.667 -72.666 -37 -117.999 -37c-106.667 0 -160 40 -160 120c0 42 16.667 75 50 99s70.166 41 110.499 51s87.833 18.667 142.5 26c0 22.667 -1.66699 40.667 -5 54s-9.33301 24.666 -18 33.999c-6 6.66699 -13.667 11.834 -23 15.501s-18.666 5.5 -27.999 5.5
c-40 0 -64 -36.333 -72 -109c-26.667 0 -47.834 0.833008 -63.501 2.5s-30.834 5.16699 -45.501 10.5c1.33301 17.333 2 31 2 41c0 26 -3 55.333 -9 88c64 24 135.667 36 215 36c52.667 0 93.667 -3.83301 123 -11.5s52 -20.5 68 -38.5c14.667 -15.333 26 -35 34 -59
s12 -58 12 -102v-66c0 -25.333 1.33301 -43.666 4 -54.999s7.83398 -19.166 15.501 -23.499s19.834 -6.83301 36.501 -7.5c1.33301 -6 2 -14.667 2 -26zM237.499 192.998c-18.333 -13.333 -27.5 -29.667 -27.5 -49c0 -28 12.667 -42 38 -42c20.667 0 39.167 9.5 55.5 28.5
s24.5 44.833 24.5 77.5v17c-42 -8 -72.167 -18.667 -90.5 -32zM74.499 649.997c15.667 17.333 39.167 26.001 70.5 26.001c32.667 0 57 -8 73 -24s24 -37.333 24 -64c0 -23.333 -9 -42.833 -27 -58.5s-40.333 -23.5 -67 -23.5c-28.667 0 -52 7.66699 -70 23
s-27 34.333 -27 57c0 25.333 7.83301 46.666 23.5 63.999zM474.499 531.498c-15 -17 -38.166 -25.499 -69.499 -25.499c-32.667 0 -57.667 8.16699 -75 24.5s-26 38.166 -26 65.499c0 25.333 8.66699 45 26 59s40.666 21 69.999 21c28 0 51.167 -7.66699 69.5 -23
s27.5 -34.333 27.5 -57c0 -26 -7.5 -47.5 -22.5 -64.5z" />
    <glyph glyph-name="aring" unicode="&#xe5;" horiz-adv-x="589" 
d="M576 78c0 -20 -4.33398 -37.6689 -13.001 -53.002c-64.667 -1.33301 -124.667 -12.666 -180 -33.999c-14 5.33301 -23.833 12.666 -29.5 21.999s-8.5 21 -8.5 35c0 16.667 2.33301 33.334 7 50.001c-14 -30.667 -30.333 -53.334 -49 -68.001
c-33.333 -24.667 -72.666 -37 -117.999 -37c-106.667 0 -160 40 -160 120c0 42 16.667 75 50 99s70.166 41 110.499 51s87.833 18.667 142.5 26c0 22.667 -1.66699 40.667 -5 54s-9.33301 24.666 -18 33.999c-6 6.66699 -13.667 11.834 -23 15.501s-18.666 5.5 -27.999 5.5
c-40 0 -64 -36.333 -72 -109c-26.667 0 -47.834 0.833008 -63.501 2.5s-30.834 5.16699 -45.501 10.5c1.33301 17.333 2 31 2 41c0 26 -3 55.333 -9 88c64 24 135.667 36 215 36c52.667 0 93.667 -3.83301 123 -11.5s52 -20.5 68 -38.5c14.667 -15.333 26 -35 34 -59
s12 -58 12 -102v-66c0 -25.333 1.33301 -43.666 4 -54.999s7.83398 -19.166 15.501 -23.499s19.834 -6.83301 36.501 -7.5c1.33301 -6 2 -14.667 2 -26zM237.499 192.998c-18.333 -13.333 -27.5 -29.667 -27.5 -49c0 -28 12.667 -42 38 -42c20.667 0 39.167 9.5 55.5 28.5
s24.5 44.833 24.5 77.5v17c-42 -8 -72.167 -18.667 -90.5 -32zM372.499 703.497c24.333 -17 36.501 -42.501 36.501 -76.501c0 -33.333 -13.167 -60.166 -39.5 -80.499s-60.833 -30.5 -103.5 -30.5c-38 0 -69.333 9.16699 -94 27.5s-37 43.5 -37 75.5
c0 33.333 13.167 60 39.5 80s60.5 30 102.5 30c39.333 0 71.166 -8.5 95.499 -25.5zM297 587.496c6 7.66699 9 18.167 9 31.5c0 14 -3.16699 26.667 -9.5 38s-15.5 17 -27.5 17c-9.33301 0 -16.666 -4.33301 -21.999 -13s-8 -20.667 -8 -36
c0 -14.667 3.16699 -26.5 9.5 -35.5s15.166 -13.5 26.499 -13.5c8.66699 0 16 3.83301 22 11.5z" />
    <glyph glyph-name="ae" unicode="&#xe6;" horiz-adv-x="752" 
d="M702.5 87c5.66699 -14 8.16797 -27.667 7.50098 -41c-19.333 -16 -45.833 -28.667 -79.5 -38s-71.834 -14 -114.501 -14s-79.667 7.16699 -111 21.5s-56.666 33.833 -75.999 58.5c-12.667 -23.333 -34.667 -42.5 -66 -57.5s-67 -22.5 -107 -22.5
c-42.667 0 -75.167 10 -97.5 30s-33.5 48.667 -33.5 86c0 54 23 93.5 69 118.5s109 40.5 189 46.5v25c0 60.667 -17 91 -51 91c-17.333 0 -30 -7.83301 -38 -23.5s-14 -42.167 -18 -79.5c-50 0 -87.333 6 -112 18c1.33301 14.667 2 28 2 40c0 34 -2.33301 64 -7 90
c31.333 11.333 61.666 19.333 90.999 24s61.333 7 96 7c32 0 59 -3.83301 81 -11.5s40.667 -19.834 56 -36.501c18 16 39.833 28 65.5 36s51.167 12 76.5 12c50 0 89.5 -11.5 118.5 -34.5s49.167 -50.5 60.5 -82.5s17 -63.333 17 -94
c-9.33301 -23.333 -22 -42.666 -38 -57.999c-79.333 0 -151.333 -1.33301 -216 -4c3.33301 -32 13.833 -57.833 31.5 -77.5s42.5 -29.5 74.5 -29.5c41.333 0 78 10.333 110 31c7.33301 -6.66699 13.833 -17 19.5 -31zM466.001 276v-12c46.667 1.33301 80.667 2 102 2
c0 40.667 -4 71.667 -12 93s-21.333 32 -40 32c-33.333 0 -50 -38.333 -50 -115zM261.501 115c13 16 20.5 41 22.5 75l-1 16c-37.333 -4 -63.5 -11.167 -78.5 -21.5s-22.5 -25.833 -22.5 -46.5c0 -15.333 3.5 -27 10.5 -35s16.167 -12 27.5 -12c14.667 0 28.5 8 41.5 24z
" />
    <glyph glyph-name="ccedilla" unicode="&#xe7;" horiz-adv-x="484" 
d="M371.5 -76.5c15.667 -17.667 23.5049 -38.168 23.5049 -61.501c0 -33.333 -15.167 -59 -45.5 -77s-73.833 -27 -130.5 -27c-6 12 -9 29 -9 51c22 0 40.5 3.83301 55.5 11.5s22.5 18.5 22.5 32.5c0 10.667 -5.5 19.5 -16.5 26.5s-24.833 10.5 -41.5 10.5
c-12 14 -18 29.667 -18 47l46 55c-72.667 5.33301 -128.834 27.666 -168.501 66.999s-59.5 95.333 -59.5 168c0 41.333 9.5 80.333 28.5 117s47.667 66.334 86 89.001s84.5 34 138.5 34c39.333 0 73.166 -3.16699 101.499 -9.5s54.833 -16.166 79.5 -29.499
c-8.66699 -35.333 -13 -79.333 -13 -132c-25.333 -11.333 -60.333 -17 -105 -17c0 37.333 -5.16699 66 -15.5 86s-24.5 30 -42.5 30c-22.667 0 -40.167 -14.5 -52.5 -43.5s-18.5 -65.833 -18.5 -110.5c0 -43.333 10.667 -80.5 32 -111.5s53.666 -46.5 96.999 -46.5
c40.667 0 74 7.66699 100 23c15.333 -16.667 23 -38 23 -64c-14.667 -13.333 -33.834 -24.166 -57.501 -32.499s-49.834 -13.833 -78.501 -16.5l-27 -36c28 -4.66699 49.833 -15.834 65.5 -33.501z" />
    <glyph glyph-name="egrave" unicode="&#xe8;" horiz-adv-x="545" 
d="M481 186c-102 0 -187.669 -2 -257.002 -6c17.333 -64.667 61.333 -97 132 -97c21.333 0 44 3.66699 68 11s43.333 16.333 58 27c7.33301 -4.66699 13.666 -13.667 18.999 -27s8 -27.333 8 -42c-57.333 -40.667 -126.333 -61 -207 -61c-94.667 0 -163.667 20.667 -207 62
s-65 97.333 -65 168c0 80 23.667 141 71 183s112 63 194 63c48.667 0 89.834 -10.667 123.501 -32s58.334 -49 74.001 -83s22.834 -69.667 21.501 -107c-5.33301 -23.333 -16.333 -43 -33 -59zM334.498 355.5c-11 25 -26.833 37.5 -47.5 37.5c-22 0 -39 -10.833 -51 -32.5
s-18.333 -56.5 -19 -104.5h134c0 41.333 -5.5 74.5 -16.5 99.5zM194.998 614.5c-18.667 22.333 -41.666 45.833 -68.999 70.5c51.333 21.333 106 32 164 32c17.333 -56.667 40.333 -112 69 -166c-25.333 -12 -59.333 -18 -102 -18c-22.667 32 -43.334 59.167 -62.001 81.5z
" />
    <glyph glyph-name="eacute" unicode="&#xe9;" horiz-adv-x="545" 
d="M481 186c-102 0 -187.669 -2 -257.002 -6c17.333 -64.667 61.333 -97 132 -97c21.333 0 44 3.66699 68 11s43.333 16.333 58 27c7.33301 -4.66699 13.666 -13.667 18.999 -27s8 -27.333 8 -42c-57.333 -40.667 -126.333 -61 -207 -61c-94.667 0 -163.667 20.667 -207 62
s-65 97.333 -65 168c0 80 23.667 141 71 183s112 63 194 63c48.667 0 89.834 -10.667 123.501 -32s58.334 -49 74.001 -83s22.834 -69.667 21.501 -107c-5.33301 -23.333 -16.333 -43 -33 -59zM334.498 355.5c-11 25 -26.833 37.5 -47.5 37.5c-22 0 -39 -10.833 -51 -32.5
s-18.333 -56.5 -19 -104.5h134c0 41.333 -5.5 74.5 -16.5 99.5zM392.998 719c26.667 0 47.999 -1.33203 63.999 -3.99902c-56 -66.667 -99.333 -128.334 -130 -185.001c-17.333 0 -35.166 2 -53.499 6s-32.833 8.66699 -43.5 14c30 58.667 50.333 110.667 61 156
c25.333 8.66699 59.333 13 102 13z" />
    <glyph glyph-name="ecircumflex" unicode="&#xea;" horiz-adv-x="545" 
d="M481 186c-102 0 -187.669 -2 -257.002 -6c17.333 -64.667 61.333 -97 132 -97c21.333 0 44 3.66699 68 11s43.333 16.333 58 27c7.33301 -4.66699 13.666 -13.667 18.999 -27s8 -27.333 8 -42c-57.333 -40.667 -126.333 -61 -207 -61c-94.667 0 -163.667 20.667 -207 62
s-65 97.333 -65 168c0 80 23.667 141 71 183s112 63 194 63c48.667 0 89.834 -10.667 123.501 -32s58.334 -49 74.001 -83s22.834 -69.667 21.501 -107c-5.33301 -23.333 -16.333 -43 -33 -59zM334.498 355.5c-11 25 -26.833 37.5 -47.5 37.5c-22 0 -39 -10.833 -51 -32.5
s-18.333 -56.5 -19 -104.5h134c0 41.333 -5.5 74.5 -16.5 99.5zM339.998 723c43.333 -52 96.6689 -104.332 160.002 -156.999c-24 -27.333 -54 -44.333 -90 -51c-42.667 31.333 -87.334 59 -134.001 83c-18.667 -10 -40.834 -23.167 -66.501 -39.5
s-46.5 -30.833 -62.5 -43.5c-14.667 3.33301 -27.667 10.666 -39 21.999s-19 23 -23 35c69.333 46.667 125.333 92 168 136c26.667 10 55.667 15 87 15z" />
    <glyph glyph-name="edieresis" unicode="&#xeb;" horiz-adv-x="545" 
d="M481 186c-102 0 -187.669 -2 -257.002 -6c17.333 -64.667 61.333 -97 132 -97c21.333 0 44 3.66699 68 11s43.333 16.333 58 27c7.33301 -4.66699 13.666 -13.667 18.999 -27s8 -27.333 8 -42c-57.333 -40.667 -126.333 -61 -207 -61c-94.667 0 -163.667 20.667 -207 62
s-65 97.333 -65 168c0 80 23.667 141 71 183s112 63 194 63c48.667 0 89.834 -10.667 123.501 -32s58.334 -49 74.001 -83s22.834 -69.667 21.501 -107c-5.33301 -23.333 -16.333 -43 -33 -59zM334.498 355.5c-11 25 -26.833 37.5 -47.5 37.5c-22 0 -39 -10.833 -51 -32.5
s-18.333 -56.5 -19 -104.5h134c0 41.333 -5.5 74.5 -16.5 99.5zM87.498 650c15.667 17.333 39.167 26.001 70.5 26.001c32.667 0 57 -8 73 -24s24 -37.333 24 -64c0 -23.333 -9 -42.833 -27 -58.5s-40.333 -23.5 -67 -23.5c-28.667 0 -52 7.66699 -70 23s-27 34.333 -27 57
c0 25.333 7.83301 46.666 23.5 63.999zM487.498 531.501c-15 -17 -38.166 -25.499 -69.499 -25.499c-32.667 0 -57.667 8.16699 -75 24.5s-26 38.166 -26 65.499c0 25.333 8.66699 45 26 59s40.666 21 69.999 21c28 0 51.167 -7.66699 69.5 -23s27.5 -34.333 27.5 -57
c0 -26 -7.5 -47.5 -22.5 -64.5z" />
    <glyph glyph-name="igrave" unicode="&#xec;" horiz-adv-x="390" 
d="M296.5 110c3.66699 -12 10.167 -20.501 19.5 -25.501s23 -8.16699 41 -9.5c5.33301 -16.667 8 -42.667 8 -78c-24.667 2 -81 3 -169 3c-88.667 0 -145 -1 -169 -3c0 36 3 62 9 78c18 1.33301 31.5 4.5 40.5 9.5s15.333 13.333 19 25s5.5 29.167 5.5 52.5v127
c0 24 -5 41 -15 51s-29.667 16.333 -59 19c0 33.333 4.33301 58.333 13 75c46.667 0 90 3.33301 130 10s68.667 14.334 86 23.001c23.333 -10.667 35 -32 35 -64v-241c0 -22.667 1.83301 -40 5.5 -52zM105 614.499c-18.667 22.333 -41.666 45.833 -68.999 70.5
c51.333 21.333 106 32 164 32c17.333 -56.667 40.333 -112 69 -166c-25.333 -12 -59.333 -18 -102 -18c-22.667 32 -43.334 59.167 -62.001 81.5z" />
    <glyph glyph-name="iacute" unicode="&#xed;" horiz-adv-x="390" 
d="M296.5 110c3.66699 -12 10.167 -20.501 19.5 -25.501s23 -8.16699 41 -9.5c5.33301 -16.667 8 -42.667 8 -78c-24.667 2 -81 3 -169 3c-88.667 0 -145 -1 -169 -3c0 36 3 62 9 78c18 1.33301 31.5 4.5 40.5 9.5s15.333 13.333 19 25s5.5 29.167 5.5 52.5v127
c0 24 -5 41 -15 51s-29.667 16.333 -59 19c0 33.333 4.33301 58.333 13 75c46.667 0 90 3.33301 130 10s68.667 14.334 86 23.001c23.333 -10.667 35 -32 35 -64v-241c0 -22.667 1.83301 -40 5.5 -52zM303 718.999c26.667 0 47.999 -1.33203 63.999 -3.99902
c-56 -66.667 -99.333 -128.334 -130 -185.001c-17.333 0 -35.166 2 -53.499 6s-32.833 8.66699 -43.5 14c30 58.667 50.333 110.667 61 156c25.333 8.66699 59.333 13 102 13z" />
    <glyph glyph-name="icircumflex" unicode="&#xee;" horiz-adv-x="390" 
d="M296.5 110c3.66699 -12 10.167 -20.501 19.5 -25.501s23 -8.16699 41 -9.5c5.33301 -16.667 8 -42.667 8 -78c-24.667 2 -81 3 -169 3c-88.667 0 -145 -1 -169 -3c0 36 3 62 9 78c18 1.33301 31.5 4.5 40.5 9.5s15.333 13.333 19 25s5.5 29.167 5.5 52.5v127
c0 24 -5 41 -15 51s-29.667 16.333 -59 19c0 33.333 4.33301 58.333 13 75c46.667 0 90 3.33301 130 10s68.667 14.334 86 23.001c23.333 -10.667 35 -32 35 -64v-241c0 -22.667 1.83301 -40 5.5 -52zM250 722.999c43.333 -52 96.6689 -104.332 160.002 -156.999
c-24 -27.333 -54 -44.333 -90 -51c-42.667 31.333 -87.334 59 -134.001 83c-18.667 -10 -40.834 -23.167 -66.501 -39.5s-46.5 -30.833 -62.5 -43.5c-14.667 3.33301 -27.667 10.666 -39 21.999s-19 23 -23 35c69.333 46.667 125.333 92 168 136c26.667 10 55.667 15 87 15z
" />
    <glyph glyph-name="idieresis" unicode="&#xef;" horiz-adv-x="390" 
d="M296.5 110c3.66699 -12 10.167 -20.501 19.5 -25.501s23 -8.16699 41 -9.5c5.33301 -16.667 8 -42.667 8 -78c-24.667 2 -81 3 -169 3c-88.667 0 -145 -1 -169 -3c0 36 3 62 9 78c18 1.33301 31.5 4.5 40.5 9.5s15.333 13.333 19 25s5.5 29.167 5.5 52.5v127
c0 24 -5 41 -15 51s-29.667 16.333 -59 19c0 33.333 4.33301 58.333 13 75c46.667 0 90 3.33301 130 10s68.667 14.334 86 23.001c23.333 -10.667 35 -32 35 -64v-241c0 -22.667 1.83301 -40 5.5 -52zM-2.5 649.999c15.667 17.333 39.167 26.001 70.5 26.001
c32.667 0 57 -8 73 -24s24 -37.333 24 -64c0 -23.333 -9 -42.833 -27 -58.5s-40.333 -23.5 -67 -23.5c-28.667 0 -52 7.66699 -70 23s-27 34.333 -27 57c0 25.333 7.83301 46.666 23.5 63.999zM397.5 531.5c-15 -17 -38.166 -25.499 -69.499 -25.499
c-32.667 0 -57.667 8.16699 -75 24.5s-26 38.166 -26 65.499c0 25.333 8.66699 45 26 59s40.666 21 69.999 21c28 0 51.167 -7.66699 69.5 -23s27.5 -34.333 27.5 -57c0 -26 -7.5 -47.5 -22.5 -64.5z" />
    <glyph glyph-name="eth" unicode="&#xf0;" horiz-adv-x="583" 
d="M513.5 455.5c26.333 -51.667 39.501 -110.502 39.501 -176.502c0 -96 -26.333 -167.833 -79 -215.5s-121.334 -71.5 -206.001 -71.5c-80 0 -139.667 20.167 -179 60.5s-59 94.5 -59 162.5c0 56 12.333 103.833 37 143.5s56.334 69.334 95.001 89.001
s78.667 29.5 120 29.5c6 0 15.667 -0.666992 29 -2c-12 18.667 -28 36.667 -48 54c-62.667 -28.667 -110.334 -52 -143.001 -70c-6 10.667 -10.833 24 -14.5 40s-5.16699 30 -4.5 42l77 34c-32 11.333 -68.333 20 -109 26c0 32.667 7 57.334 21 74.001
c83.333 -4 156.333 -18.667 219 -44l128 56c6 -10.667 10.5 -23.667 13.5 -39s4.5 -29.666 4.5 -42.999l-57 -20c50.667 -34.667 89.167 -77.834 115.5 -129.501zM331.501 90.498c9 7.66699 16.334 23.168 22.001 46.501s8.5 57.666 8.5 102.999
c0 44.667 -3 84.334 -9 119.001c-14.667 12.667 -30.334 19 -47.001 19c-26 0 -46.667 -12.833 -62 -38.5s-23 -65.834 -23 -120.501c0 -48.667 6.5 -84.167 19.5 -106.5s32.167 -33.5 57.5 -33.5c13.333 0 24.5 3.83301 33.5 11.5z" />
    <glyph glyph-name="ntilde" unicode="&#xf1;" horiz-adv-x="706" 
d="M681 -3c-60 2 -106.331 2.99707 -138.998 2.99707c-78.667 0 -133 -1 -163 -3c0 34 3.33301 60 10 78c32 0 48 32.667 48 98v69c0 37.333 -4.83301 63.833 -14.5 79.5s-25.5 23.5 -47.5 23.5c-24.667 0 -44.834 -14.5 -60.501 -43.5s-23.5 -66.167 -23.5 -111.5v-28
c0 -33.333 3.83301 -56.166 11.5 -68.499s19.5 -18.5 35.5 -18.5c7.33301 -18 11 -44 11 -78c-30 2 -81 3 -153 3c-82.667 0 -139 -1 -169 -3c0 34.667 3.33301 60.667 10 78c25.333 0 42.333 6 51 18s13 35 13 69v108c0 24 -1.5 41.5 -4.5 52.5s-9.33301 19.333 -19 25
s-25.5 9.5 -47.5 11.5c0 33.333 4.33301 58.333 13 75c46.667 0 89.667 3.33301 129 10s67.666 14.334 84.999 23.001c22.667 -10 34 -31.333 34 -64c0 -14.667 -4 -35 -12 -61c6.66699 16.667 12.834 30 18.501 40s12.5 19 20.5 27c16.667 16.667 36.5 29.667 59.5 39
s48.167 14 75.5 14c49.333 0 90.666 -13.5 123.999 -40.5s50 -67.833 50 -122.5v-137c0 -33.333 3 -56.166 9 -68.499s17.333 -18.5 34 -18.5c7.33301 -18 11 -44 11 -78zM300.002 686.997c15.333 0 29.167 -1.83301 41.5 -5.5s27.166 -9.5 44.499 -17.5
c14.667 -6 26.5 -10.5 35.5 -13.5s18.5 -4.5 28.5 -4.5c34 0 62 11 84 33c22.667 -14 37.334 -31.333 44.001 -52c-22 -44.667 -44.5 -77.5 -67.5 -98.5s-49.5 -31.5 -79.5 -31.5c-16.667 0 -31.167 2 -43.5 6s-26.5 10 -42.5 18c-15.333 6.66699 -27.833 11.667 -37.5 15
s-20.5 5 -32.5 5c-36 0 -69.667 -13.667 -101 -41c-20.667 17.333 -32.667 38.333 -36 63c51.333 82.667 105.333 124 162 124z" />
    <glyph glyph-name="ograve" unicode="&#xf2;" horiz-adv-x="608" 
d="M509 404c46 -42 68.999 -97.667 68.999 -167c0 -78 -24.833 -138.5 -74.5 -181.5s-118.167 -64.5 -205.5 -64.5c-88 0 -154.667 20.167 -200 60.5s-68 96.5 -68 168.5c0 54.667 12.167 100.5 36.5 137.5s57.333 64.5 99 82.5s88.834 27 141.501 27
c88.667 0 156 -21 202 -63zM238.499 356.5c-12.333 -25.667 -18.5 -58.5 -18.5 -98.5c0 -54.667 8.33301 -100 25 -136s40.667 -54 72 -54c22 0 39.333 12.833 52 38.5s19 58.167 19 97.5c0 41.333 -4.5 76.333 -13.5 105s-20.833 50.167 -35.5 64.5
s-30.334 21.5 -47.001 21.5c-23.333 0 -41.166 -12.833 -53.499 -38.5zM208.999 614.5c-18.667 22.333 -41.666 45.833 -68.999 70.5c51.333 21.333 106 32 164 32c17.333 -56.667 40.333 -112 69 -166c-25.333 -12 -59.333 -18 -102 -18
c-22.667 32 -43.334 59.167 -62.001 81.5z" />
    <glyph glyph-name="oacute" unicode="&#xf3;" horiz-adv-x="608" 
d="M509 404c46 -42 68.999 -97.667 68.999 -167c0 -78 -24.833 -138.5 -74.5 -181.5s-118.167 -64.5 -205.5 -64.5c-88 0 -154.667 20.167 -200 60.5s-68 96.5 -68 168.5c0 54.667 12.167 100.5 36.5 137.5s57.333 64.5 99 82.5s88.834 27 141.501 27
c88.667 0 156 -21 202 -63zM238.499 356.5c-12.333 -25.667 -18.5 -58.5 -18.5 -98.5c0 -54.667 8.33301 -100 25 -136s40.667 -54 72 -54c22 0 39.333 12.833 52 38.5s19 58.167 19 97.5c0 41.333 -4.5 76.333 -13.5 105s-20.833 50.167 -35.5 64.5
s-30.334 21.5 -47.001 21.5c-23.333 0 -41.166 -12.833 -53.499 -38.5zM406.999 719c26.667 0 47.999 -1.33203 63.999 -3.99902c-56 -66.667 -99.333 -128.334 -130 -185.001c-17.333 0 -35.166 2 -53.499 6s-32.833 8.66699 -43.5 14c30 58.667 50.333 110.667 61 156
c25.333 8.66699 59.333 13 102 13z" />
    <glyph glyph-name="ocircumflex" unicode="&#xf4;" horiz-adv-x="608" 
d="M509 404c46 -42 68.999 -97.667 68.999 -167c0 -78 -24.833 -138.5 -74.5 -181.5s-118.167 -64.5 -205.5 -64.5c-88 0 -154.667 20.167 -200 60.5s-68 96.5 -68 168.5c0 54.667 12.167 100.5 36.5 137.5s57.333 64.5 99 82.5s88.834 27 141.501 27
c88.667 0 156 -21 202 -63zM238.499 356.5c-12.333 -25.667 -18.5 -58.5 -18.5 -98.5c0 -54.667 8.33301 -100 25 -136s40.667 -54 72 -54c22 0 39.333 12.833 52 38.5s19 58.167 19 97.5c0 41.333 -4.5 76.333 -13.5 105s-20.833 50.167 -35.5 64.5
s-30.334 21.5 -47.001 21.5c-23.333 0 -41.166 -12.833 -53.499 -38.5zM353.999 723c43.333 -52 96.6689 -104.332 160.002 -156.999c-24 -27.333 -54 -44.333 -90 -51c-42.667 31.333 -87.334 59 -134.001 83c-18.667 -10 -40.834 -23.167 -66.501 -39.5
s-46.5 -30.833 -62.5 -43.5c-14.667 3.33301 -27.667 10.666 -39 21.999s-19 23 -23 35c69.333 46.667 125.333 92 168 136c26.667 10 55.667 15 87 15z" />
    <glyph glyph-name="otilde" unicode="&#xf5;" horiz-adv-x="608" 
d="M509 404c46 -42 68.999 -97.667 68.999 -167c0 -78 -24.833 -138.5 -74.5 -181.5s-118.167 -64.5 -205.5 -64.5c-88 0 -154.667 20.167 -200 60.5s-68 96.5 -68 168.5c0 54.667 12.167 100.5 36.5 137.5s57.333 64.5 99 82.5s88.834 27 141.501 27
c88.667 0 156 -21 202 -63zM238.499 356.5c-12.333 -25.667 -18.5 -58.5 -18.5 -98.5c0 -54.667 8.33301 -100 25 -136s40.667 -54 72 -54c22 0 39.333 12.833 52 38.5s19 58.167 19 97.5c0 41.333 -4.5 76.333 -13.5 105s-20.833 50.167 -35.5 64.5
s-30.334 21.5 -47.001 21.5c-23.333 0 -41.166 -12.833 -53.499 -38.5zM241.999 687c15.333 0 29.167 -1.83301 41.5 -5.5s27.166 -9.5 44.499 -17.5c14.667 -6 26.5 -10.5 35.5 -13.5s18.5 -4.5 28.5 -4.5c34 0 62 11 84 33c22.667 -14 37.334 -31.333 44.001 -52
c-22 -44.667 -44.5 -77.5 -67.5 -98.5s-49.5 -31.5 -79.5 -31.5c-16.667 0 -31.167 2 -43.5 6s-26.5 10 -42.5 18c-15.333 6.66699 -27.833 11.667 -37.5 15s-20.5 5 -32.5 5c-36 0 -69.667 -13.667 -101 -41c-20.667 17.333 -32.667 38.333 -36 63
c51.333 82.667 105.333 124 162 124z" />
    <glyph glyph-name="odieresis" unicode="&#xf6;" horiz-adv-x="608" 
d="M509 404c46 -42 68.999 -97.667 68.999 -167c0 -78 -24.833 -138.5 -74.5 -181.5s-118.167 -64.5 -205.5 -64.5c-88 0 -154.667 20.167 -200 60.5s-68 96.5 -68 168.5c0 54.667 12.167 100.5 36.5 137.5s57.333 64.5 99 82.5s88.834 27 141.501 27
c88.667 0 156 -21 202 -63zM238.499 356.5c-12.333 -25.667 -18.5 -58.5 -18.5 -98.5c0 -54.667 8.33301 -100 25 -136s40.667 -54 72 -54c22 0 39.333 12.833 52 38.5s19 58.167 19 97.5c0 41.333 -4.5 76.333 -13.5 105s-20.833 50.167 -35.5 64.5
s-30.334 21.5 -47.001 21.5c-23.333 0 -41.166 -12.833 -53.499 -38.5zM101.499 650c15.667 17.333 39.167 26.001 70.5 26.001c32.667 0 57 -8 73 -24s24 -37.333 24 -64c0 -23.333 -9 -42.833 -27 -58.5s-40.333 -23.5 -67 -23.5c-28.667 0 -52 7.66699 -70 23
s-27 34.333 -27 57c0 25.333 7.83301 46.666 23.5 63.999zM501.499 531.501c-15 -17 -38.166 -25.499 -69.499 -25.499c-32.667 0 -57.667 8.16699 -75 24.5s-26 38.166 -26 65.499c0 25.333 8.66699 45 26 59s40.666 21 69.999 21c28 0 51.167 -7.66699 69.5 -23
s27.5 -34.333 27.5 -57c0 -26 -7.5 -47.5 -22.5 -64.5z" />
    <glyph glyph-name="divide" unicode="&#xf7;" horiz-adv-x="540" 
d="M332 384.5c-14.667 -17.667 -34.333 -26.5 -59 -26.5c-62 0 -93 27.667 -93 83c0 26.667 8.66699 47 26 61s38.333 21.667 63 23c24 0 44.167 -6.66699 60.5 -20s24.5 -31 24.5 -53c0 -27.333 -7.33301 -49.833 -22 -67.5zM503.501 259
c-1.66699 -11.333 -5.16699 -24.001 -10.5 -38.001l-212 1c-74.667 0 -155.667 -1 -243 -3c0 36 4.33301 64.667 13 86h455c0 -19.333 -0.833008 -34.666 -2.5 -45.999zM209.501 139.999c13.667 15.333 34.833 23 63.5 23c30 0 52.167 -7.33301 66.5 -22s21.5 -35 21.5 -61
c0 -24.667 -8.16699 -44.5 -24.5 -59.5s-36.833 -22.5 -61.5 -22.5s-45.167 7.83301 -61.5 23.5s-24.5 35.167 -24.5 58.5c0 24.667 6.83301 44.667 20.5 60z" />
    <glyph glyph-name="oslash" unicode="&#xf8;" horiz-adv-x="608" 
d="M578 237c0 -78 -24.835 -138.501 -74.502 -181.501s-118.167 -64.5 -205.5 -64.5c-43.333 0 -81 5 -113 15l-35 -45c-47.333 0 -82 7.33301 -104 22l54 67c-46.667 40 -70 96.667 -70 170c0 54.667 12.167 100.5 36.5 137.5s57.333 64.5 99 82.5s88.834 27 141.501 27
c46.667 0 88.334 -6.33301 125.001 -19l26 34c20 0 39.667 -2.16699 59 -6.5s34.333 -10.166 45 -17.499l-47 -60c42 -39.333 63 -93 63 -161zM238.498 356.499c-12.333 -25.667 -18.501 -58.5 -18.501 -98.5c0 -24 1.33301 -45 4 -63l127 164c-16 24 -35.667 36 -59 36
s-41.166 -12.833 -53.499 -38.5zM368.997 106.499c12.667 25.667 19 58.168 19 97.501c0 11.333 -0.666992 25.666 -2 42.999l-121 -155c14.667 -16 32 -24 52 -24c22 0 39.333 12.833 52 38.5z" />
    <glyph glyph-name="ugrave" unicode="&#xf9;" horiz-adv-x="649" 
d="M640 78c0 -20 -4.33496 -37.6699 -13.002 -53.0029c-64.667 -1.33301 -124.667 -12.666 -180 -33.999c-14 5.33301 -23.833 12.666 -29.5 21.999s-8.5 21 -8.5 35c0 14.667 2.33301 31.334 7 50.001c-9.33301 -27.333 -22 -48 -38 -62c-14 -12.667 -33.5 -23 -58.5 -31
s-53.167 -12 -84.5 -12c-53.333 0 -93 14.333 -119 43s-39 77 -39 145v89c0 23.333 -1.33301 40.666 -4 51.999s-8.33398 19.833 -17.001 25.5s-22.334 9.5 -41.001 11.5c0 33.333 4.33301 58.333 13 75c46 0 87.167 3.33301 123.5 10s63.5 14.334 81.5 23.001
c22.667 -10 34 -31.333 34 -64v-196c0 -42.667 3.5 -71.834 10.5 -87.501s17.833 -23.5 32.5 -23.5c22.667 0 42 12.833 58 38.5s24 62.834 24 111.501v29c0 22.667 -1.83301 40 -5.5 52s-10.5 20.667 -20.5 26s-25 9 -45 11c0 33.333 4.33301 58.333 13 75
c48.667 0 92.334 2.66699 131.001 8s66.334 12 83.001 20c22.667 -10 34 -31.333 34 -64v-207c0 -27.333 1.33301 -47.166 4 -59.499s7.83398 -20.666 15.501 -24.999s19.834 -6.83301 36.501 -7.5c1.33301 -6 2 -14.667 2 -26zM240.998 614.497
c-18.667 22.333 -41.666 45.833 -68.999 70.5c51.333 21.333 106 32 164 32c17.333 -56.667 40.333 -112 69 -166c-25.333 -12 -59.333 -18 -102 -18c-22.667 32 -43.334 59.167 -62.001 81.5z" />
    <glyph glyph-name="uacute" unicode="&#xfa;" horiz-adv-x="649" 
d="M640 78c0 -20 -4.33496 -37.6699 -13.002 -53.0029c-64.667 -1.33301 -124.667 -12.666 -180 -33.999c-14 5.33301 -23.833 12.666 -29.5 21.999s-8.5 21 -8.5 35c0 14.667 2.33301 31.334 7 50.001c-9.33301 -27.333 -22 -48 -38 -62c-14 -12.667 -33.5 -23 -58.5 -31
s-53.167 -12 -84.5 -12c-53.333 0 -93 14.333 -119 43s-39 77 -39 145v89c0 23.333 -1.33301 40.666 -4 51.999s-8.33398 19.833 -17.001 25.5s-22.334 9.5 -41.001 11.5c0 33.333 4.33301 58.333 13 75c46 0 87.167 3.33301 123.5 10s63.5 14.334 81.5 23.001
c22.667 -10 34 -31.333 34 -64v-196c0 -42.667 3.5 -71.834 10.5 -87.501s17.833 -23.5 32.5 -23.5c22.667 0 42 12.833 58 38.5s24 62.834 24 111.501v29c0 22.667 -1.83301 40 -5.5 52s-10.5 20.667 -20.5 26s-25 9 -45 11c0 33.333 4.33301 58.333 13 75
c48.667 0 92.334 2.66699 131.001 8s66.334 12 83.001 20c22.667 -10 34 -31.333 34 -64v-207c0 -27.333 1.33301 -47.166 4 -59.499s7.83398 -20.666 15.501 -24.999s19.834 -6.83301 36.501 -7.5c1.33301 -6 2 -14.667 2 -26zM438.998 718.997
c26.667 0 47.999 -1.33203 63.999 -3.99902c-56 -66.667 -99.333 -128.334 -130 -185.001c-17.333 0 -35.166 2 -53.499 6s-32.833 8.66699 -43.5 14c30 58.667 50.333 110.667 61 156c25.333 8.66699 59.333 13 102 13z" />
    <glyph glyph-name="ucircumflex" unicode="&#xfb;" horiz-adv-x="649" 
d="M640 78c0 -20 -4.33496 -37.6699 -13.002 -53.0029c-64.667 -1.33301 -124.667 -12.666 -180 -33.999c-14 5.33301 -23.833 12.666 -29.5 21.999s-8.5 21 -8.5 35c0 14.667 2.33301 31.334 7 50.001c-9.33301 -27.333 -22 -48 -38 -62c-14 -12.667 -33.5 -23 -58.5 -31
s-53.167 -12 -84.5 -12c-53.333 0 -93 14.333 -119 43s-39 77 -39 145v89c0 23.333 -1.33301 40.666 -4 51.999s-8.33398 19.833 -17.001 25.5s-22.334 9.5 -41.001 11.5c0 33.333 4.33301 58.333 13 75c46 0 87.167 3.33301 123.5 10s63.5 14.334 81.5 23.001
c22.667 -10 34 -31.333 34 -64v-196c0 -42.667 3.5 -71.834 10.5 -87.501s17.833 -23.5 32.5 -23.5c22.667 0 42 12.833 58 38.5s24 62.834 24 111.501v29c0 22.667 -1.83301 40 -5.5 52s-10.5 20.667 -20.5 26s-25 9 -45 11c0 33.333 4.33301 58.333 13 75
c48.667 0 92.334 2.66699 131.001 8s66.334 12 83.001 20c22.667 -10 34 -31.333 34 -64v-207c0 -27.333 1.33301 -47.166 4 -59.499s7.83398 -20.666 15.501 -24.999s19.834 -6.83301 36.501 -7.5c1.33301 -6 2 -14.667 2 -26zM385.998 722.997
c43.333 -52 96.6689 -104.332 160.002 -156.999c-24 -27.333 -54 -44.333 -90 -51c-42.667 31.333 -87.334 59 -134.001 83c-18.667 -10 -40.834 -23.167 -66.501 -39.5s-46.5 -30.833 -62.5 -43.5c-14.667 3.33301 -27.667 10.666 -39 21.999s-19 23 -23 35
c69.333 46.667 125.333 92 168 136c26.667 10 55.667 15 87 15z" />
    <glyph glyph-name="udieresis" unicode="&#xfc;" horiz-adv-x="649" 
d="M640 78c0 -20 -4.33496 -37.6699 -13.002 -53.0029c-64.667 -1.33301 -124.667 -12.666 -180 -33.999c-14 5.33301 -23.833 12.666 -29.5 21.999s-8.5 21 -8.5 35c0 14.667 2.33301 31.334 7 50.001c-9.33301 -27.333 -22 -48 -38 -62c-14 -12.667 -33.5 -23 -58.5 -31
s-53.167 -12 -84.5 -12c-53.333 0 -93 14.333 -119 43s-39 77 -39 145v89c0 23.333 -1.33301 40.666 -4 51.999s-8.33398 19.833 -17.001 25.5s-22.334 9.5 -41.001 11.5c0 33.333 4.33301 58.333 13 75c46 0 87.167 3.33301 123.5 10s63.5 14.334 81.5 23.001
c22.667 -10 34 -31.333 34 -64v-196c0 -42.667 3.5 -71.834 10.5 -87.501s17.833 -23.5 32.5 -23.5c22.667 0 42 12.833 58 38.5s24 62.834 24 111.501v29c0 22.667 -1.83301 40 -5.5 52s-10.5 20.667 -20.5 26s-25 9 -45 11c0 33.333 4.33301 58.333 13 75
c48.667 0 92.334 2.66699 131.001 8s66.334 12 83.001 20c22.667 -10 34 -31.333 34 -64v-207c0 -27.333 1.33301 -47.166 4 -59.499s7.83398 -20.666 15.501 -24.999s19.834 -6.83301 36.501 -7.5c1.33301 -6 2 -14.667 2 -26zM133.498 649.997
c15.667 17.333 39.167 26.001 70.5 26.001c32.667 0 57 -8 73 -24s24 -37.333 24 -64c0 -23.333 -9 -42.833 -27 -58.5s-40.333 -23.5 -67 -23.5c-28.667 0 -52 7.66699 -70 23s-27 34.333 -27 57c0 25.333 7.83301 46.666 23.5 63.999zM533.498 531.498
c-15 -17 -38.166 -25.499 -69.499 -25.499c-32.667 0 -57.667 8.16699 -75 24.5s-26 38.166 -26 65.499c0 25.333 8.66699 45 26 59s40.666 21 69.999 21c28 0 51.167 -7.66699 69.5 -23s27.5 -34.333 27.5 -57c0 -26 -7.5 -47.5 -22.5 -64.5z" />
    <glyph glyph-name="yacute" unicode="&#xfd;" horiz-adv-x="579" 
d="M569 462c0 -31.333 -4.33496 -57.6641 -13.002 -78.9971c-15.333 -4 -27.5 -10.667 -36.5 -20s-18.833 -26 -29.5 -50l-147 -350c-24.667 -59.333 -47.334 -104.166 -68.001 -134.499s-40.667 -50.833 -60 -61.5s-41.666 -16 -66.999 -16
c-22 0 -43.833 5.16699 -65.5 15.5s-37.834 23.166 -48.501 38.499c-0.666992 4 -1 11.667 -1 23c0 32.667 4.66699 61 14 85c32.667 -12.667 71.334 -19 116.001 -19c24 0 42.167 3 54.5 9s23.833 17.333 34.5 34l5 9c-52.667 125.333 -109.334 249.666 -170.001 372.999
c-11.333 23.333 -21.833 39.166 -31.5 47.499s-21.5 13.833 -35.5 16.5c-6.66699 19.333 -10 45.333 -10 78c38 -2 89 -3 153 -3c73.333 0 130.333 1 171 3c0 -13.333 -1.16699 -27.666 -3.5 -42.999s-5.16602 -27 -8.49902 -35
c-15.333 -2.66699 -26.166 -5.83398 -32.499 -9.50098s-9.5 -9.16699 -9.5 -16.5c0 -9.33301 6.33301 -26 19 -50c20.667 -40.667 39.667 -84.334 57 -131.001l48 122c10 24 15 42 15 54c0 9.33301 -2.83301 16.333 -8.5 21s-14.5 8 -26.5 10
c-7.33301 18.667 -11 44.667 -11 78c31.333 -2 65 -3 101 -3c36.667 0 68.334 1.33301 95.001 4zM460.998 719.002c26.667 0 47.999 -1.33203 63.999 -3.99902c-56 -66.667 -99.333 -128.334 -130 -185.001c-17.333 0 -35.166 2 -53.499 6s-32.833 8.66699 -43.5 14
c30 58.667 50.333 110.667 61 156c25.333 8.66699 59.333 13 102 13z" />
    <glyph glyph-name="thorn" unicode="&#xfe;" horiz-adv-x="673" 
d="M284 -2l-0.000976562 -43.001c0 -43.333 7.66699 -73.833 23 -91.5s44 -27.834 86 -30.501c6 -16.667 9 -42.667 9 -78c-38 2 -98 3 -180 3c-88.667 0 -156 -1 -202 -3c0 34 2.33301 60 7 78c19.333 1.33301 33.5 5 42.5 11s15.333 16.5 19 31.5s5.5 38.167 5.5 69.5v594
c0 24 -5 41 -15 51s-29.667 16.333 -59 19c0 33.333 4.33301 58.333 13 75c46.667 0 90 3.33301 130 10s68.667 14.334 86 23.001c23.333 -10.667 35 -32 35 -64v-173c0 -33.333 -2.33301 -62 -7 -86c8.66699 12 19.667 23.333 33 34c14 10.667 32.5 19.834 55.5 27.501
s47.167 11.5 72.5 11.5c61.333 0 110.833 -16.667 148.5 -50s56.5 -84 56.5 -152c0 -54.667 -12.333 -102.667 -37 -144s-59.167 -73.333 -103.5 -96s-95.833 -34 -154.5 -34c-21.333 0 -42.666 2.33301 -63.999 7zM309.999 332.499
c-17.333 -24.333 -25.999 -62.5 -25.999 -114.5v-122c9.33301 -12 18.833 -20.667 28.5 -26s21.167 -8 34.5 -8c29.333 0 54.166 12.5 74.499 37.5s30.5 70.5 30.5 136.5c0 38 -5.83301 69.667 -17.5 95s-31.834 38 -60.501 38c-25.333 0 -46.666 -12.167 -63.999 -36.5z
" />
    <glyph glyph-name="ydieresis" unicode="&#xff;" horiz-adv-x="579" 
d="M569 462c0 -31.333 -4.33496 -57.6641 -13.002 -78.9971c-15.333 -4 -27.5 -10.667 -36.5 -20s-18.833 -26 -29.5 -50l-147 -350c-24.667 -59.333 -47.334 -104.166 -68.001 -134.499s-40.667 -50.833 -60 -61.5s-41.666 -16 -66.999 -16
c-22 0 -43.833 5.16699 -65.5 15.5s-37.834 23.166 -48.501 38.499c-0.666992 4 -1 11.667 -1 23c0 32.667 4.66699 61 14 85c32.667 -12.667 71.334 -19 116.001 -19c24 0 42.167 3 54.5 9s23.833 17.333 34.5 34l5 9c-52.667 125.333 -109.334 249.666 -170.001 372.999
c-11.333 23.333 -21.833 39.166 -31.5 47.499s-21.5 13.833 -35.5 16.5c-6.66699 19.333 -10 45.333 -10 78c38 -2 89 -3 153 -3c73.333 0 130.333 1 171 3c0 -13.333 -1.16699 -27.666 -3.5 -42.999s-5.16602 -27 -8.49902 -35
c-15.333 -2.66699 -26.166 -5.83398 -32.499 -9.50098s-9.5 -9.16699 -9.5 -16.5c0 -9.33301 6.33301 -26 19 -50c20.667 -40.667 39.667 -84.334 57 -131.001l48 122c10 24 15 42 15 54c0 9.33301 -2.83301 16.333 -8.5 21s-14.5 8 -26.5 10
c-7.33301 18.667 -11 44.667 -11 78c31.333 -2 65 -3 101 -3c36.667 0 68.334 1.33301 95.001 4zM155.498 650.002c15.667 17.333 39.167 26.001 70.5 26.001c32.667 0 57 -8 73 -24s24 -37.333 24 -64c0 -23.333 -9 -42.833 -27 -58.5s-40.333 -23.5 -67 -23.5
c-28.667 0 -52 7.66699 -70 23s-27 34.333 -27 57c0 25.333 7.83301 46.666 23.5 63.999zM555.498 531.503c-15 -17 -38.166 -25.499 -69.499 -25.499c-32.667 0 -57.667 8.16699 -75 24.5s-26 38.166 -26 65.499c0 25.333 8.66699 45 26 59s40.666 21 69.999 21
c28 0 51.167 -7.66699 69.5 -23s27.5 -34.333 27.5 -57c0 -26 -7.5 -47.5 -22.5 -64.5z" />
    <glyph glyph-name="Amacron" unicode="&#x100;" horiz-adv-x="717" 
d="M707 -3c-26.667 2 -78.999 3.00098 -156.999 3.00098c-92 0 -150.667 -1 -176 -3c0 30.667 2.66699 56.667 8 78c28 6.66699 42 19 42 37c0 9.33301 -3.66699 22.333 -11 39l-7 15c-87.333 0 -163 -3.33301 -227 -10l-2 -4c-3.33301 -8.66699 -5 -17.334 -5 -26.001
c0 -12.667 3.5 -23.667 10.5 -33s17.833 -15.333 32.5 -18c5.33301 -22.667 8 -48.667 8 -78c-22.667 2 -61.667 3 -117 3c-44 0 -76 -1 -96 -3c0 31.333 3.33301 57.333 10 78c16 3.33301 29.167 11.5 39.5 24.5s23.833 38.5 40.5 76.5l212 500c17.333 4 42.666 6 75.999 6
l222 -487c16 -34.667 28.667 -60.167 38 -76.5s17.5 -27.333 24.5 -33s15.833 -9.16699 26.5 -10.5c5.33301 -18 8 -44 8 -78zM340.001 316.001c-22 49.333 -39 95.333 -51 138c-12 -43.333 -28 -89.333 -48 -138l-33 -85h170zM533.001 791.001
c-135.333 0 -260.333 -3.33398 -375 -10.001c0 29.333 3 52 9 68h375c0 -21.333 -3 -40.666 -9 -57.999z" />
    <glyph glyph-name="amacron" unicode="&#x101;" horiz-adv-x="589" 
d="M576 78c0 -20 -4.33398 -37.6689 -13.001 -53.002c-64.667 -1.33301 -124.667 -12.666 -180 -33.999c-14 5.33301 -23.833 12.666 -29.5 21.999s-8.5 21 -8.5 35c0 16.667 2.33301 33.334 7 50.001c-14 -30.667 -30.333 -53.334 -49 -68.001
c-33.333 -24.667 -72.666 -37 -117.999 -37c-106.667 0 -160 40 -160 120c0 42 16.667 75 50 99s70.166 41 110.499 51s87.833 18.667 142.5 26c0 22.667 -1.66699 40.667 -5 54s-9.33301 24.666 -18 33.999c-6 6.66699 -13.667 11.834 -23 15.501s-18.666 5.5 -27.999 5.5
c-40 0 -64 -36.333 -72 -109c-26.667 0 -47.834 0.833008 -63.501 2.5s-30.834 5.16699 -45.501 10.5c1.33301 17.333 2 31 2 41c0 26 -3 55.333 -9 88c64 24 135.667 36 215 36c52.667 0 93.667 -3.83301 123 -11.5s52 -20.5 68 -38.5c14.667 -15.333 26 -35 34 -59
s12 -58 12 -102v-66c0 -25.333 1.33301 -43.666 4 -54.999s7.83398 -19.166 15.501 -23.499s19.834 -6.83301 36.501 -7.5c1.33301 -6 2 -14.667 2 -26zM237.499 192.998c-18.333 -13.333 -27.5 -29.667 -27.5 -49c0 -28 12.667 -42 38 -42c20.667 0 39.167 9.5 55.5 28.5
s24.5 44.833 24.5 77.5v17c-42 -8 -72.167 -18.667 -90.5 -32zM455.999 572.997c-135.333 0 -260.333 -3.33398 -375 -10.001c0 29.333 3 52 9 68h375c0 -21.333 -3 -40.666 -9 -57.999z" />
    <glyph glyph-name="Abreve" unicode="&#x102;" horiz-adv-x="717" 
d="M707 -3c-26.667 2 -78.999 3.00098 -156.999 3.00098c-92 0 -150.667 -1 -176 -3c0 30.667 2.66699 56.667 8 78c28 6.66699 42 19 42 37c0 9.33301 -3.66699 22.333 -11 39l-7 15c-87.333 0 -163 -3.33301 -227 -10l-2 -4c-3.33301 -8.66699 -5 -17.334 -5 -26.001
c0 -12.667 3.5 -23.667 10.5 -33s17.833 -15.333 32.5 -18c5.33301 -22.667 8 -48.667 8 -78c-22.667 2 -61.667 3 -117 3c-44 0 -76 -1 -96 -3c0 31.333 3.33301 57.333 10 78c16 3.33301 29.167 11.5 39.5 24.5s23.833 38.5 40.5 76.5l212 500c17.333 4 42.666 6 75.999 6
l222 -487c16 -34.667 28.667 -60.167 38 -76.5s17.5 -27.333 24.5 -33s15.833 -9.16699 26.5 -10.5c5.33301 -18 8 -44 8 -78zM340.001 316.001c-22 49.333 -39 95.333 -51 138c-12 -43.333 -28 -89.333 -48 -138l-33 -85h170zM499.001 783.001
c-35.333 -32 -87.333 -48 -156 -48c-67.333 0 -118.333 15.5 -153 46.5s-52 76.833 -52 137.5c22 9.33301 47.667 14 77 14c6 0 15.667 -0.666992 29 -2c4 -24 15.833 -42.5 35.5 -55.5s45.5 -19.5 77.5 -19.5c31.333 0 56.166 6.5 74.499 19.5s28.166 31.5 29.499 55.5
c10.667 2 21.334 3 32.001 3c20.667 0 40.334 -3.33301 59.001 -10c0 -62 -17.667 -109 -53 -141z" />
    <glyph glyph-name="abreve" unicode="&#x103;" horiz-adv-x="589" 
d="M576 78c0 -20 -4.33398 -37.6689 -13.001 -53.002c-64.667 -1.33301 -124.667 -12.666 -180 -33.999c-14 5.33301 -23.833 12.666 -29.5 21.999s-8.5 21 -8.5 35c0 16.667 2.33301 33.334 7 50.001c-14 -30.667 -30.333 -53.334 -49 -68.001
c-33.333 -24.667 -72.666 -37 -117.999 -37c-106.667 0 -160 40 -160 120c0 42 16.667 75 50 99s70.166 41 110.499 51s87.833 18.667 142.5 26c0 22.667 -1.66699 40.667 -5 54s-9.33301 24.666 -18 33.999c-6 6.66699 -13.667 11.834 -23 15.501s-18.666 5.5 -27.999 5.5
c-40 0 -64 -36.333 -72 -109c-26.667 0 -47.834 0.833008 -63.501 2.5s-30.834 5.16699 -45.501 10.5c1.33301 17.333 2 31 2 41c0 26 -3 55.333 -9 88c64 24 135.667 36 215 36c52.667 0 93.667 -3.83301 123 -11.5s52 -20.5 68 -38.5c14.667 -15.333 26 -35 34 -59
s12 -58 12 -102v-66c0 -25.333 1.33301 -43.666 4 -54.999s7.83398 -19.166 15.501 -23.499s19.834 -6.83301 36.501 -7.5c1.33301 -6 2 -14.667 2 -26zM237.499 192.998c-18.333 -13.333 -27.5 -29.667 -27.5 -49c0 -28 12.667 -42 38 -42c20.667 0 39.167 9.5 55.5 28.5
s24.5 44.833 24.5 77.5v17c-42 -8 -72.167 -18.667 -90.5 -32zM421.999 564.997c-35.333 -32 -87.333 -48 -156 -48c-67.333 0 -118.333 15.5 -153 46.5s-52 76.833 -52 137.5c22 9.33301 47.667 14 77 14c6 0 15.667 -0.666992 29 -2c4 -24 15.833 -42.5 35.5 -55.5
s45.5 -19.5 77.5 -19.5c31.333 0 56.166 6.5 74.499 19.5s28.166 31.5 29.499 55.5c10.667 2 21.334 3 32.001 3c20.667 0 40.334 -3.33301 59.001 -10c0 -62 -17.667 -109 -53 -141z" />
    <glyph glyph-name="Aogonek" unicode="&#x104;" horiz-adv-x="717" 
d="M638 -124c4.66699 -6 8.83691 -16.501 12.5039 -31.501s5.5 -28.833 5.5 -41.5c0 -6 -0.333008 -10.333 -1 -13c-54.667 -8 -99.334 -20.667 -134.001 -38c-6.66699 -0.666992 -14.334 -1 -23.001 -1c-20 0 -40.167 4.16699 -60.5 12.5s-37.5 21 -51.5 38
s-21 37.833 -21 62.5c0 60.667 42.667 106 128 136c-55.333 0 -95 -1 -119 -3c0 30.667 2.66699 56.667 8 78c28 6.66699 42 19 42 37c0 9.33301 -3.66699 22.333 -11 39l-7 15c-87.333 0 -163 -3.33301 -227 -10l-2 -4c-3.33301 -8.66699 -5 -17.334 -5 -26.001
c0 -12.667 3.5 -23.667 10.5 -33s17.833 -15.333 32.5 -18c5.33301 -22.667 8 -48.667 8 -78c-23.333 2 -62.333 3 -117 3c-44 0 -76 -1 -96 -3c0 31.333 3.33301 57.333 10 78c16 3.33301 29.167 11.5 39.5 24.5s23.833 38.5 40.5 76.5l212 500c17.333 4 42.666 6 75.999 6
l222 -487c16 -34.667 28.667 -60.167 38 -76.5s17.5 -27.333 24.5 -33s15.833 -9.16699 26.5 -10.5c5.33301 -18 8 -44 8 -78c-18.667 1.33301 -36.334 2 -53.001 2l-29 1c-34 -9.33301 -58.667 -21.666 -74 -36.999s-23 -30.666 -23 -45.999
c0 -14.667 6.66699 -25.667 20 -33s32 -11 56 -11c12.667 0 24 1 34 3zM340.003 315.999c-22 49.333 -39 95.333 -51 138c-12 -42.667 -28 -88.667 -48 -138l-33 -85h170z" />
    <glyph glyph-name="aogonek" unicode="&#x105;" horiz-adv-x="589" 
d="M555 -124c4.66699 -6 8.83496 -16.502 12.502 -31.502s5.5 -28.833 5.5 -41.5c0 -6 -0.333008 -10.333 -1 -13c-54.667 -8 -99.334 -20.667 -134.001 -38c-6.66699 -0.666992 -14.334 -1 -23.001 -1c-20 0 -40.333 4.33301 -61 13s-37.834 22.167 -51.501 40.5
s-20.5 41.5 -20.5 69.5c0 22 6.5 43 19.5 63s38.5 38.667 76.5 56c-22 10 -33 28.333 -33 55c0 16.667 2.33301 33.334 7 50.001c-14 -30.667 -30.333 -53.334 -49 -68.001c-33.333 -24.667 -72.666 -37 -117.999 -37c-106.667 0 -160 40 -160 120c0 42 16.667 75 50 99
s70.166 41 110.499 51s87.833 18.667 142.5 26c0 22.667 -1.66699 40.667 -5 54s-9.33301 24.666 -18 33.999c-6 6.66699 -13.667 11.834 -23 15.501s-18.666 5.5 -27.999 5.5c-40 0 -64 -36.333 -72 -109c-26.667 0 -47.834 0.833008 -63.501 2.5
s-30.834 5.16699 -45.501 10.5c1.33301 17.333 2 31 2 41c0 26 -3 55.333 -9 88c64 24 135.667 36 215 36c52.667 0 93.667 -3.83301 123 -11.5s52 -20.5 68 -38.5c14.667 -15.333 26 -35 34 -59s12 -58 12 -102v-66c0 -25.333 1.33301 -43.666 4 -54.999
s7.83398 -19.166 15.501 -23.499s19.834 -6.83301 36.501 -7.5c1.33301 -6 2 -14.667 2 -26c0 -20 -4.33301 -37.667 -13 -53c-40.667 -6.66699 -70.5 -20 -89.5 -40s-28.5 -40.667 -28.5 -62c0 -33.333 25.333 -50 76 -50c12.667 0 24 1 34 3zM237.501 192.998
c-18.333 -13.333 -27.5 -29.667 -27.5 -49c0 -28 12.667 -42 38 -42c20.667 0 39.167 9.5 55.5 28.5s24.5 44.833 24.5 77.5v17c-42 -8 -72.167 -18.667 -90.5 -32z" />
    <glyph glyph-name="Cacute" unicode="&#x106;" horiz-adv-x="634" 
d="M588 478c-8 -4.66699 -22 -8.16895 -42 -10.502s-39 -3.5 -57 -3.5c-0.666992 96 -36 144 -106 144c-50 0 -86.333 -22.667 -109 -68s-34 -103 -34 -173c0 -85.333 16.333 -153.666 49 -204.999s82.334 -77 149.001 -77c48.667 0 98 14 148 42
c14 -12 23.333 -30.333 28 -55c-26.667 -23.333 -60 -42.666 -100 -57.999s-85 -23 -135 -23c-68 0 -128 14.667 -180 44s-92.333 70.5 -121 123.5s-43 113.833 -43 182.5c0 72.667 15.833 135 47.5 187s73.667 91.167 126 117.5s109.166 39.5 170.499 39.5
c74 0 147.333 -17.333 220 -52c-7.33301 -42 -11 -93.667 -11 -155zM484 936.998c26.667 0 47.999 -1.33203 63.999 -3.99902c-56 -66.667 -99.333 -128.334 -130 -185.001c-17.333 0 -35.166 2 -53.499 6s-32.833 8.66699 -43.5 14c30 58.667 50.333 110.667 61 156
c25.333 8.66699 59.333 13 102 13z" />
    <glyph glyph-name="cacute" unicode="&#x107;" horiz-adv-x="484" 
d="M99.5 49.5c-46.333 39 -69.498 98.165 -69.498 177.498c0 41.333 9.5 80.333 28.5 117s47.667 66.334 86 89.001s84.5 34 138.5 34c39.333 0 73.166 -3.16699 101.499 -9.5s54.833 -16.166 79.5 -29.499c-8.66699 -35.333 -13 -79.333 -13 -132
c-25.333 -11.333 -60.333 -17 -105 -17c0 37.333 -5.16699 66 -15.5 86s-24.5 30 -42.5 30c-22.667 0 -40.167 -14.5 -52.5 -43.5s-18.5 -65.833 -18.5 -110.5c0 -43.333 10.667 -80.5 32 -111.5s53.666 -46.5 96.999 -46.5c40.667 0 74 7.66699 100 23
c15.333 -16.667 23 -38 23 -64c-17.333 -16 -41.333 -28.5 -72 -37.5s-64.667 -13.5 -102 -13.5c-84 0 -149.167 19.5 -195.5 58.5zM389.002 718.998c26.667 0 47.999 -1.33203 63.999 -3.99902c-56 -66.667 -99.333 -128.334 -130 -185.001c-17.333 0 -35.166 2 -53.499 6
s-32.833 8.66699 -43.5 14c30 58.667 50.333 110.667 61 156c25.333 8.66699 59.333 13 102 13z" />
    <glyph glyph-name="Ccircumflex" unicode="&#x108;" horiz-adv-x="634" 
d="M588 478c-8 -4.66699 -22 -8.16895 -42 -10.502s-39 -3.5 -57 -3.5c-0.666992 96 -36 144 -106 144c-50 0 -86.333 -22.667 -109 -68s-34 -103 -34 -173c0 -85.333 16.333 -153.666 49 -204.999s82.334 -77 149.001 -77c48.667 0 98 14 148 42
c14 -12 23.333 -30.333 28 -55c-26.667 -23.333 -60 -42.666 -100 -57.999s-85 -23 -135 -23c-68 0 -128 14.667 -180 44s-92.333 70.5 -121 123.5s-43 113.833 -43 182.5c0 72.667 15.833 135 47.5 187s73.667 91.167 126 117.5s109.166 39.5 170.499 39.5
c74 0 147.333 -17.333 220 -52c-7.33301 -42 -11 -93.667 -11 -155zM431 940.998c43.333 -52 96.6689 -104.332 160.002 -156.999c-24 -27.333 -54 -44.333 -90 -51c-42.667 31.333 -87.334 59 -134.001 83c-18.667 -10 -40.834 -23.167 -66.501 -39.5
s-46.5 -30.833 -62.5 -43.5c-14.667 3.33301 -27.667 10.666 -39 21.999s-19 23 -23 35c69.333 46.667 125.333 92 168 136c26.667 10 55.667 15 87 15z" />
    <glyph glyph-name="ccircumflex" unicode="&#x109;" horiz-adv-x="484" 
d="M99.5 49.5c-46.333 39 -69.498 98.165 -69.498 177.498c0 41.333 9.5 80.333 28.5 117s47.667 66.334 86 89.001s84.5 34 138.5 34c39.333 0 73.166 -3.16699 101.499 -9.5s54.833 -16.166 79.5 -29.499c-8.66699 -35.333 -13 -79.333 -13 -132
c-25.333 -11.333 -60.333 -17 -105 -17c0 37.333 -5.16699 66 -15.5 86s-24.5 30 -42.5 30c-22.667 0 -40.167 -14.5 -52.5 -43.5s-18.5 -65.833 -18.5 -110.5c0 -43.333 10.667 -80.5 32 -111.5s53.666 -46.5 96.999 -46.5c40.667 0 74 7.66699 100 23
c15.333 -16.667 23 -38 23 -64c-17.333 -16 -41.333 -28.5 -72 -37.5s-64.667 -13.5 -102 -13.5c-84 0 -149.167 19.5 -195.5 58.5zM336.002 722.998c43.333 -52 96.6689 -104.332 160.002 -156.999c-24 -27.333 -54 -44.333 -90 -51c-42.667 31.333 -87.334 59 -134.001 83
c-18.667 -10 -40.834 -23.167 -66.501 -39.5s-46.5 -30.833 -62.5 -43.5c-14.667 3.33301 -27.667 10.666 -39 21.999s-19 23 -23 35c69.333 46.667 125.333 92 168 136c26.667 10 55.667 15 87 15z" />
    <glyph glyph-name="Cdotaccent" unicode="&#x10a;" horiz-adv-x="634" 
d="M588 478c-8 -4.66699 -22 -8.16895 -42 -10.502s-39 -3.5 -57 -3.5c-0.666992 96 -36 144 -106 144c-50 0 -86.333 -22.667 -109 -68s-34 -103 -34 -173c0 -85.333 16.333 -153.666 49 -204.999s82.334 -77 149.001 -77c48.667 0 98 14 148 42
c14 -12 23.333 -30.333 28 -55c-26.667 -23.333 -60 -42.666 -100 -57.999s-85 -23 -135 -23c-68 0 -128 14.667 -180 44s-92.333 70.5 -121 123.5s-43 113.833 -43 182.5c0 72.667 15.833 135 47.5 187s73.667 91.167 126 117.5s109.166 39.5 170.499 39.5
c74 0 147.333 -17.333 220 -52c-7.33301 -42 -11 -93.667 -11 -155zM457.5 879.998c18.333 -14.667 27.5 -36.334 27.5 -65.001c0 -24.667 -10.333 -44.667 -31 -60s-48.667 -23 -84 -23c-31.333 0 -56.166 7.33301 -74.499 22s-27.5 34.334 -27.5 59.001
c0 28.667 10 50.667 30 66s46.333 23 79 23c35.333 0 62.166 -7.33301 80.499 -22z" />
    <glyph glyph-name="cdotaccent" unicode="&#x10b;" horiz-adv-x="484" 
d="M99.5 49.5c-46.333 39 -69.498 98.165 -69.498 177.498c0 41.333 9.5 80.333 28.5 117s47.667 66.334 86 89.001s84.5 34 138.5 34c39.333 0 73.166 -3.16699 101.499 -9.5s54.833 -16.166 79.5 -29.499c-8.66699 -35.333 -13 -79.333 -13 -132
c-25.333 -11.333 -60.333 -17 -105 -17c0 37.333 -5.16699 66 -15.5 86s-24.5 30 -42.5 30c-22.667 0 -40.167 -14.5 -52.5 -43.5s-18.5 -65.833 -18.5 -110.5c0 -43.333 10.667 -80.5 32 -111.5s53.666 -46.5 96.999 -46.5c40.667 0 74 7.66699 100 23
c15.333 -16.667 23 -38 23 -64c-17.333 -16 -41.333 -28.5 -72 -37.5s-64.667 -13.5 -102 -13.5c-84 0 -149.167 19.5 -195.5 58.5zM362.502 661.998c18.333 -14.667 27.5 -36.334 27.5 -65.001c0 -24.667 -10.333 -44.667 -31 -60s-48.667 -23 -84 -23
c-31.333 0 -56.166 7.33301 -74.499 22s-27.5 34.334 -27.5 59.001c0 28.667 10 50.667 30 66s46.333 23 79 23c35.333 0 62.166 -7.33301 80.499 -22z" />
    </font>
</defs>
</svg>
